<?xml version="1.0" encoding="UTF-8"?>
<!DOCTYPE svg PUBLIC "-//W3C//DTD SVG 1.1//EN" "http://www.w3.org/Graphics/SVG/1.1/DTD/svg11.dtd">
<!-- Creator: CorelDRAW Standard 2021 (64-Bit) -->
<svg xmlns="http://www.w3.org/2000/svg" xml:space="preserve" width="162.789mm" height="66.229mm" version="1.1" style="shape-rendering:geometricPrecision; text-rendering:geometricPrecision; image-rendering:optimizeQuality; fill-rule:evenodd; clip-rule:evenodd"
viewBox="0 0 4455.15 1812.53"
 xmlns:xlink="http://www.w3.org/1999/xlink"
 xmlns:xodm="http://www.corel.com/coreldraw/odm/2003">
 <defs>
  <style type="text/css">
   <![CDATA[
    .str0 {stroke:white;stroke-width:18.54;stroke-miterlimit:22.9256}
    .fil2 {fill:none}
    .fil1 {fill:url(#id1);fill-rule:nonzero}
    .fil3 {fill:url(#id2);fill-rule:nonzero}
    .fil0 {fill:url(#id3);fill-rule:nonzero;fill-opacity:0.101961}
   ]]>
  </style>
   <clipPath id="id0">
    <path d="M313.88 9.27l3827.38 0c167.54,0 304.62,137.07 304.62,304.61l0 1162.73c0,167.54 -137.08,304.61 -304.62,304.61l-3827.38 0c-167.54,0 -304.61,-137.07 -304.61,-304.61l0 -1162.73c0,-167.54 137.07,-304.61 304.61,-304.61z"/>
   </clipPath>
  <linearGradient id="id1" gradientUnits="userSpaceOnUse" x1="7836.14" y1="2084.35" x2="7836.14" y2="1224.73">
   <stop offset="0" style="stop-opacity:1; stop-color:#9E4603"/>
   <stop offset="0.74902" style="stop-opacity:1; stop-color:#CE7322"/>
   <stop offset="1" style="stop-opacity:1; stop-color:#FFA142"/>
  </linearGradient>
  <linearGradient id="id2" gradientUnits="userSpaceOnUse" x1="1383.54" y1="1785.84" x2="1065.55" y2="1785.84">
   <stop offset="0" style="stop-opacity:1; stop-color:#004260"/>
   <stop offset="0.74902" style="stop-opacity:1; stop-color:#009EAF"/>
   <stop offset="1" style="stop-opacity:1; stop-color:#00FBFF"/>
  </linearGradient>
  <linearGradient id="id3" gradientUnits="userSpaceOnUse" x1="7680.53" y1="1654.54" x2="7680.53" y2="-266.91">
   <stop offset="0" style="stop-opacity:1; stop-color:black"/>
   <stop offset="0.223529" style="stop-opacity:1; stop-color:black"/>
   <stop offset="0.529412" style="stop-opacity:1; stop-color:black"/>
   <stop offset="0.709804" style="stop-opacity:1; stop-color:black"/>
   <stop offset="1" style="stop-opacity:1; stop-color:white"/>
  </linearGradient>
 </defs>
 <g id="Layer_x0020_1">
  <metadata id="CorelCorpID_0Corel-Layer"/>
  <g>
  </g>
  <g style="clip-path:url(#id0)">
   <g>
    <path class="fil0" d="M9216.26 1654.54l-3071.49 0c-376.95,0 -682.55,-132.35 -682.55,-295.61l0 -1330.23c0,-163.26 305.6,-295.61 682.55,-295.61l3071.49 0c376.98,0 682.57,132.35 682.57,295.61l0 1330.23c0,163.26 -305.6,295.61 -682.57,295.61z"/>
    <path class="fil1" d="M5278.92 1224.73l0 106.65c0,415.87 352.28,752.97 786.86,752.97l3540.73 0c434.57,0 786.86,-337.1 786.86,-752.97l0 -106.65 -5114.45 0z"/>
   </g>
  </g>
  <path class="fil2 str0" d="M313.88 9.27l3827.38 0c167.54,0 304.62,137.07 304.62,304.61l0 1162.73c0,167.54 -137.08,304.61 -304.62,304.61l-3827.38 0c-167.54,0 -304.61,-137.07 -304.61,-304.61l0 -1162.73c0,-167.54 137.07,-304.61 304.61,-304.61z"/>
  <path class="fil3" d="M1092.24 1759.15l-0.17 0 -0.18 0 -0.17 0 -0.18 0.02 -0.17 0 -0.17 0 -0.16 0.01 -0.18 0 -0.17 0.02 -0.16 0.01 -0.17 0 -0.18 0.02 -0.16 0.02 -0.17 0.01 -0.17 0.02 -0.17 0.01 -0.17 0.02 -0.18 0.03 -0.17 0.01 -0.17 0.02 -0.16 0.03 -0.17 0.01 -0.17 0.03 -0.17 0.02 -0.17 0.03 -0.15 0.03 -0.17 0.03 -0.17 0.03 -0.16 0.03 -0.17 0.03 -0.17 0.03 -0.15 0.03 -0.17 0.03 -0.17 0.03 -0.17 0.04 -0.15 0.03 -0.17 0.05 -0.17 0.03 -0.15 0.04 -0.17 0.05 -0.15 0.03 -0.17 0.05 -0.15 0.04 -0.17 0.05 -0.15 0.04 -0.17 0.05 -0.15 0.05 -0.15 0.04 -0.17 0.06 -0.15 0.05 -0.15 0.04 -0.17 0.06 -0.15 0.04 -0.15 0.06 -0.15 0.05 -0.15 0.06 -0.17 0.06 -0.15 0.06 -0.15 0.05 -0.15 0.06 -0.15 0.06 -0.15 0.06 -0.15 0.08 -0.15 0.06 -0.14 0.06 -0.15 0.06 -0.15 0.06 -0.15 0.08 -0.15 0.06 -0.14 0.08 -0.15 0.06 -0.15 0.07 -0.14 0.08 -0.15 0.06 -0.14 0.08 -0.15 0.07 -0.14 0.08 -0.15 0.08 -0.14 0.07 -0.15 0.08 -0.14 0.08 -0.14 0.07 -0.15 0.08 -0.14 0.09 -0.14 0.08 -0.13 0.07 -0.14 0.09 -0.15 0.07 -0.14 0.09 -0.14 0.09 -0.14 0.07 -0.13 0.09 -0.14 0.09 -0.12 0.09 -0.14 0.07 -0.14 0.09 -0.14 0.09 -0.14 0.09 -0.12 0.09 -0.14 0.11 -0.13 0.09 -0.12 0.09 -0.14 0.09 -0.12 0.11 -0.14 0.09 -0.12 0.09 -0.14 0.11 -0.12 0.09 -0.12 0.11 -0.13 0.11 -0.12 0.09 -0.12 0.1 -0.12 0.11 -0.12 0.09 -0.12 0.11 -0.12 0.11 -0.12 0.1 -0.12 0.11 -0.12 0.11 -0.12 0.11 -0.12 0.1 -0.12 0.12 -0.11 0.11 -0.12 0.11 -0.12 0.12 -0.11 0.11 -0.12 0.1 -0.11 0.12 -0.12 0.1 -0.11 0.12 -0.11 0.1 -0.12 0.12 -0.11 0.12 -0.1 0.1 -0.12 0.12 -0.11 0.12 -0.11 0.12 -0.11 0.12 -0.1 0.12 -0.11 0.12 -0.11 0.12 -0.1 0.12 -0.09 0.12 -0.1 0.12 -0.11 0.12 -0.09 0.12 -0.11 0.14 -0.11 0.12 -0.09 0.12 -0.1 0.14 -0.09 0.12 -0.09 0.14 -0.1 0.12 -0.09 0.14 -0.09 0.12 -0.09 0.14 -0.11 0.14 -0.09 0.12 -0.09 0.14 -0.09 0.14 -0.09 0.13 -0.08 0.14 -0.09 0.12 -0.09 0.14 -0.09 0.14 -0.07 0.14 -0.09 0.13 -0.09 0.14 -0.07 0.15 -0.09 0.13 -0.08 0.14 -0.08 0.14 -0.09 0.14 -0.07 0.15 -0.08 0.14 -0.08 0.13 -0.07 0.15 -0.08 0.13 -0.08 0.15 -0.07 0.13 -0.08 0.15 -0.08 0.13 -0.06 0.15 -0.07 0.14 -0.08 0.15 -0.06 0.15 -0.08 0.14 -0.06 0.15 -0.08 0.15 -0.06 0.15 -0.06 0.15 -0.06 0.14 -0.06 0.15 -0.08 0.15 -0.06 0.15 -0.06 0.15 -0.06 0.15 -0.05 0.15 -0.06 0.15 -0.06 0.17 -0.06 0.15 -0.04 0.15 -0.06 0.15 -0.04 0.15 -0.06 0.17 -0.05 0.15 -0.04 0.15 -0.06 0.17 -0.04 0.15 -0.05 0.15 -0.04 0.16 -0.05 0.15 -0.05 0.16 -0.04 0.15 -0.05 0.17 -0.03 0.15 -0.04 0.17 -0.05 0.15 -0.03 0.17 -0.05 0.17 -0.03 0.15 -0.04 0.17 -0.03 0.17 -0.03 0.16 -0.03 0.15 -0.03 0.16 -0.03 0.17 -0.03 0.17 -0.03 0.17 -0.03 0.17 -0.03 0.15 -0.03 0.17 -0.01 0.17 -0.03 0.16 -0.02 0.17 -0.03 0.17 -0.01 0.17 -0.02 0.17 -0.03 0.18 -0.02 0.17 -0.01 0.17 -0.02 0.16 -0.01 0.17 -0.02 0.17 -0.01 0.18 0 0.17 -0.02 0.17 -0.01 0.17 0 0.18 -0.02 0.17 0 0.17 0 0.17 -0.01 0.18 0 0.17 0 0.18 0 0.17 0 0.17 0 0.18 0 0.17 0.01 0.18 0 0.17 0 0.17 0.02 0.17 0 0.18 0.01 0.17 0.02 0.17 0 0.17 0.01 0.18 0.02 0.17 0.01 0.17 0.02 0.16 0.01 0.17 0.02 0.17 0.03 0.18 0.02 0.17 0.01 0.17 0.03 0.17 0.02 0.17 0.03 0.16 0.01 0.17 0.03 0.17 0.03 0.15 0.03 0.17 0.03 0.17 0.03 0.17 0.03 0.17 0.03 0.16 0.03 0.15 0.03 0.17 0.03 0.16 0.04 0.17 0.03 0.15 0.05 0.17 0.03 0.17 0.05 0.15 0.04 0.17 0.03 0.15 0.05 0.17 0.04 0.15 0.05 0.16 0.05 0.15 0.04 0.16 0.05 0.15 0.04 0.15 0.06 0.17 0.04 0.15 0.05 0.15 0.06 0.17 0.04 0.15 0.06 0.15 0.04 0.15 0.06 0.15 0.06 0.17 0.06 0.15 0.05 0.15 0.06 0.15 0.06 0.15 0.06 0.15 0.08 0.15 0.06 0.15 0.06 0.14 0.06 0.15 0.06 0.15 0.08 0.15 0.06 0.15 0.08 0.14 0.06 0.15 0.08 0.15 0.07 0.14 0.06 0.15 0.08 0.13 0.08 0.15 0.07 0.13 0.08 0.15 0.08 0.13 0.07 0.15 0.08 0.13 0.08 0.14 0.07 0.15 0.09 0.14 0.08 0.14 0.08 0.14 0.09 0.14 0.07 0.15 0.09 0.14 0.09 0.13 0.07 0.14 0.09 0.14 0.09 0.14 0.09 0.12 0.08 0.14 0.09 0.13 0.09 0.14 0.09 0.14 0.09 0.12 0.11 0.14 0.09 0.14 0.09 0.12 0.09 0.14 0.1 0.12 0.09 0.14 0.09 0.12 0.1 0.14 0.09 0.12 0.11 0.12 0.11 0.14 0.09 0.12 0.11 0.12 0.1 0.12 0.09 0.12 0.1 0.12 0.11 0.12 0.11 0.12 0.1 0.12 0.11 0.12 0.11 0.12 0.11 0.12 0.12 0.12 0.1 0.1 0.11 0.12 0.12 0.12 0.11 0.1 0.11 0.12 0.12 0.1 0.11 0.12 0.12 0.1 0.11 0.11 0.12 0.12 0.12 0.11 0.11 0.11 0.12 0.12 0.12 0.11 0.12 0.1 0.12 0.11 0.12 0.11 0.12 0.1 0.12 0.11 0.12 0.11 0.12 0.09 0.12 0.11 0.12 0.1 0.12 0.09 0.13 0.11 0.12 0.11 0.12 0.09 0.14 0.11 0.12 0.09 0.14 0.09 0.12 0.11 0.14 0.09 0.12 0.09 0.13 0.09 0.14 0.11 0.12 0.09 0.14 0.09 0.14 0.09 0.14 0.09 0.14 0.07 0.12 0.09 0.14 0.09 0.13 0.09 0.14 0.08 0.14 0.09 0.14 0.09 0.15 0.07 0.14 0.09 0.13 0.07 0.14 0.08 0.14 0.09 0.15 0.08 0.14 0.07 0.14 0.08 0.15 0.08 0.14 0.07 0.15 0.08 0.14 0.08 0.15 0.07 0.14 0.08 0.15 0.06 0.14 0.08 0.15 0.07 0.15 0.06 0.14 0.08 0.15 0.06 0.15 0.08 0.15 0.06 0.15 0.06 0.14 0.06 0.15 0.06 0.15 0.08 0.15 0.06 0.15 0.06 0.15 0.06 0.15 0.05 0.15 0.06 0.17 0.06 0.15 0.06 0.15 0.05 0.15 0.06 0.15 0.04 0.17 0.06 0.15 0.04 0.15 0.05 0.17 0.06 0.15 0.04 0.15 0.05 0.17 0.05 0.15 0.04 0.17 0.05 0.15 0.04 0.17 0.05 0.15 0.03 0.17 0.05 0.15 0.04 0.17 0.03 0.17 0.05 0.15 0.03 0.17 0.05 0.17 0.03 0.17 0.03 0.15 0.03 0.17 0.03 0.17 0.03 0.16 0.03 0.17 0.03 0.17 0.03 0.15 0.03 0.17 0.03 0.17 0.02 0.17 0.03 0.17 0.01 0.16 0.03 0.17 0.02 0.17 0.01 0.18 0.03 0.17 0.02 0.17 0.01 0.17 0.02 0.17 0.01 0.16 0.02 0.18 0.02 0.17 0 0.16 0.01 0.17 0.02 0.18 0 0.16 0.01 0.17 0 0.17 0 0.18 0.02 0.17 0 0.18 0 0.17 0zm264.59 -53.38l-264.59 0 0 53.38 264.59 0zm0 0l0.17 0 0.18 0 0.17 0 0.18 -0.02 0.17 0 0.17 0 0.17 -0.01 0.18 0 0.17 -0.02 0.17 -0.01 0.17 0 0.18 -0.02 0.17 -0.02 0.17 -0.01 0.16 -0.02 0.17 -0.01 0.17 -0.02 0.18 -0.03 0.17 -0.01 0.17 -0.02 0.17 -0.03 0.17 -0.01 0.16 -0.03 0.17 -0.02 0.17 -0.03 0.15 -0.03 0.17 -0.03 0.17 -0.03 0.17 -0.03 0.17 -0.03 0.16 -0.03 0.15 -0.03 0.16 -0.03 0.17 -0.03 0.17 -0.05 0.15 -0.03 0.17 -0.05 0.17 -0.03 0.15 -0.04 0.17 -0.05 0.15 -0.03 0.17 -0.05 0.15 -0.04 0.16 -0.05 0.15 -0.04 0.16 -0.05 0.15 -0.05 0.15 -0.04 0.17 -0.06 0.15 -0.05 0.15 -0.04 0.17 -0.06 0.15 -0.04 0.15 -0.06 0.15 -0.05 0.15 -0.06 0.17 -0.06 0.15 -0.06 0.15 -0.05 0.15 -0.06 0.15 -0.06 0.15 -0.06 0.15 -0.08 0.15 -0.06 0.14 -0.06 0.15 -0.06 0.15 -0.06 0.15 -0.08 0.15 -0.06 0.14 -0.08 0.15 -0.06 0.15 -0.07 0.14 -0.08 0.15 -0.06 0.14 -0.08 0.15 -0.07 0.13 -0.08 0.15 -0.08 0.13 -0.07 0.15 -0.08 0.13 -0.08 0.14 -0.07 0.15 -0.08 0.14 -0.09 0.14 -0.08 0.14 -0.07 0.13 -0.09 0.15 -0.07 0.14 -0.09 0.13 -0.09 0.14 -0.08 0.14 -0.09 0.14 -0.09 0.12 -0.09 0.14 -0.07 0.13 -0.09 0.14 -0.09 0.14 -0.09 0.12 -0.09 0.14 -0.11 0.14 -0.09 0.12 -0.09 0.14 -0.09 0.12 -0.11 0.14 -0.09 0.12 -0.09 0.14 -0.11 0.12 -0.09 0.12 -0.11 0.14 -0.11 0.12 -0.09 0.12 -0.1 0.12 -0.11 0.12 -0.09 0.12 -0.11 0.12 -0.11 0.12 -0.1 0.12 -0.11 0.12 -0.11 0.12 -0.1 0.12 -0.11 0.12 -0.12 0.11 -0.11 0.12 -0.11 0.12 -0.12 0.1 -0.11 0.12 -0.1 0.1 -0.12 0.12 -0.1 0.1 -0.12 0.11 -0.1 0.12 -0.12 0.11 -0.12 0.11 -0.1 0.12 -0.12 0.1 -0.12 0.11 -0.12 0.11 -0.12 0.11 -0.12 0.1 -0.12 0.11 -0.12 0.11 -0.12 0.09 -0.12 0.11 -0.12 0.1 -0.12 0.09 -0.12 0.11 -0.14 0.11 -0.12 0.09 -0.12 0.11 -0.14 0.09 -0.12 0.09 -0.14 0.11 -0.12 0.09 -0.14 0.09 -0.12 0.09 -0.14 0.11 -0.14 0.09 -0.12 0.09 -0.14 0.09 -0.14 0.09 -0.13 0.07 -0.14 0.09 -0.12 0.09 -0.14 0.09 -0.14 0.07 -0.14 0.09 -0.13 0.09 -0.14 0.07 -0.15 0.09 -0.14 0.07 -0.14 0.08 -0.14 0.09 -0.14 0.08 -0.15 0.07 -0.14 0.08 -0.13 0.08 -0.15 0.07 -0.13 0.08 -0.15 0.08 -0.13 0.07 -0.15 0.08 -0.13 0.06 -0.15 0.08 -0.14 0.07 -0.15 0.06 -0.15 0.08 -0.14 0.06 -0.15 0.08 -0.15 0.06 -0.15 0.06 -0.15 0.06 -0.14 0.06 -0.15 0.08 -0.15 0.06 -0.15 0.06 -0.15 0.06 -0.15 0.05 -0.15 0.06 -0.15 0.06 -0.17 0.06 -0.15 0.05 -0.15 0.06 -0.15 0.04 -0.15 0.06 -0.17 0.04 -0.15 0.05 -0.15 0.06 -0.17 0.04 -0.15 0.05 -0.15 0.05 -0.16 0.04 -0.15 0.05 -0.16 0.04 -0.15 0.05 -0.17 0.03 -0.15 0.05 -0.17 0.04 -0.15 0.03 -0.17 0.05 -0.17 0.03 -0.15 0.04 -0.17 0.03 -0.16 0.03 -0.17 0.03 -0.15 0.03 -0.16 0.03 -0.17 0.03 -0.17 0.03 -0.17 0.03 -0.17 0.03 -0.15 0.03 -0.17 0.02 -0.17 0.03 -0.16 0.01 -0.17 0.03 -0.17 0.02 -0.17 0.01 -0.17 0.03 -0.18 0.02 -0.17 0.01 -0.17 0.02 -0.16 0.01 -0.17 0.02 -0.17 0.02 -0.18 0 -0.17 0.01 -0.17 0.02 -0.17 0 -0.18 0.01 -0.17 0 -0.17 0 -0.17 0.02 -0.18 0 -0.17 0 -0.18 0 -0.17 0 -0.17 0 -0.18 0 -0.17 -0.02 -0.18 0 -0.17 0 -0.17 -0.01 -0.17 0 -0.18 -0.02 -0.17 -0.01 -0.17 0 -0.17 -0.02 -0.18 -0.02 -0.17 -0.01 -0.17 -0.02 -0.16 -0.01 -0.17 -0.02 -0.17 -0.03 -0.18 -0.01 -0.17 -0.02 -0.17 -0.03 -0.17 -0.01 -0.17 -0.03 -0.16 -0.02 -0.17 -0.03 -0.17 -0.03 -0.15 -0.03 -0.17 -0.03 -0.17 -0.03 -0.17 -0.03 -0.17 -0.03 -0.16 -0.03 -0.15 -0.03 -0.16 -0.03 -0.17 -0.04 -0.17 -0.03 -0.15 -0.05 -0.17 -0.03 -0.17 -0.04 -0.15 -0.05 -0.17 -0.03 -0.15 -0.05 -0.17 -0.04 -0.15 -0.05 -0.16 -0.04 -0.15 -0.05 -0.16 -0.05 -0.15 -0.04 -0.15 -0.06 -0.17 -0.05 -0.15 -0.04 -0.15 -0.06 -0.17 -0.04 -0.15 -0.06 -0.15 -0.05 -0.15 -0.06 -0.15 -0.06 -0.17 -0.06 -0.15 -0.05 -0.15 -0.06 -0.15 -0.06 -0.15 -0.06 -0.15 -0.08 -0.15 -0.06 -0.15 -0.06 -0.14 -0.06 -0.15 -0.06 -0.15 -0.08 -0.15 -0.06 -0.15 -0.08 -0.14 -0.06 -0.15 -0.07 -0.15 -0.08 -0.14 -0.06 -0.15 -0.08 -0.13 -0.07 -0.15 -0.08 -0.13 -0.08 -0.15 -0.07 -0.13 -0.08 -0.15 -0.08 -0.13 -0.07 -0.14 -0.08 -0.15 -0.09 -0.14 -0.08 -0.14 -0.07 -0.14 -0.09 -0.13 -0.07 -0.15 -0.09 -0.14 -0.09 -0.13 -0.07 -0.14 -0.09 -0.14 -0.09 -0.14 -0.09 -0.12 -0.07 -0.14 -0.09 -0.13 -0.09 -0.14 -0.09 -0.14 -0.09 -0.12 -0.11 -0.14 -0.09 -0.14 -0.09 -0.12 -0.09 -0.14 -0.11 -0.12 -0.09 -0.14 -0.09 -0.12 -0.11 -0.14 -0.09 -0.12 -0.11 -0.12 -0.11 -0.14 -0.09 -0.12 -0.1 -0.12 -0.11 -0.12 -0.09 -0.12 -0.11 -0.12 -0.11 -0.12 -0.1 -0.12 -0.11 -0.12 -0.11 -0.12 -0.11 -0.12 -0.1 -0.12 -0.12 -0.12 -0.11 -0.1 -0.11 -0.12 -0.12 -0.12 -0.11 -0.1 -0.1 -0.12 -0.12 -0.1 -0.1 -0.12 -0.12 -0.1 -0.1 -0.11 -0.12 -0.12 -0.12 -0.11 -0.11 -0.11 -0.12 -0.12 -0.12 -0.1 -0.12 -0.11 -0.12 -0.11 -0.12 -0.11 -0.12 -0.1 -0.12 -0.11 -0.12 -0.11 -0.12 -0.09 -0.12 -0.11 -0.12 -0.1 -0.12 -0.09 -0.14 -0.11 -0.12 -0.11 -0.12 -0.09 -0.14 -0.11 -0.12 -0.09 -0.14 -0.09 -0.12 -0.11 -0.14 -0.09 -0.12 -0.09 -0.14 -0.09 -0.14 -0.11 -0.12 -0.09 -0.14 -0.09 -0.14 -0.09 -0.13 -0.09 -0.14 -0.07 -0.12 -0.09 -0.14 -0.09 -0.14 -0.09 -0.14 -0.07 -0.13 -0.09 -0.14 -0.09 -0.15 -0.07 -0.13 -0.09 -0.14 -0.07 -0.14 -0.08 -0.14 -0.09 -0.15 -0.08 -0.14 -0.07 -0.13 -0.08 -0.15 -0.08 -0.13 -0.07 -0.15 -0.08 -0.13 -0.08 -0.15 -0.07 -0.14 -0.08 -0.15 -0.06 -0.14 -0.08 -0.15 -0.07 -0.15 -0.06 -0.14 -0.08 -0.15 -0.06 -0.15 -0.08 -0.15 -0.06 -0.15 -0.06 -0.14 -0.06 -0.15 -0.06 -0.15 -0.08 -0.15 -0.06 -0.15 -0.06 -0.15 -0.06 -0.15 -0.05 -0.15 -0.06 -0.17 -0.06 -0.15 -0.06 -0.15 -0.05 -0.15 -0.06 -0.15 -0.04 -0.17 -0.06 -0.15 -0.04 -0.15 -0.05 -0.17 -0.06 -0.15 -0.04 -0.15 -0.05 -0.16 -0.05 -0.15 -0.04 -0.16 -0.05 -0.15 -0.04 -0.17 -0.05 -0.15 -0.03 -0.17 -0.05 -0.15 -0.04 -0.17 -0.03 -0.17 -0.05 -0.15 -0.03 -0.17 -0.04 -0.17 -0.03 -0.16 -0.03 -0.15 -0.03 -0.16 -0.03 -0.17 -0.03 -0.17 -0.03 -0.17 -0.03 -0.17 -0.03 -0.15 -0.03 -0.17 -0.03 -0.17 -0.02 -0.16 -0.03 -0.17 -0.01 -0.17 -0.03 -0.17 -0.02 -0.17 -0.01 -0.18 -0.03 -0.17 -0.02 -0.17 -0.01 -0.16 -0.02 -0.17 -0.01 -0.17 -0.02 -0.18 -0.02 -0.17 0 -0.17 -0.01 -0.17 -0.02 -0.18 0 -0.17 -0.01 -0.17 0 -0.17 0 -0.18 -0.02 -0.17 0 -0.18 0 -0.17 0z"/>
 </g>
</svg>
