<?xml version="1.0" encoding="UTF-8" standalone="no"?>
<!-- Created with Inkscape (http://www.inkscape.org/) -->

<svg
   width="326.30566mm"
   height="18.281054mm"
   viewBox="0 0 326.30566 18.281054"
   version="1.1"
   id="svg1"
   sodipodi:docname="benefit.svg"
   inkscape:version="1.3.1 (9b9bdc1480, 2023-11-25, custom)"
   xmlns:inkscape="http://www.inkscape.org/namespaces/inkscape"
   xmlns:sodipodi="http://sodipodi.sourceforge.net/DTD/sodipodi-0.dtd"
   xmlns="http://www.w3.org/2000/svg"
   xmlns:svg="http://www.w3.org/2000/svg">
  <sodipodi:namedview
     id="namedview1"
     pagecolor="#ffffff"
     bordercolor="#000000"
     borderopacity="0.25"
     inkscape:showpageshadow="2"
     inkscape:pageopacity="0.0"
     inkscape:pagecheckerboard="0"
     inkscape:deskcolor="#d1d1d1"
     inkscape:document-units="mm"
     inkscape:zoom="0.51402139"
     inkscape:cx="580.71513"
     inkscape:cy="171.1991"
     inkscape:window-width="1850"
     inkscape:window-height="1016"
     inkscape:window-x="0"
     inkscape:window-y="0"
     inkscape:window-maximized="1"
     inkscape:current-layer="layer1" />
  <defs
     id="defs1">
    <linearGradient
       id="swatch8"
       inkscape:swatch="solid">
      <stop
         style="stop-color:#7858a0;stop-opacity:1;"
         offset="0"
         id="stop8" />
    </linearGradient>
  </defs>
  <g
     inkscape:label="Layer 1"
     inkscape:groupmode="layer"
     id="layer1"
     transform="translate(-57.831162,-75.464446)">
    <path
       style="font-style:italic;font-size:25.4px;font-family:'Louis George Cafe';-inkscape-font-specification:'Louis George Cafe Italic';fill:#ffffff;stroke-width:0.238125"
       d="m 57.831162,75.464452 q 0.520899,0 2.133203,0 0.198438,0.297656 4.043164,7.416601 0.02481,0 0.04961,0.04961 1.389062,-1.860352 5.605859,-7.466211 0.595312,0 2.356445,0 0,0 0.04961,0.02481 -1.810743,2.306835 -7.242969,9.227343 -0.272852,2.207617 -1.066602,8.880078 0,0 -0.0248,0.02481 -0.446485,0 -1.761133,0 0,0 0,-0.02481 0.248047,-2.232422 0.967383,-8.880078 -1.289844,-2.306836 -5.109766,-9.227343 z m 19.670118,6.275586 q 0.07441,0 0.32246,0 1.909961,0 3.472657,1.488281 1.488281,1.637109 1.488281,3.770312 0,0.372071 -0.04961,0.744141 -0.272852,2.654102 -2.530079,4.588867 -1.860351,1.389063 -3.869531,1.389063 -2.133203,0 -3.695898,-1.5875 -1.389063,-1.612305 -1.389063,-3.621485 0,-0.347265 0.02481,-0.719336 0.02481,-0.04961 0.02481,-0.124023 0.272851,-2.455664 2.282031,-4.34082 1.934766,-1.5875 3.919141,-1.5875 z m -4.464844,6.002734 q 0,0 0,0.04961 -0.198438,1.761133 0.942578,3.100586 1.091406,1.116211 2.554883,1.116211 1.885156,0 3.373437,-1.736328 0.942578,-1.21543 1.091406,-2.530078 0.198438,-1.885156 -1.066601,-3.249414 -1.016992,-0.992187 -2.38125,-0.992187 -0.07441,0 -0.198438,0 -1.463476,0 -2.877343,1.265039 -1.265039,1.314648 -1.438672,2.976561 z m 12.7,-5.903516 q 0.42168,0 1.661914,0 0,0 0.02481,0.04961 -0.198438,1.835547 -0.84336,7.391797 -0.198437,1.95957 1.835547,2.480468 0.396875,0.124024 1.389063,0.124024 1.240234,0 1.909961,-0.347266 1.016992,-0.446484 1.413867,-1.265039 0.248047,-0.570508 0.297656,-1.116211 0.272852,-2.430859 0.818555,-7.267773 0,-0.0248 0.04961,-0.04961 0.396875,0 1.661914,0 0,0 0.02481,0.04961 -0.322461,2.877344 -1.289844,11.534179 0,0 -0.04961,0.02481 -0.42168,0 -1.661914,0 -0.02481,0 -0.02481,-0.02481 0.02481,-0.297656 0.124023,-1.16582 -1.513085,1.364258 -3.571875,1.364258 -2.232421,0 -3.348632,-0.942578 -1.339453,-1.116211 -1.339453,-2.80293 0,-0.248047 0.04961,-0.520898 0.272852,-2.505274 0.818555,-7.466211 0,-0.0248 0.04961,-0.04961 z m 18.057814,-0.09922 q 1.31465,0 2.23242,0.595312 -0.19844,0.620117 -0.59531,1.860352 0,0 0,0 -1.0418,-0.669727 -1.95957,-0.669727 -2.0836,0 -3.1502,1.934766 -0.22324,0.446484 -0.27285,0.917773 -0.272852,2.406055 -0.818555,7.218164 0,0 -0.02481,0.02481 -0.421679,0 -1.686719,0 0,0 0,-0.02481 0.322461,-2.902148 1.289844,-11.583789 0,0 0.02481,-0.0248 0.42168,0 1.68672,0 0,0 0.0248,0.0248 -0.0248,0.272852 -0.12402,1.016992 0.0248,0 0.0248,0 0.64493,-0.74414 1.71153,-1.066601 0.84336,-0.223242 1.63711,-0.223242 z m 11.50937,-6.275586 q 0.42168,0 1.66192,0 0,0 0.0496,0.02481 -0.24805,2.083593 -0.94258,8.30957 0,0 0.0248,0 0.19844,-0.372071 1.14102,-1.141016 1.36426,-0.942578 3.00137,-0.942578 3.02617,0 4.58886,2.604492 0.66973,1.289844 0.66973,2.629297 0,0.322461 -0.0496,0.644922 0,0.09922 -0.0248,0.272851 -0.24805,2.257227 -2.15801,4.142383 -0.99219,0.818555 -1.76113,1.16582 -1.28985,0.545704 -2.43086,0.545704 -0.0248,0 -0.0248,0 -0.0248,0 -0.0496,0 -2.6789,0 -3.79511,-2.058789 -0.0248,0 -0.0248,0 -0.0496,0.496093 -0.22324,1.934765 0,0 -0.0248,0.02481 -0.42168,0 -1.66191,0 0,0 -0.0248,-0.02481 0.4961,-4.514453 2.00918,-18.107421 0.0248,0 0.0496,-0.02481 z m 0.42168,12.129492 q 0,0.02481 0,0.148828 -0.22324,2.133203 1.26504,3.522266 0.89297,0.719335 2.30684,0.719335 1.95957,0 3.47265,-1.860351 0.79375,-1.16582 0.91778,-2.282031 0,-0.07441 0.0248,-0.198438 0.22325,-1.860351 -1.14101,-3.249414 -0.99219,-0.917773 -2.57969,-0.917773 -2.28203,0 -3.6959,2.430859 -0.47129,0.917774 -0.57051,1.686719 z m 12.50157,-5.754688 q 0.42168,0 1.66191,0 0,0 0.0248,0.04961 -0.19844,1.835547 -0.84336,7.391797 -0.19844,1.95957 1.83554,2.480468 0.39688,0.124024 1.38907,0.124024 1.24023,0 1.90996,-0.347266 1.01699,-0.446484 1.41386,-1.265039 0.24805,-0.570508 0.29766,-1.116211 0.27285,-2.430859 0.81855,-7.267773 0,-0.0248 0.0496,-0.04961 0.39688,0 1.66192,0 0,0 0.0248,0.04961 -0.32246,2.877344 -1.28984,11.534179 0,0 -0.0496,0.02481 -0.42168,0 -1.66191,0 -0.0248,0 -0.0248,-0.02481 0.0248,-0.297656 0.12402,-1.16582 -1.51308,1.364258 -3.57187,1.364258 -2.23242,0 -3.34863,-0.942578 -1.33946,-1.116211 -1.33946,-2.80293 0,-0.248047 0.0496,-0.520898 0.27285,-2.505274 0.81856,-7.466211 0,-0.0248 0.0496,-0.04961 z m 17.23925,-0.198437 q 0.0496,0 0.17363,0 1.26504,0 2.33164,0.620117 0.37208,0.173633 0.74415,0.545703 0.34726,0.322461 0.5457,0.595313 0.14883,0.248047 0.14883,0.297656 0,0 0,0 -1.19063,0.644922 -1.5627,0.892969 -0.0248,0 -0.0248,0 -0.19844,-0.347266 -0.59532,-0.669727 -0.76894,-0.520898 -1.86035,-0.520898 -1.31465,0 -2.20761,0.620117 -0.59532,0.496094 -0.66973,1.091406 -0.0496,0.471289 0.29766,0.694531 0.0992,0.124024 0.34726,0.248047 0.5209,0.272852 1.78594,0.595313 0.62012,0.124023 1.53789,0.297656 0.59531,0.148828 0.99219,0.347266 0.34726,0.173632 0.69453,0.471289 0.0992,0.07441 0.42168,0.421679 0.64492,0.868164 0.5457,1.909961 -0.0248,0.02481 -0.0248,0.07441 -0.12403,1.091407 -1.0418,2.083594 -0.37207,0.347266 -0.57051,0.471289 -0.42168,0.297656 -0.74414,0.471289 -1.26504,0.545703 -2.53008,0.545703 -0.0496,0 -0.14883,0 -1.36425,0 -2.55488,-0.669726 -1.16582,-0.694532 -1.68672,-1.909961 0,-0.02481 0.76895,-0.396875 0.27285,-0.148828 0.81855,-0.42168 0.4961,0.992188 1.51309,1.413867 0.66973,0.248047 1.43867,0.248047 1.09141,0 2.00918,-0.496094 0.17363,-0.09922 0.47129,-0.37207 0.47129,-0.471289 0.5209,-0.992187 0.0992,-0.818555 -0.89297,-1.314649 -0.22324,-0.09922 -0.69453,-0.223242 -1.93477,-0.347266 -3.02617,-0.744141 -2.20762,-0.868164 -1.98438,-2.728515 0,-0.02481 0,-0.04961 0.12402,-1.11621 1.0666,-2.083593 0.47129,-0.396875 0.64492,-0.496094 0.59532,-0.396875 1.33946,-0.595312 0.86816,-0.272852 1.66191,-0.272852 z m 7.16855,0.198437 q 0.44649,0 1.71153,0 0.0248,0 0.0248,0 -0.32246,2.951758 -1.33945,11.782227 0,0 0,0 -0.42168,0 -1.71152,0 0,0 0,0 0.32246,-2.951758 1.31464,-11.782227 z m 1.5379,-6.374804 q 0.0248,0 0.0992,0 0.44649,0 0.81856,0.396875 0.24805,0.322461 0.24805,0.694531 0,0.04961 -0.0248,0.09922 0,0.02481 0,0.07441 -0.0744,0.520898 -0.5457,0.917773 -0.39688,0.297657 -0.79375,0.297657 -0.0248,0 -0.0744,0 -0.5457,0 -0.89296,-0.496094 -0.19844,-0.322461 -0.17364,-0.694531 0,-0.02481 0,-0.09922 0.0744,-0.471289 0.4961,-0.868164 0.42168,-0.322461 0.84336,-0.322461 z m 9.05371,6.374804 q 0.0744,0 0.22324,0 3.49746,0 4.39043,2.654102 0.14883,0.570508 0.14883,1.16582 0,0.248047 -0.0248,0.520899 -0.27285,2.455664 -0.81855,7.416601 -0.0248,0 -0.0496,0.02481 -0.42168,0 -1.68672,0 0,0 -0.0248,-0.02481 0.22324,-1.860351 0.84336,-7.416601 0.19843,-1.835547 -1.61231,-2.455664 -0.42168,-0.148828 -1.66191,-0.148828 -1.53789,0 -2.40606,0.644921 -0.99218,0.595313 -1.14101,2.058789 -0.27285,2.43086 -0.84336,7.317383 0,0 -0.0248,0.02481 -0.42168,0 -1.68672,0 0,0 0,-0.02481 0.32247,-2.902148 1.28985,-11.558984 0,0 0.0248,-0.02481 0.42168,0 1.66192,0 0.0248,0 0.0496,0.02481 -0.0248,0.297656 -0.14883,1.16582 1.53789,-1.364258 3.49746,-1.364258 z m 12.82402,-0.124023 q 2.55489,0 4.11758,2.282031 0.84336,1.488281 0.84336,2.902149 0,0.272851 -0.0248,0.545703 0,0.04961 0,0.148828 -0.0744,0.570508 -0.17364,0.570508 -3.12539,0 -9.40097,0 -0.0496,0.595312 0.32246,1.686718 0.59531,1.389063 1.93476,1.909961 0.66973,0.248047 1.19063,0.248047 1.71152,0 3.10059,-1.488281 0.52089,-0.595313 0.66972,-0.967383 0.0248,0 0.0496,0 0.94258,0.396875 1.51309,0.694531 -0.37207,0.768946 -1.43867,1.810743 -1.88516,1.661914 -4.06797,1.661914 -2.57969,0 -4.16719,-2.257227 -0.84336,-1.438672 -0.84336,-3.001367 0,-0.322461 0.0248,-0.669727 0.0248,-0.0248 0.0248,-0.09922 0.27285,-2.480469 2.25723,-4.340821 1.83554,-1.637109 4.06796,-1.637109 z m -4.2664,4.737695 q 1.86035,0 7.4166,0 -0.34727,-1.637109 -1.48828,-2.38125 -0.86817,-0.595312 -1.93477,-0.595312 -1.78593,0 -3.24941,1.686719 -0.47129,0.595312 -0.74414,1.289843 z m 16.47031,-4.812109 q 0.0496,0 0.17363,0 1.26504,0 2.33164,0.620117 0.37207,0.173633 0.74414,0.545703 0.34727,0.322461 0.5457,0.595313 0.14883,0.248047 0.14883,0.297656 0,0 0,0 -1.19062,0.644922 -1.56269,0.892969 -0.0248,0 -0.0248,0 -0.19843,-0.347266 -0.59531,-0.669727 -0.76895,-0.520898 -1.86035,-0.520898 -1.31465,0 -2.20762,0.620117 -0.59531,0.496094 -0.66972,1.091406 -0.0496,0.471289 0.29765,0.694531 0.0992,0.124024 0.34727,0.248047 0.5209,0.272852 1.78593,0.595313 0.62012,0.124023 1.53789,0.297656 0.59532,0.148828 0.99219,0.347266 0.34727,0.173632 0.69453,0.471289 0.0992,0.07441 0.42168,0.421679 0.64493,0.868164 0.54571,1.909961 -0.0248,0.02481 -0.0248,0.07441 -0.12402,1.091407 -1.0418,2.083594 -0.37207,0.347266 -0.5705,0.471289 -0.42168,0.297656 -0.74414,0.471289 -1.26504,0.545703 -2.53008,0.545703 -0.0496,0 -0.14883,0 -1.36426,0 -2.55488,-0.669726 -1.16582,-0.694532 -1.68672,-1.909961 0,-0.02481 0.76894,-0.396875 0.27286,-0.148828 0.81856,-0.42168 0.49609,0.992188 1.51308,1.413867 0.66973,0.248047 1.43868,0.248047 1.0914,0 2.00918,-0.496094 0.17363,-0.09922 0.47129,-0.37207 0.47128,-0.471289 0.52089,-0.992187 0.0992,-0.818555 -0.89297,-1.314649 -0.22324,-0.09922 -0.69453,-0.223242 -1.93476,-0.347266 -3.02617,-0.744141 -2.20762,-0.868164 -1.98437,-2.728515 0,-0.02481 0,-0.04961 0.12402,-1.11621 1.0666,-2.083593 0.47129,-0.396875 0.64492,-0.496094 0.59531,-0.396875 1.33945,-0.595312 0.86817,-0.272852 1.66192,-0.272852 z m 10.93886,0 q 0.0496,0 0.17364,0 1.26504,0 2.33164,0.620117 0.37207,0.173633 0.74414,0.545703 0.34726,0.322461 0.5457,0.595313 0.14883,0.248047 0.14883,0.297656 0,0 0,0 -1.19063,0.644922 -1.5627,0.892969 -0.0248,0 -0.0248,0 -0.19844,-0.347266 -0.59531,-0.669727 -0.76895,-0.520898 -1.86036,-0.520898 -1.31464,0 -2.20761,0.620117 -0.59532,0.496094 -0.66973,1.091406 -0.0496,0.471289 0.29766,0.694531 0.0992,0.124024 0.34726,0.248047 0.5209,0.272852 1.78594,0.595313 0.62012,0.124023 1.53789,0.297656 0.59531,0.148828 0.99219,0.347266 0.34726,0.173632 0.69453,0.471289 0.0992,0.07441 0.42168,0.421679 0.64492,0.868164 0.5457,1.909961 -0.0248,0.02481 -0.0248,0.07441 -0.12403,1.091407 -1.0418,2.083594 -0.37207,0.347266 -0.57051,0.471289 -0.42168,0.297656 -0.74414,0.471289 -1.26504,0.545703 -2.53008,0.545703 -0.0496,0 -0.14882,0 -1.36426,0 -2.55489,-0.669726 -1.16582,-0.694532 -1.68672,-1.909961 0,-0.02481 0.76895,-0.396875 0.27285,-0.148828 0.81855,-0.42168 0.4961,0.992188 1.51309,1.413867 0.66973,0.248047 1.43867,0.248047 1.09141,0 2.00918,-0.496094 0.17363,-0.09922 0.47129,-0.37207 0.47129,-0.471289 0.5209,-0.992187 0.0992,-0.818555 -0.89297,-1.314649 -0.22324,-0.09922 -0.69453,-0.223242 -1.93477,-0.347266 -3.02617,-0.744141 -2.20762,-0.868164 -1.98438,-2.728515 0,-0.02481 0,-0.04961 0.12403,-1.11621 1.0666,-2.083593 0.47129,-0.396875 0.64493,-0.496094 0.59531,-0.396875 1.33945,-0.595312 0.86816,-0.272852 1.66191,-0.272852 z m 14.53555,0.198437 q 0.0248,0 0.24805,1.091407 0.62011,2.678906 1.86035,8.011914 0,0 0,0 1.01699,-2.257227 4.01836,-9.078516 0,0 0.0248,-0.02481 0.29766,0 1.24024,0 0.0744,0 0.29765,1.26504 0.34727,1.413867 1.76114,7.838281 0,0 0,0 0.99218,-2.257227 3.96875,-9.103321 0.52089,0 2.00918,0 0,0 0.0496,0.04961 -1.36425,2.926953 -5.38261,11.732617 -0.47129,0 -1.86035,0 -0.0744,0 -0.47129,-2.00918 -0.47129,-2.058789 -1.38907,-6.201172 0,0 0,0 -0.89296,2.058789 -3.59667,8.210352 -0.47129,0 -1.88516,0 -0.0744,-0.124024 -0.37207,-1.413867 -0.79375,-3.447852 -2.43086,-10.343555 0,0 0.0248,-0.02481 0.47129,0 1.88516,0 z m 18.13222,0 q 0.44648,0 1.71152,0 0.0248,0 0.0248,0 -0.32246,2.951758 -1.33945,11.782227 0,0 0,0 -0.42168,0 -1.71153,0 0,0 0,0 0.32246,-2.951758 1.31465,-11.782227 z m 1.53789,-6.374804 q 0.0248,0 0.0992,0 0.44648,0 0.81855,0.396875 0.24805,0.322461 0.24805,0.694531 0,0.04961 -0.0248,0.09922 0,0.02481 0,0.07441 -0.0744,0.520898 -0.54571,0.917773 -0.39687,0.297657 -0.79375,0.297657 -0.0248,0 -0.0744,0 -0.5457,0 -0.89297,-0.496094 -0.19844,-0.322461 -0.17363,-0.694531 0,-0.02481 0,-0.09922 0.0744,-0.471289 0.49609,-0.868164 0.42168,-0.322461 0.84336,-0.322461 z m 4.86172,0 q 0.42168,0 1.68672,0 0,0 0,0 -0.49609,4.539258 -2.00918,18.157031 -0.0248,0 -0.0248,0 -0.42168,0 -1.71153,0 0,0 -0.0248,0 0.5209,-4.539258 2.05879,-18.157031 z m 5.35782,0 q 0.42168,0 1.68672,0 0,0 0,0 -0.49609,4.539258 -2.00918,18.157031 -0.0248,0 -0.0248,0 -0.42168,0 -1.71153,0 0,0 -0.0248,0 0.5209,-4.539258 2.05879,-18.157031 z m 11.53418,0 q 0.42168,0 1.66192,0 0,0 0.0496,0.02481 -0.24804,2.083593 -0.94257,8.30957 0,0 0.0248,0 0.19844,-0.372071 1.14102,-1.141016 1.36425,-0.942578 3.00136,-0.942578 3.02618,0 4.58887,2.604492 0.66973,1.289844 0.66973,2.629297 0,0.322461 -0.0496,0.644922 0,0.09922 -0.0248,0.272851 -0.24804,2.257227 -2.158,4.142383 -0.99219,0.818555 -1.76114,1.16582 -1.28984,0.545704 -2.43086,0.545704 -0.0248,0 -0.0248,0 -0.0248,0 -0.0496,0 -2.67891,0 -3.79512,-2.058789 -0.0248,0 -0.0248,0 -0.0496,0.496093 -0.22324,1.934765 0,0 -0.0248,0.02481 -0.42168,0 -1.66191,0 0,0 -0.0248,-0.02481 0.4961,-4.514453 2.00918,-18.107421 0.0248,0 0.0496,-0.02481 z m 0.42168,12.129492 q 0,0.02481 0,0.148828 -0.22324,2.133203 1.26504,3.522266 0.89297,0.719335 2.30684,0.719335 1.95957,0 3.47265,-1.860351 0.79375,-1.16582 0.91778,-2.282031 0,-0.07441 0.0248,-0.198438 0.22324,-1.860351 -1.14102,-3.249414 -0.99218,-0.917773 -2.57968,-0.917773 -2.28203,0 -3.6959,2.430859 -0.47129,0.917774 -0.57051,1.686719 z m 17.78496,-5.878711 q 2.55488,0 4.11758,2.282031 0.84336,1.488281 0.84336,2.902149 0,0.272851 -0.0248,0.545703 0,0.04961 0,0.148828 -0.0744,0.570508 -0.17363,0.570508 -3.12539,0 -9.40098,0 -0.0496,0.595312 0.32246,1.686718 0.59532,1.389063 1.93477,1.909961 0.66973,0.248047 1.19062,0.248047 1.71153,0 3.10059,-1.488281 0.5209,-0.595313 0.66973,-0.967383 0.0248,0 0.0496,0 0.94257,0.396875 1.51308,0.694531 -0.37207,0.768946 -1.43867,1.810743 -1.88516,1.661914 -4.06797,1.661914 -2.57969,0 -4.16719,-2.257227 -0.84336,-1.438672 -0.84336,-3.001367 0,-0.322461 0.0248,-0.669727 0.0248,-0.0248 0.0248,-0.09922 0.27286,-2.480469 2.25723,-4.340821 1.83555,-1.637109 4.06797,-1.637109 z m -4.26641,4.737695 q 1.86035,0 7.4166,0 -0.34726,-1.637109 -1.48828,-2.38125 -0.86816,-0.595312 -1.93476,-0.595312 -1.78594,0 -3.24942,1.686719 -0.47129,0.595312 -0.74414,1.289843 z m 17.38809,-4.613672 q 0.0744,0 0.22324,0 3.49746,0 4.39043,2.654102 0.14883,0.570508 0.14883,1.16582 0,0.248047 -0.0248,0.520899 -0.27285,2.455664 -0.81855,7.416601 -0.0248,0 -0.0496,0.02481 -0.42168,0 -1.68672,0 0,0 -0.0248,-0.02481 0.22325,-1.860351 0.84336,-7.416601 0.19844,-1.835547 -1.6123,-2.455664 -0.42168,-0.148828 -1.66192,-0.148828 -1.53789,0 -2.40605,0.644921 -0.99219,0.595313 -1.14102,2.058789 -0.27285,2.43086 -0.84336,7.317383 0,0 -0.0248,0.02481 -0.42168,0 -1.68672,0 0,0 0,-0.02481 0.32246,-2.902148 1.28984,-11.558984 0,0 0.0248,-0.02481 0.42168,0 1.66191,0 0.0248,0 0.0496,0.02481 -0.0248,0.297656 -0.14883,1.16582 1.5379,-1.364258 3.49747,-1.364258 z m 12.82403,-0.124023 q 2.55488,0 4.11758,2.282031 0.84336,1.488281 0.84336,2.902149 0,0.272851 -0.0248,0.545703 0,0.04961 0,0.148828 -0.0744,0.570508 -0.17363,0.570508 -3.12539,0 -9.40098,0 -0.0496,0.595312 0.32246,1.686718 0.59531,1.389063 1.93477,1.909961 0.66972,0.248047 1.19062,0.248047 1.71153,0 3.10059,-1.488281 0.5209,-0.595313 0.66973,-0.967383 0.0248,0 0.0496,0 0.94258,0.396875 1.51309,0.694531 -0.37207,0.768946 -1.43867,1.810743 -1.88516,1.661914 -4.06797,1.661914 -2.57969,0 -4.16719,-2.257227 -0.84336,-1.438672 -0.84336,-3.001367 0,-0.322461 0.0248,-0.669727 0.0248,-0.0248 0.0248,-0.09922 0.27285,-2.480469 2.25723,-4.340821 1.83555,-1.637109 4.06797,-1.637109 z m -4.26641,4.737695 q 1.86035,0 7.4166,0 -0.34726,-1.637109 -1.48828,-2.38125 -0.86816,-0.595312 -1.93476,-0.595312 -1.78594,0 -3.24942,1.686719 -0.47129,0.595312 -0.74414,1.289843 z M 312.79854,75.46445 q 0.0992,0 0.37208,0 0,0 0,0 -0.0496,0.446484 -0.17364,1.711523 -0.0248,0.02481 -0.0248,0.02481 -0.0744,0 -0.27285,0 -1.5627,0 -2.53008,1.612305 -0.64492,1.116211 -0.86817,2.926953 0,0.04961 0,0.09922 0.79375,0 3.1502,0 0,0 0.0248,0 -0.0496,0.446485 -0.19843,1.736329 -0.0248,0 -0.0248,0 -0.79375,0 -3.15019,0 -0.27285,2.505273 -1.14102,10.045898 0,0 0,0 -0.42168,0 -1.71152,0 0,0 0,0 0.27285,-2.530078 1.11621,-10.045898 -0.5209,0 -2.1084,0 0,0 0,0 0.0496,-0.446485 0.19844,-1.736329 0,0 0,0 0.5209,0 2.1084,0 0,-0.04961 0.0248,-0.223242 0.32246,-2.778125 1.73633,-4.464843 0.17363,-0.198438 0.5457,-0.520899 0.47129,-0.396875 0.79375,-0.570508 0.34727,-0.198437 0.74414,-0.322461 0.71934,-0.272851 1.38906,-0.272851 z m 1.95956,6.374804 q 0.44649,0 1.71153,0 0.0248,0 0.0248,0 -0.32246,2.951758 -1.33945,11.782227 0,0 0,0 -0.42168,0 -1.71153,0 0,0 0,0 0.32247,-2.951758 1.31465,-11.782227 z m 1.53789,-6.374804 q 0.0248,0 0.0992,0 0.44649,0 0.81856,0.396875 0.24804,0.322461 0.24804,0.694531 0,0.04961 -0.0248,0.09922 0,0.02481 0,0.07441 -0.0744,0.520898 -0.5457,0.917773 -0.39688,0.297657 -0.79375,0.297657 -0.0248,0 -0.0744,0 -0.5457,0 -0.89297,-0.496094 -0.19843,-0.322461 -0.17363,-0.694531 0,-0.02481 0,-0.09922 0.0744,-0.471289 0.49609,-0.868164 0.42168,-0.322461 0.84336,-0.322461 z m 6.02756,0 q 0.42168,0 1.71152,0 0,0 0,0 -0.17363,1.612305 -0.69453,6.374804 0.79375,0 3.19981,0 0,0 0,0 -0.0496,0.446485 -0.19844,1.736329 0,0 0,0.0248 -0.79375,0 -3.1998,0 -0.19844,1.686719 -0.76895,6.796485 -0.0496,0.520898 0.17363,0.942578 0.19844,0.347265 0.62012,0.496093 0.19844,0.04961 0.37207,0.04961 0.0248,0 0.0744,0 0.44649,0 1.31465,-0.322461 0.0496,-0.0248 0.14883,-0.07441 0.47129,1.389062 0.5457,1.5875 -0.19843,0.09922 -0.76894,0.272851 -0.89297,0.272852 -1.38906,0.272852 -0.0496,0 -0.19844,0 -0.64492,0 -1.33945,-0.396875 -0.94258,-0.520899 -1.19063,-1.537891 -0.17363,-0.644922 -0.0744,-1.413867 0.24804,-2.232422 0.74414,-6.672461 -0.4961,0 -1.93477,0 -0.0248,-0.0248 -0.0248,-0.0248 0.0496,-0.42168 0.19843,-1.736329 0,0 0.0248,0 0.47129,0 1.93477,0 0.17363,-1.5875 0.71933,-6.374804 z m 18.82674,0 q 0.0992,0 0.37207,0 0,0 0,0 -0.0496,0.446484 -0.17363,1.711523 -0.0248,0.02481 -0.0248,0.02481 -0.0744,0 -0.27285,0 -1.56269,0 -2.53008,1.612305 -0.64492,1.116211 -0.86816,2.926953 0,0.04961 0,0.09922 0.79375,0 3.15019,0 0,0 0.0248,0 -0.0496,0.446485 -0.19844,1.736329 -0.0248,0 -0.0248,0 -0.79375,0 -3.1502,0 -0.27285,2.505273 -1.14101,10.045898 0,0 0,0 -0.42168,0 -1.71153,0 0,0 0,0 0.27285,-2.530078 1.11621,-10.045898 -0.52089,0 -2.10839,0 0,0 0,0 0.0496,-0.446485 0.19843,-1.736329 0,0 0,0 0.5209,0 2.1084,0 0,-0.04961 0.0248,-0.223242 0.32246,-2.778125 1.73632,-4.464843 0.17364,-0.198438 0.54571,-0.520899 0.47129,-0.396875 0.79375,-0.570508 0.34726,-0.198437 0.74414,-0.322461 0.71933,-0.272851 1.38906,-0.272851 z m 6.54846,6.275586 q 1.31464,0 2.23242,0.595312 -0.19844,0.620117 -0.59531,1.860352 0,0 0,0 -1.0418,-0.669727 -1.95957,-0.669727 -2.0836,0 -3.1502,1.934766 -0.22324,0.446484 -0.27285,0.917773 -0.27285,2.406055 -0.81856,7.218164 0,0 -0.0248,0.02481 -0.42168,0 -1.68672,0 0,0 0,-0.02481 0.32246,-2.902148 1.28984,-11.583789 0,0 0.0248,-0.0248 0.42168,0 1.68672,0 0,0 0.0248,0.0248 -0.0248,0.272852 -0.12402,1.016992 0.0248,0 0.0248,0 0.64493,-0.74414 1.71153,-1.066601 0.84336,-0.223242 1.63711,-0.223242 z m 9.67382,0 q 0.0744,0 0.32247,0 1.90996,0 3.47265,1.488281 1.48828,1.637109 1.48828,3.770312 0,0.372071 -0.0496,0.744141 -0.27285,2.654102 -2.53007,4.588867 -1.86036,1.389063 -3.86954,1.389063 -2.1332,0 -3.69589,-1.5875 -1.38907,-1.612305 -1.38907,-3.621485 0,-0.347265 0.0248,-0.719336 0.0248,-0.04961 0.0248,-0.124023 0.27285,-2.455664 2.28203,-4.34082 1.93477,-1.5875 3.91914,-1.5875 z m -4.46484,6.002734 q 0,0 0,0.04961 -0.19844,1.761133 0.94258,3.100586 1.09141,1.116211 2.55488,1.116211 1.88516,0 3.37344,-1.736328 0.94258,-1.21543 1.09141,-2.530078 0.19843,-1.885156 -1.06661,-3.249414 -1.01699,-0.992187 -2.38125,-0.992187 -0.0744,0 -0.19843,0 -1.46348,0 -2.87735,1.265039 -1.26504,1.314648 -1.43867,2.976561 z m 17.93378,-5.903516 q 0.0496,0 0.22324,0 2.72852,0 3.91914,1.686719 1.5627,-1.686719 4.26641,-1.686719 0.12402,0 0.37207,0 3.32382,0 4.29121,2.43086 0.22324,0.644922 0.22324,1.314648 0,0.223242 -0.0248,0.471289 -0.27286,2.505274 -0.84336,7.540625 0,0 -0.0248,0.02481 -0.42168,0 -1.66191,0 -0.0248,0 -0.0496,-0.02481 0.19844,-1.885156 0.84336,-7.51582 0.17363,-1.488281 -1.24024,-2.207617 -0.69453,-0.297656 -1.63711,-0.297656 -0.14882,0 -0.44648,0 -2.30684,0 -3.19981,1.5875 -0.22324,0.421679 -0.29765,1.141015 -0.27285,2.430859 -0.81856,7.292578 -0.0248,0 -0.0496,0.02481 -0.42168,0 -1.68671,0 0,0 -0.0248,-0.02481 0.22324,-1.860351 0.84336,-7.416601 0.22324,-1.835547 -1.6123,-2.455664 -0.39688,-0.148828 -1.66192,-0.148828 -1.53789,0 -2.40605,0.644921 -0.99219,0.595313 -1.14102,2.058789 -0.27285,2.43086 -0.84336,7.317383 0,0 -0.0248,0.02481 -0.42168,0 -1.66192,0 0,0 -0.0248,-0.02481 0.32246,-2.902148 1.28984,-11.558984 0,0 0.0248,-0.02481 0.42168,0 1.66191,0 0.0248,0 0.0496,0.02481 -0.0248,0.297656 -0.14883,1.16582 1.53789,-1.364258 3.52227,-1.364258 z"
       id="text1"
       aria-label="Your business will benefit from" />
    <text
       xml:space="preserve"
       style="font-style:italic;font-variant:normal;font-weight:normal;font-stretch:normal;font-size:25.4px;font-family:'Louis George Cafe';-inkscape-font-specification:'Louis George Cafe Italic';fill:#386ae2;fill-opacity:1;stroke-width:0.264583;stroke-dasharray:none"
       x="50.29496"
       y="185.03011"
       id="text9"><tspan
         sodipodi:role="line"
         id="tspan9"
         style="stroke-width:0.264583"
         x="50.29496"
         y="185.03011"></tspan></text>
  </g>
</svg>
