<?xml version="1.0" encoding="UTF-8"?>
<!DOCTYPE svg PUBLIC "-//W3C//DTD SVG 1.1//EN" "http://www.w3.org/Graphics/SVG/1.1/DTD/svg11.dtd">
<!-- Creator: CorelDRAW Standard 2021 (64-Bit) -->
<svg xmlns="http://www.w3.org/2000/svg" xml:space="preserve" width="677.333mm" height="302.599mm" version="1.1" style="shape-rendering:geometricPrecision; text-rendering:geometricPrecision; image-rendering:optimizeQuality; fill-rule:evenodd; clip-rule:evenodd"
viewBox="0 0 67733.28 30259.87"
 xmlns:xlink="http://www.w3.org/1999/xlink"
 xmlns:xodm="http://www.corel.com/coreldraw/odm/2003">
 <defs>
  <style type="text/css">
   <![CDATA[
    .fil14 {fill:none}
    .fil7 {fill:#0F0C0E;fill-rule:nonzero}
    .fil11 {fill:#2A737C;fill-rule:nonzero}
    .fil2 {fill:#666666;fill-rule:nonzero}
    .fil3 {fill:#B3B3B3;fill-rule:nonzero}
    .fil5 {fill:white;fill-rule:nonzero}
    .fil13 {fill:white;fill-opacity:0.050980}
    .fil0 {fill:url(#id7)}
    .fil12 {fill:url(#id8);fill-rule:nonzero}
    .fil9 {fill:url(#id9);fill-rule:nonzero}
    .fil10 {fill:url(#id10);fill-rule:nonzero}
    .fil8 {fill:url(#id11);fill-rule:nonzero}
    .fil1 {fill:url(#id12);fill-rule:nonzero}
    .fil4 {fill:url(#id13);fill-rule:nonzero}
    .fil6 {fill:url(#id14);fill-rule:nonzero}
   ]]>
  </style>
   <clipPath id="id0">
    <path d="M-0 0l67733.28 0 0 30259.87 -67733.28 0 0 -30259.87z"/>
   </clipPath>
       <mask id="id1">
  <linearGradient id="id2" gradientUnits="userSpaceOnUse" x1="84510.87" y1="9809.6" x2="84510.87" y2="2524.8">
   <stop offset="0" style="stop-opacity:0.74902; stop-color:white"/>
   <stop offset="0.819608" style="stop-opacity:0.74902; stop-color:white"/>
   <stop offset="0.980392" style="stop-opacity:0; stop-color:white"/>
   <stop offset="1" style="stop-opacity:0.498039; stop-color:white"/>
  </linearGradient>
        <rect style="fill:url(#id2)" x="73156.94" y="906.39" width="22707.87" height="9047.96"/>
       </mask>
       <mask id="id3">
  <linearGradient id="id4" gradientUnits="userSpaceOnUse" x1="84510.87" y1="11649.62" x2="84510.87" y2="18934.4">
   <stop offset="0" style="stop-opacity:0.74902; stop-color:white"/>
   <stop offset="0.819608" style="stop-opacity:0.74902; stop-color:white"/>
   <stop offset="0.980392" style="stop-opacity:0; stop-color:white"/>
   <stop offset="1" style="stop-opacity:0.498039; stop-color:white"/>
  </linearGradient>
        <rect style="fill:url(#id4)" x="73156.94" y="11504.85" width="22707.87" height="9047.94"/>
       </mask>
       <mask id="id5">
  <linearGradient id="id6" gradientUnits="userSpaceOnUse" x1="84510.87" y1="6387.8" x2="84510.87" y2="13372.86">
   <stop offset="0" style="stop-opacity:1; stop-color:white"/>
   <stop offset="0.721569" style="stop-opacity:0.74902; stop-color:white"/>
   <stop offset="1" style="stop-opacity:0.498039; stop-color:white"/>
  </linearGradient>
        <rect style="fill:url(#id6)" x="77307.2" y="8003.09" width="14407.33" height="5433.08"/>
       </mask>
  <linearGradient id="id7" gradientUnits="userSpaceOnUse" x1="0" y1="15129.94" x2="67733.28" y2="15129.94">
   <stop offset="0" style="stop-opacity:1; stop-color:black"/>
   <stop offset="0.74902" style="stop-opacity:1; stop-color:#333333"/>
   <stop offset="1" style="stop-opacity:1; stop-color:#666666"/>
  </linearGradient>
  <linearGradient id="id8" gradientUnits="userSpaceOnUse" x1="84510.87" y1="6387.8" x2="84510.87" y2="13372.86">
   <stop offset="0" style="stop-opacity:1; stop-color:#D0792A"/>
   <stop offset="0.721569" style="stop-opacity:1; stop-color:#747143"/>
   <stop offset="1" style="stop-opacity:1; stop-color:#17685D"/>
  </linearGradient>
  <linearGradient id="id9" gradientUnits="userSpaceOnUse" x1="84510.87" y1="9809.6" x2="84510.87" y2="2524.8">
   <stop offset="0" style="stop-opacity:1; stop-color:#D47926"/>
   <stop offset="1" style="stop-opacity:1; stop-color:#D47926"/>
  </linearGradient>
  <linearGradient id="id10" gradientUnits="userSpaceOnUse" x1="84510.87" y1="11649.62" x2="84510.87" y2="18934.4">
   <stop offset="0" style="stop-opacity:1; stop-color:#D47926"/>
   <stop offset="0.819608" style="stop-opacity:1; stop-color:gray"/>
   <stop offset="0.94902" style="stop-opacity:1; stop-color:#CECECE"/>
   <stop offset="1" style="stop-opacity:1; stop-color:#D0792A"/>
  </linearGradient>
  <linearGradient id="id11" gradientUnits="userSpaceOnUse" x1="84510.86" y1="19481.85" x2="84510.86" y2="31862.57">
   <stop offset="0" style="stop-opacity:1; stop-color:#E98D34"/>
   <stop offset="0.431373" style="stop-opacity:1; stop-color:#C8712E"/>
   <stop offset="0.94902" style="stop-opacity:0; stop-color:#17685D"/>
   <stop offset="0.988235" style="stop-opacity:0.501961; stop-color:#2D0090"/>
   <stop offset="1" style="stop-opacity:1; stop-color:#2D0090"/>
  </linearGradient>
  <linearGradient id="id12" gradientUnits="userSpaceOnUse" x1="84510.86" y1="1755.17" x2="84510.86" y2="16472.97">
   <stop offset="0" style="stop-opacity:1; stop-color:#26A8AE"/>
   <stop offset="0.721569" style="stop-opacity:0.501961; stop-color:#29549F"/>
   <stop offset="1" style="stop-opacity:0; stop-color:#2D0090"/>
  </linearGradient>
  <linearGradient id="id13" gradientUnits="userSpaceOnUse" x1="84510.86" y1="30972.99" x2="84510.86" y2="17786.31">
   <stop offset="0" style="stop-opacity:1; stop-color:#01F4F6"/>
   <stop offset="0.721569" style="stop-opacity:0.501961; stop-color:#177AC3"/>
   <stop offset="1" style="stop-opacity:0; stop-color:#2D0090"/>
  </linearGradient>
  <linearGradient id="id14" gradientUnits="userSpaceOnUse" x1="94820.27" y1="-684.19" x2="78894.37" y2="19768.6">
   <stop offset="0" style="stop-opacity:1; stop-color:#0F0C0E"/>
   <stop offset="0.721569" style="stop-opacity:1; stop-color:#615F60"/>
   <stop offset="1" style="stop-opacity:1; stop-color:#B3B3B3"/>
  </linearGradient>
 </defs>
 <g id="Layer_x0020_1">
  <metadata id="CorelCorpID_0Corel-Layer"/>
  <polygon class="fil0" points="-0,0 67733.28,0 67733.28,30259.87 -0,30259.87 "/>
  <g style="clip-path:url(#id0)">
   <g id="_2080738233088">
    <g>
     <path id="_1" class="fil1" d="M92941.2 9126.54c0,4655.94 -3774.39,8430.33 -8430.34,8430.33 -4655.95,0 -8430.34,-3774.39 -8430.34,-8430.33 0,-4655.95 3774.39,-8430.34 8430.34,-8430.34 4655.95,0 8430.34,3774.39 8430.34,8430.34z"/>
     <polygon class="fil2" points="88135.25,21816.62 80886.47,21816.62 80886.47,15483.47 88135.25,15483.47 "/>
     <polygon class="fil3" points="97795.79,30597.48 71225.94,30597.48 71225.94,30597.47 73838.97,24480.16 84617.41,19559.82 95205.74,24474.71 97795.79,30597.47 "/>
     <path class="fil4" d="M95971.36 23628.19l-7039.81 -3113.18c-952.89,1425.81 -2577.03,2364.94 -4420.7,2364.94 -1822.58,0 -3430.6,-917.81 -4387.73,-2316.26l-7047.87 3064.5 -2944.31 6969.29 0 0.01 28759.82 0 0 -0.01 -2919.42 -6969.29z"/>
     <g>
      <path class="fil5" d="M84493.82 23686.79c-2074.77,0 -4000.13,-992.92 -5282.39,-2724.1l94.21 -69.77c1259.87,1701.07 3150.9,2676.67 5188.18,2676.67 2058.87,0 3962.23,-992.41 5222,-2722.81l94.75 68.94c-1282.11,1761.07 -3219.97,2771.07 -5316.75,2771.07z"/>
     </g>
     <g>
      <g>
       <polygon class="fil5" points="76496.17,30623.62 73022.8,23654.32 73127.71,23602.05 76601.09,30571.35 "/>
      </g>
      <g>
       <polygon class="fil5" points="92525.48,30623.75 92420.73,30571.2 95918.97,23601.91 96023.7,23654.46 "/>
      </g>
     </g>
     <path class="fil6" d="M79226.88 5635.99c0,134.48 -468.29,7661.59 -468.29,7661.59l1550.22 5048.51c147.78,660.04 733.67,1129.24 1410.03,1129.24l5584.06 0c676.36,0 1262.25,-469.2 1410.03,-1129.24l1550.22 -5048.51c0,0 -468.31,-7527.13 -468.31,-7661.59l-10567.95 0z"/>
     <g>
      <polygon class="fil7" points="82468.21,15581.39 84510.86,16022.1 86553.52,15581.39 84890.89,15045.09 84510.86,15228.56 84130.84,15045.09 "/>
      <polygon class="fil7" points="83711.83,13432.35 83771.69,14195.77 85250.06,14195.77 85309.92,13432.35 "/>
     </g>
     <path class="fil8" d="M90561.72 30597.48c0,-3341.8 -2709.06,-6099.54 -6050.86,-6099.54 -3341.8,0 -6050.85,2757.74 -6050.85,6099.54l12101.7 0z"/>
     <g>
      <path class="fil5" d="M89654.16 30597.48l-121.11 0c0,-2769.23 -2252.94,-5022.21 -5022.21,-5022.21 -2769.22,0 -5022.16,2252.98 -5022.16,5022.21l-121.11 0c0,-2836.01 2307.25,-5143.23 5143.27,-5143.23 2836.01,0 5143.32,2307.22 5143.32,5143.23z"/>
     </g>
     <g>
      <path class="fil9" style="mask:url(#id1)" d="M77435.4 9950.54c345.72,-1122.12 1373.73,-1936.13 2588.33,-1936.13l8974.25 0c1214.62,0 2242.62,814.01 2588.35,1936.13l518.62 0c144.76,0 3756.04,-9040.34 3756.04,-9040.34l-22700.25 0 3702.18 9040.34 572.48 0z"/>
      <path class="fil10" style="mask:url(#id3)" d="M77435.4 11508.66c345.72,1122.12 1373.73,1936.13 2588.33,1936.13l8974.25 0c1214.62,0 2242.62,-814.01 2588.35,-1936.13l518.62 0c144.76,0 3756.04,9040.32 3756.04,9040.32l-22700.25 0 3702.18 -9040.32 572.48 0z"/>
      <path class="fil11" d="M77705.24 9905.71l-788.47 0c-449.51,0 -813.89,364.4 -813.89,813.9 0,449.51 364.38,813.91 813.89,813.91l788.47 0c449.5,0 813.9,-364.4 813.9,-813.91 0,-449.5 -364.4,-813.9 -813.9,-813.9z"/>
      <path class="fil11" d="M92104.96 9905.71l-788.47 0c-449.5,0 -813.89,364.4 -813.89,813.9 0,449.51 364.39,813.91 813.89,813.91l788.47 0c449.5,0 813.9,-364.4 813.9,-813.91 0,-449.5 -364.4,-813.9 -813.9,-813.9z"/>
      <path class="fil12" style="mask:url(#id5)" d="M88998.01 13432.35l-8974.27 0c-1498.2,0 -2712.72,-1214.53 -2712.72,-2712.74 0,-1498.2 1214.52,-2712.72 2712.72,-2712.72l8974.27 0c1498.19,0 2712.72,1214.52 2712.72,2712.72 0,1498.21 -1214.53,2712.74 -2712.72,2712.74z"/>
      <g>
       <path class="fil5" d="M89803.15 11388.65c-368.9,0 -669.02,-300.13 -669.02,-669.04 0,-368.87 300.12,-669 669.02,-669 368.91,0 669.01,300.13 669.01,669 0,368.91 -300.1,669.04 -669.01,669.04zm0 -1220.86l0 0c-304.27,0 -551.82,247.56 -551.82,551.82 0,304.29 247.55,551.84 551.82,551.84 304.26,0 551.82,-247.55 551.82,-551.84 0,-304.26 -247.56,-551.82 -551.82,-551.82z"/>
      </g>
      <g>
       <path class="fil5" d="M88001.7 11388.65c-368.9,0 -669.01,-300.13 -669.01,-669.04 0,-368.87 300.11,-669 669.01,-669 368.9,0 669.06,300.13 669.06,669 0,368.91 -300.16,669.04 -669.06,669.04zm0 -1220.86l0 0c-304.26,0 -551.81,247.56 -551.81,551.82 0,304.29 247.55,551.84 551.81,551.84 304.31,0 551.87,-247.55 551.87,-551.84 0,-304.26 -247.56,-551.82 -551.87,-551.82z"/>
      </g>
      <g>
       <path class="fil5" d="M88998.01 12839.33l-8974.25 0c-833.72,0 -1587.59,-488.21 -1931.44,-1247.22l-1175.52 0c-481.11,0 -872.53,-391.4 -872.53,-872.5 0,-481.1 391.42,-872.49 872.53,-872.49l1175.52 0c343.85,-759 1097.72,-1247.23 1931.44,-1247.23l8974.25 0c833.7,0 1587.53,488.23 1931.4,1247.23l1175.55 0c481.1,0 872.48,391.39 872.48,872.49 0,481.1 -391.38,872.5 -872.48,872.5l-1175.55 0c-343.87,759.01 -1097.7,1247.22 -1931.4,1247.22zm-12081.21 -2875.04l0 0c-416.52,0 -755.34,338.84 -755.34,755.32 0,416.49 338.82,755.32 755.34,755.32l1213.64 0 53.78 35.39c317.72,736.16 1039.75,1211.83 1839.54,1211.83l8974.25 0c799.74,0 1521.76,-475.67 1839.48,-1211.83l53.78 -35.39 1213.69 0c416.47,0 755.29,-338.83 755.29,-755.32 0,-416.48 -338.82,-755.32 -755.29,-755.32l-1213.69 0 -53.78 -35.38c-317.72,-736.16 -1039.74,-1211.84 -1839.48,-1211.84l-8974.25 0c-799.79,0 -1521.82,475.68 -1839.54,1211.84l-53.78 35.38 -1213.64 0z"/>
      </g>
      <g>
       <path class="fil5" d="M86426.07 11162.86l-9509.27 0c-121.77,0 -239.55,-51.04 -323.08,-140.03 -84.7,-90.2 -127.08,-207.96 -119.26,-331.6 14.57,-232.63 215.57,-414.86 457.53,-414.86l9494.08 0c244.39,0 443.24,198.85 443.24,443.24 0,244.41 -198.85,443.25 -443.24,443.25zm-9494.08 -769.31l0 0c-180.26,0 -329.85,133.98 -340.61,305.03 -5.72,91.03 25.45,177.68 87.74,244.03 62.4,66.46 146.81,103.07 237.68,103.07l9509.27 0c179.81,0 326.06,-146.28 326.06,-326.07 0,-179.77 -146.25,-326.06 -326.06,-326.06l-9494.08 0z"/>
      </g>
      <g>
       <path class="fil5" d="M88998.01 12225.35l-8974.25 0c-830.28,0 -1505.74,-675.46 -1505.74,-1505.74 0,-830.27 675.46,-1505.73 1505.74,-1505.73l8974.25 0c830.27,0 1505.73,675.46 1505.73,1505.73 0,830.28 -675.46,1505.74 -1505.73,1505.74zm-8974.25 -2894.28l0 0c-765.65,0 -1388.56,622.9 -1388.56,1388.54 0,765.65 622.91,1388.55 1388.56,1388.55l8974.25 0c765.63,0 1388.54,-622.9 1388.54,-1388.55 0,-765.64 -622.91,-1388.54 -1388.54,-1388.54l-8974.25 0z"/>
      </g>
     </g>
    </g>
    <g>
     <path class="fil13" d="M5246.17 10520.39l7909.22 7981.12 15.61 15.82 0 3646.74 -2233.32 2233.35 0 1962.02c313.24,27.9 560.56,288.78 560.56,609.17 0,338.83 -275.75,614.54 -614.58,614.54 -338.97,0 -614.68,-275.71 -614.68,-614.54 0,-320.39 247.29,-581.27 560.65,-609.17l0 -2006.82 2233.32 -2233.32 0 -3557.59 -7909.22 -7981.13 -15.61 -15.72 0 -4249.3 -2017.22 -1873.18 0 -3099.89 -910.98 -964.67c-111.74,114.87 -267.33,186.77 -439.89,186.77 -338.86,0 -614.55,-275.68 -614.55,-614.68 0,-338.86 275.69,-614.55 614.55,-614.55 339,0 614.68,275.69 614.68,614.55 0,127.36 -38.98,245.76 -105.55,343.99l949.82 1005.65 0 3095.8 2017.19 1873.18 0 4251.86z"/>
     <path class="fil13" d="M6110.78 10231.96l7908.68 7836.79 16.01 15.91 0 3808.04c313.38,27.87 560.67,288.74 560.67,609.24 0,338.85 -275.69,614.58 -614.66,614.58 -338.89,0 -614.58,-275.73 -614.58,-614.58 0,-320.5 247.29,-581.37 560.52,-609.24l0 -3763.03 -7908.69 -7836.79 -16.04 -15.91 0 -4106.14 -2233.42 -2161.32 0 -5153.46 108.08 0 0 5107.66 2233.43 2161.32 0 4106.93z"/>
     <path class="fil13" d="M8848.36 2695.74l0 -3839.68 108.05 0 0 3791.81 1188.76 1080.71 0 4828.34c313.27,27.89 560.56,288.76 560.56,609.12 0,338.97 -275.72,614.69 -614.59,614.69 -338.96,0 -614.69,-275.72 -614.69,-614.69 0,-320.36 247.33,-581.23 560.67,-609.12l0 -4780.44 -1188.76 -1080.74z"/>
     <path class="fil13" d="M9908.83 909.03c279.28,0 506.49,-227.21 506.49,-506.5 0,-279.31 -227.21,-506.63 -506.49,-506.63 -279.28,0 -506.61,227.32 -506.61,506.63 0,232.64 158.62,427.12 372.72,486.26l100.1 0 0 16.81c11.35,0.77 22.2,3.43 33.79,3.43zm5099.3 16707.34l0 9375.72 -2105.3 1964.96c62.22,96.07 99.29,209.95 99.29,332.68 0,338.99 -275.68,614.68 -614.58,614.68 -338.96,0 -614.69,-275.69 -614.69,-614.68 0,-338.87 275.73,-614.55 614.69,-614.55 177.16,0 335.77,76.42 448.01,196.72l2064.53 -1926.84 0 -9283.48 -3674.27 -3620.27 0 -10644.01 -1458.86 -1404.9 0 -993.46c-270.48,-64.41 -472.81,-306.58 -472.81,-596.41 0,-339 275.72,-614.68 614.69,-614.68 338.86,0 614.58,275.68 614.58,614.68 0,338.86 -275.72,614.59 -614.58,614.59 -11.59,0 -22.37,-2.8 -33.79,-3.43l0 932.71 1458.82 1404.9 0 10644.8 3674.27 3620.27zm-2620.59 11166.86c-279.28,0 -506.6,227.21 -506.6,506.5 0,279.31 227.32,506.63 506.6,506.63 279.32,0 506.53,-227.32 506.53,-506.63 0,-125.9 -47.87,-239.81 -124.15,-328.49l-14.03 -15.01 0.94 -0.86c-92.54,-99.13 -223.29,-162.14 -369.29,-162.14z"/>
     <path class="fil13" d="M11712.17 13519.29l0 -14663.23 108.05 0 0 14617.43 3998.38 3872.33 0 10258.89 -1999.23 1837.04 0 1818.85c313.36,27.87 560.62,288.78 560.62,609.24 0,338.89 -275.68,614.58 -614.68,614.58 -338.83,0 -614.56,-275.69 -614.56,-614.58 0,-320.46 247.3,-581.37 560.53,-609.24l0 -1866.28 1999.25 -1837.07 0 -10165.63 -3998.36 -3872.33z"/>
     <path class="fil13" d="M18898.46 15411.08l0 13597.1 -1350.8 1350.87 0 676.7c313.27,27.86 560.55,288.77 560.55,609.22 0,338.91 -275.71,614.59 -614.58,614.59 -338.94,0 -614.65,-275.68 -614.65,-614.59 0,-320.45 247.28,-581.36 560.62,-609.22l0 -721.47 1350.77 -1350.91 0 -13506.68 -1783.01 -1739.33 0 -12256.62 1458.83 -1458.93 0 -1145.75 108.05 0 0 1190.53 -1458.83 1458.92 0 12166.24 1783.05 1739.33z"/>
     <path class="fil13" d="M19202.37 16470.42c0,279.28 227.32,506.64 506.63,506.64 279.28,0 506.51,-227.36 506.51,-506.64 0,-279.28 -227.23,-506.47 -506.51,-506.47 -279.31,0 -506.63,227.19 -506.63,506.47zm884.81 -17614.36l108.09 0 0 5248.67 1350.9 1080.74 0 8045.7 -1783.14 1728.98 0 901.15c313.23,27.9 560.53,288.78 560.53,609.13 0,338.96 -275.69,614.69 -614.56,614.69 -339,0 -614.68,-275.73 -614.68,-614.69 0,-320.35 247.29,-581.23 560.63,-609.13l0 -946.96 1783.11 -1728.97 0 -7947.94 -1350.88 -1080.71 0 -5300.66z"/>
     <path class="fil13" d="M26496.8 3.99c-279.28,0 -506.53,227.31 -506.53,506.59 0,279.28 227.25,506.54 506.53,506.54 279.32,0 506.63,-227.26 506.63,-506.54 0,-279.28 -227.31,-506.59 -506.63,-506.59zm1371.1 1780.94l0 5620.61 -1458.82 1448.57 0 2809.55 -810.58 810.48 0 1080.38c319.73,21.27 574.11,285.47 574.11,610.59 0,338.87 -275.68,614.56 -614.55,614.56 -339,0 -614.69,-275.69 -614.69,-614.56 0,-315.83 240.24,-573.7 547.12,-607.82l0 -1127.95 810.52 -810.45 0 -2809.79 1458.82 -1448.57 0 -5530.8 -859.36 -859.39c-108.27,95.14 -248.52,154.8 -403.67,154.8 -338.9,0 -614.58,-275.69 -614.58,-614.56 0,-338.97 275.68,-614.68 614.58,-614.68 339,0 614.68,275.71 614.68,614.68 0,144.77 -52.42,276.28 -136.5,381.41l892.92 892.94z"/>
     <path class="fil13" d="M20546.45 27495.3l0 -5609.8 3554.63 -3635.98 15.94 -16.21 1405.6 0 3804.22 -3697.1 0 -13669.79 2393.26 -2393.3 76.43 76.42 -2361.61 2361.61 0 13670.67 -3868.43 3759.54 -1404.09 0 -3507.86 3588.09 0 5521.08 304.01 304.01c112.12,-118.74 269.89,-193.89 445.72,-193.89 338.87,0 614.58,275.71 614.58,614.68 0,338.86 -275.71,614.59 -614.58,614.59 -338.96,0 -614.65,-275.73 -614.65,-614.59 0,-124.03 37.55,-239.2 100.95,-335.87l-344.12 -344.16z"/>
     <path class="fil13" d="M17804.33 34781.12c279.35,0 506.54,-227.22 506.54,-506.5 0,-279.32 -227.19,-506.64 -506.54,-506.64 -279.24,0 -506.56,227.32 -506.56,506.64 0,279.28 227.32,506.5 506.56,506.5zm0 -1121.19c338.91,0 614.59,275.72 614.59,614.69 0,338.86 -275.68,614.58 -614.59,614.58 -338.93,0 -614.65,-275.72 -614.65,-614.58 0,-338.97 275.72,-614.69 614.65,-614.69z"/>
     <path class="fil13" d="M23660.09 3.99c-279.25,0 -506.47,227.31 -506.47,506.59 0,279.28 227.22,506.54 506.47,506.54 279.31,0 506.63,-227.26 506.63,-506.54 0,-279.28 -227.32,-506.59 -506.63,-506.59zm-3566.08 31865.85c0,279.31 227.22,506.53 506.47,506.53 279.31,0 506.63,-227.22 506.63,-506.53 0,-279.28 -227.32,-506.61 -506.63,-506.61 -279.25,0 -506.47,227.33 -506.47,506.61zm3566.08 -30744.7c-165.74,0 -315.74,-66.58 -426.38,-173.67l-1147.28 1095.06 0 1573.7 1458.85 1296.7 0 13014.71 -3539.11 3512.09 0 8489.44 648.37 540.29 0 787.14c313.33,27.87 560.63,288.78 560.63,609.24 0,338.89 -275.69,614.58 -614.69,614.58 -338.84,0 -614.55,-275.69 -614.55,-614.58 0,-320.46 247.29,-581.37 560.52,-609.24l0 -736.57 -648.33 -540.32 0 -8584.99 3539.07 -3512.09 0 -12921.2 -1458.81 -1296.74 0 -1668.36 1184.96 -1131.01c-73.33,-101.2 -117.8,-224.52 -117.8,-358.74 0,-338.97 275.69,-614.68 614.55,-614.68 339,0 614.68,275.71 614.68,614.68 0,338.87 -275.68,614.56 -614.68,614.56z"/>
     <path class="fil13" d="M28300.14 -104.1c-279.28,0 -506.49,227.32 -506.49,506.63 0,260.81 198.85,473.64 452.47,501.05l0 -14.79 108.09 0 0 14.79c253.61,-27.41 452.57,-240.24 452.57,-501.05 0,-279.31 -227.32,-506.63 -506.64,-506.63zm-1857.37 13148.01c0,279.28 227.33,506.51 506.61,506.51 279.31,0 506.53,-227.23 506.53,-506.51 0,-279.31 -227.22,-506.6 -506.53,-506.6 -279.28,0 -506.61,227.29 -506.61,506.6zm1911.44 -12032.29l0 7003.97 -1350.78 1431.79 0 2987.32c313.24,27.86 560.53,288.74 560.53,609.22 0,338.87 -275.72,614.59 -614.58,614.59 -338.97,0 -614.66,-275.72 -614.66,-614.59 0,-320.48 247.29,-581.36 560.63,-609.22l0 -3030.25 1350.77 -1431.8 0 -6961.03c-313.24,-27.82 -560.56,-288.73 -560.56,-609.09 0,-339 275.72,-614.68 614.58,-614.68 339,0 614.69,275.68 614.69,614.68 0,320.36 -247.29,581.27 -560.62,609.09z"/>
     <path class="fil13" d="M19148.35 1712.79c-279.28,0 -506.51,227.25 -506.51,506.53 0,279.28 227.23,506.64 506.51,506.64 279.28,0 506.6,-227.36 506.6,-506.64 0,-279.28 -227.32,-506.53 -506.6,-506.53zm-486.27 11891.65c0,279.32 227.32,506.61 506.64,506.61 279.24,0 506.47,-227.29 506.47,-506.61 0,-279.28 -227.23,-506.5 -506.47,-506.5 -279.32,0 -506.64,227.22 -506.64,506.5zm560.66 -10777.95l0 1548.59 1566.88 1269.82 0 6396.97 -1160.14 1160.23c94.51,108.12 153.79,247.83 153.79,402.35 0,339 -275.72,614.68 -614.55,614.68 -339,0 -614.69,-275.68 -614.69,-614.68 0,-338.86 275.69,-614.58 614.69,-614.58 145.33,0 277.28,52.85 382.64,137.54l1130.2 -1130.3 0 -6300.62 -1566.87 -1269.81 0 -1596.07c-322.99,-17.94 -580.92,-283.84 -580.92,-611.29 0,-338.87 275.75,-614.58 614.58,-614.58 338.96,0 614.68,275.71 614.68,614.58 0,313.51 -236.7,569.95 -540.29,607.17z"/>
     <path class="fil13" d="M16412.96 -212.15c-279.35,0 -506.54,227.21 -506.54,506.49 0,279.32 227.19,506.61 506.54,506.61 279.28,0 506.59,-227.29 506.59,-506.61 0,-279.28 -227.31,-506.49 -506.59,-506.49zm108.14 29555.9c-279.31,0 -506.63,227.32 -506.63,506.64 0,279.31 227.32,506.5 506.63,506.5 279.29,0 506.5,-227.19 506.5,-506.5 0,-279.32 -227.21,-506.64 -506.5,-506.64zm-54.15 -28440.17l0 12984.71 1837.13 1837.13 0 12472.31 -1289.66 1289.69c75.26,101.96 121.23,226.75 121.23,362.97 0,338.86 -275.68,614.55 -614.55,614.55 -338.99,0 -614.68,-275.69 -614.68,-614.55 0,-339 275.69,-614.69 614.68,-614.69 163.71,0 311.81,65.34 422.09,170.1l1252.87 -1252.88 0 -12382.73 -1837.16 -1837.13 0 -13029.48c-313.24,-27.87 -560.54,-288.74 -560.54,-609.24 0,-338.86 275.69,-614.58 614.6,-614.58 338.96,0 614.64,275.72 614.64,614.58 0,320.5 -247.29,581.37 -560.65,609.24z"/>
     <path class="fil13" d="M13981.47 -448.5c-279.34,0 -506.53,227.2 -506.53,506.5 0,279.29 227.19,506.6 506.53,506.6 279.28,0 506.6,-227.31 506.6,-506.6 0,-279.3 -227.32,-506.5 -506.6,-506.5zm-432.27 14244.31c279.29,0 506.61,-227.22 506.61,-506.5 0,-279.32 -227.32,-506.6 -506.61,-506.6 -279.28,0 -506.5,227.28 -506.5,506.6 0,279.28 227.22,506.5 506.5,506.5zm486.26 -13128.61l0 1217.35 -1593.86 1512.98 0 8813.64 702.7 619.37c108.42,-95.8 249.19,-155.92 404.9,-155.92 338.97,0 614.69,275.73 614.69,614.69 0,338.87 -275.72,614.58 -614.69,614.58 -338.86,0 -614.58,-275.71 -614.58,-614.58 0,-144.2 51.96,-275.16 135.38,-380.11l-736.48 -649.17 0 -8908.93 1593.89 -1512.95 0 -1170.95c-313.23,-27.83 -560.52,-288.7 -560.52,-609.2 0,-338.89 275.69,-614.58 614.58,-614.58 338.97,0 614.66,275.69 614.66,614.58 0,320.5 -247.29,581.37 -560.67,609.2z"/>
     <path class="fil13" d="M9496.82 11823.6c279.29,0 506.51,-227.22 506.51,-506.5 0,-279.31 -227.22,-506.51 -506.51,-506.51 -279.3,0 -506.62,227.2 -506.62,506.51 0,279.28 227.32,506.5 506.62,506.5zm-3978.23 -12326.16c0,-279.28 -227.23,-506.6 -506.55,-506.6 -279.28,0 -506.59,227.32 -506.59,506.6 0,279.32 227.31,506.55 506.59,506.55 279.32,0 506.55,-227.23 506.55,-506.55zm3978.23 11205.07c338.87,0 614.56,275.69 614.56,614.59 0,338.86 -275.69,614.59 -614.56,614.59 -320.48,0 -581.35,-247.33 -609.22,-560.57l-763.32 0 -1329.1 -1273.84 0 -4214.15 -1837.16 -1729.08 0 -4047.49c-313.33,-27.86 -560.62,-288.73 -560.62,-609.13 0,-338.96 275.68,-614.65 614.64,-614.65 338.91,0 614.6,275.69 614.6,614.65 0,320.4 -247.3,581.27 -560.54,609.13l0 4000.85 1837.14 1729.05 0 4214.81 1264.35 1211.81 720.01 0c27.87,-313.27 288.74,-560.57 609.22,-560.57z"/>
     <path class="fil13" d="M27624.77 21792.74c279.28,0 506.64,-227.32 506.64,-506.6 0,-279.31 -227.36,-506.5 -506.64,-506.5 -279.31,0 -506.49,227.19 -506.49,506.5 0,279.28 227.18,506.6 506.49,506.6zm3667.51 -19573.42c0,-279.28 -227.32,-506.53 -506.6,-506.53 -279.35,0 -506.53,227.25 -506.53,506.53 0,279.28 227.18,506.64 506.53,506.64 279.28,0 506.6,-227.36 506.6,-506.64zm-3721.57 18457.69l0 -2142.14 3160.91 -3123.59 0 -12582.73c-313.23,-27.86 -560.52,-288.73 -560.52,-609.23 0,-338.87 275.68,-614.58 614.58,-614.58 338.94,0 614.65,275.71 614.65,614.58 0,320.5 -247.28,581.37 -560.66,609.23l0 12627.94 -3160.87 3123.59 0 2096.93c313.34,27.87 560.66,288.78 560.66,609.13 0,338.97 -275.72,614.66 -614.69,614.66 -338.89,0 -614.58,-275.69 -614.58,-614.66 0,-320.35 247.29,-581.26 560.52,-609.13z"/>
     <path class="fil13" d="M32298.63 -482.32c-279.31,0 -506.64,227.23 -506.64,506.51 0,279.31 227.33,506.63 506.64,506.63 279.28,0 506.5,-227.32 506.5,-506.63 0,-279.28 -227.22,-506.51 -506.5,-506.51zm-6990.49 21768.46c0,279.28 227.22,506.6 506.5,506.6 279.32,0 506.63,-227.32 506.63,-506.6 0,-279.31 -227.31,-506.5 -506.63,-506.5 -279.28,0 -506.5,227.19 -506.5,506.5zm6990.49 -20647.27c-320.49,0 -581.37,-247.29 -609.26,-560.63l-556.43 0 -1103.72 1156.41 0 13968.72 -4160.55 4025.41 0 1448.23c313.33,27.87 560.65,288.78 560.65,609.13 0,338.97 -275.68,614.66 -614.68,614.66 -338.9,0 -614.59,-275.69 -614.59,-614.66 0,-320.35 247.33,-581.26 560.57,-609.13l0 -1494.06 4160.55 -4025.39 0 -13966.25 1165.56 -1221.15 602.64 0c27.89,-313.23 288.77,-560.53 609.26,-560.53 338.87,0 614.58,275.69 614.58,614.56 0,339 -275.71,614.68 -614.58,614.68z"/>
     <path class="fil13" d="M21546.17 1227.76l0 2593.25 1458.79 1421.65 0 12147.92 -3512.09 3620.27 0 12654.54c313.24,27.86 560.56,288.73 560.56,609.23 0,338.86 -275.69,614.58 -614.58,614.58 -339,0 -614.69,-275.72 -614.69,-614.58 0,-320.5 247.29,-581.37 560.66,-609.23l0 -12698.31 3512.09 -3620.23 0 -12058.56 -1458.85 -1421.64 0 -2638.89c-313.34,-27.86 -560.63,-288.77 -560.63,-609.13 0,-338.96 275.71,-614.64 614.65,-614.64 338.9,0 614.59,275.68 614.59,614.64 0,320.36 -247.27,581.27 -560.5,609.13z"/>
     <path class="fil13" d="M16298.18 3205.76c0,292.43 -205.59,536.77 -479.58,598.61l0 10246.48 1729.06 1783.14 0 7476.42 -864.48 729.44 0 1655.44c313.27,27.87 560.56,288.74 560.56,609.13 0,338.96 -275.72,614.65 -614.58,614.65 -338.97,0 -614.69,-275.69 -614.69,-614.65 0,-320.39 247.32,-581.26 560.66,-609.13l0 -1705.57 864.47 -729.43 0 -7382.55 -1729.07 -1783.11 0 -10276.98c-9.17,0.44 -17.78,2.77 -27,2.77 -338.87,0 -614.59,-275.69 -614.59,-614.66 0,-338.9 275.72,-614.58 614.59,-614.58 338.96,0 614.65,275.68 614.65,614.58z"/>
     <path class="fil13" d="M12414.57 18806.17l0 3122.98 -2269.4 2377.46 0 1677.92 -864.48 756.42 0 2500.22c313.24,27.86 560.53,288.73 560.53,609.23 0,338.86 -275.68,614.55 -614.55,614.55 -338.96,0 -614.69,-275.69 -614.69,-614.55 0,-320.5 247.3,-581.37 560.66,-609.23l0 -2549.31 864.48 -756.43 0 -1672.2 2269.39 -2377.41 0 -3036.72 -1860.36 -1966.65 -286.21 0c-27.86,313.34 -288.73,560.63 -609.09,560.63 -339,0 -614.68,-275.68 -614.68,-614.68 0,-338.84 275.68,-614.56 614.68,-614.56 320.36,0 581.23,247.3 609.09,560.53l332.64 0 1921.99 2031.8z"/>
    </g>
   </g>
  </g>
  <polygon class="fil14" points="-0,0 67733.28,0 67733.28,30259.87 -0,30259.87 "/>
 </g>
</svg>
