<?xml version="1.0" encoding="UTF-8"?>
<!DOCTYPE svg PUBLIC "-//W3C//DTD SVG 1.1//EN" "http://www.w3.org/Graphics/SVG/1.1/DTD/svg11.dtd">
<!-- Creator: CorelDRAW Standard 2021 (64-Bit) -->
<svg xmlns="http://www.w3.org/2000/svg" xml:space="preserve" width="39.5196mm" height="39.5196mm" version="1.1" style="shape-rendering:geometricPrecision; text-rendering:geometricPrecision; image-rendering:optimizeQuality; fill-rule:evenodd; clip-rule:evenodd"
viewBox="0 0 419.04 419.04"
 xmlns:xlink="http://www.w3.org/1999/xlink"
 xmlns:xodm="http://www.corel.com/coreldraw/odm/2003">
 <defs>
  <style type="text/css">
   <![CDATA[
    .fil0 {fill:#EA8330;fill-rule:nonzero}
    .fil1 {fill:white;fill-rule:nonzero}
   ]]>
  </style>
 </defs>
 <g id="Layer_x0020_1">
  <metadata id="CorelCorpID_0Corel-Layer"/>
  <g id="_2080522521216">
   <g>
    <path class="fil0" d="M209.52 419.04c-115.53,0 -209.52,-93.99 -209.52,-209.52 0,-115.53 93.99,-209.52 209.52,-209.52 115.53,0 209.52,93.99 209.52,209.52 0,115.53 -93.99,209.52 -209.52,209.52zm0 -411.06l0 0c-111.13,0 -201.54,90.41 -201.54,201.54 0,111.13 90.41,201.54 201.54,201.54 111.13,0 201.54,-90.41 201.54,-201.54 0,-111.13 -90.41,-201.54 -201.54,-201.54z"/>
   </g>
   <g>
    <path class="fil1" d="M209.52 373.22c-89.37,0 -162.08,-72.71 -162.08,-162.07l7.98 0c0,84.97 69.13,154.09 154.09,154.09 84.97,0 154.09,-69.13 154.09,-154.09l7.98 0c0,89.37 -72.71,162.07 -162.07,162.07z"/>
   </g>
   <g>
    <path class="fil1" d="M209.52 323.31c-63.6,0 -115.34,-51.74 -115.34,-115.34 0,-63.6 51.74,-115.34 115.34,-115.34 63.6,0 115.34,51.74 115.34,115.34 0,63.6 -51.74,115.34 -115.34,115.34zm0 -222.7l0 0c-59.2,0 -107.36,48.16 -107.36,107.36 0,59.2 48.16,107.36 107.36,107.36 59.2,0 107.36,-48.16 107.36,-107.36 0,-59.2 -48.16,-107.36 -107.36,-107.36z"/>
   </g>
   <g>
    <path class="fil1" d="M209.52 226.78c-10.37,0 -18.81,-8.44 -18.81,-18.81 0,-10.37 8.44,-18.81 18.81,-18.81 10.37,0 18.81,8.44 18.81,18.81 0,10.37 -8.44,18.81 -18.81,18.81zm0 -29.63l0 0c-5.97,0 -10.82,4.86 -10.82,10.83 0,5.97 4.86,10.82 10.82,10.82 5.97,0 10.82,-4.86 10.82,-10.82 0,-5.97 -4.86,-10.83 -10.82,-10.83z"/>
   </g>
  </g>
 </g>
</svg>
