<?xml version="1.0" encoding="UTF-8" standalone="no"?>
<!-- Created with Inkscape (http://www.inkscape.org/) -->

<svg
   width="142.13806mm"
   height="50.765663mm"
   viewBox="0 0 142.13806 50.765663"
   version="1.1"
   id="svg1"
   sodipodi:docname="customer_engagement.svg"
   inkscape:version="1.3.1 (9b9bdc1480, 2023-11-25, custom)"
   xmlns:inkscape="http://www.inkscape.org/namespaces/inkscape"
   xmlns:sodipodi="http://sodipodi.sourceforge.net/DTD/sodipodi-0.dtd"
   xmlns="http://www.w3.org/2000/svg"
   xmlns:svg="http://www.w3.org/2000/svg">
  <sodipodi:namedview
     id="namedview1"
     pagecolor="#ffffff"
     bordercolor="#000000"
     borderopacity="0.25"
     inkscape:showpageshadow="2"
     inkscape:pageopacity="0.0"
     inkscape:pagecheckerboard="0"
     inkscape:deskcolor="#d1d1d1"
     inkscape:document-units="mm"
     inkscape:zoom="0.51402139"
     inkscape:cx="312.24382"
     inkscape:cy="-307.3802"
     inkscape:window-width="1850"
     inkscape:window-height="1016"
     inkscape:window-x="0"
     inkscape:window-y="0"
     inkscape:window-maximized="1"
     inkscape:current-layer="layer1" />
  <defs
     id="defs1">
    <linearGradient
       id="swatch8"
       inkscape:swatch="solid">
      <stop
         style="stop-color:#7858a0;stop-opacity:1;"
         offset="0"
         id="stop8" />
    </linearGradient>
  </defs>
  <g
     inkscape:label="Layer 1"
     inkscape:groupmode="layer"
     id="layer1"
     transform="translate(-35.672563,-63.084467)">
    <g
       id="text1"
       style="font-size:25.4px;font-family:'Louis George Cafe';-inkscape-font-specification:'Louis George Cafe';fill:#ea8330;stroke-width:0.238125"
       aria-label="CUSTOMER&#10;ENGAGEMENT">
      <path
         style="font-family:Typori;-inkscape-font-specification:Typori"
         d="m 41.412963,81.626467 q -2.5908,0 -4.1656,-1.397 -1.5748,-1.4224 -1.5748,-4.1656 v -7.1628 q 0,-2.7432 1.5748,-4.1402 1.5748,-1.4224 4.1656,-1.4224 2.413,0 3.937,1.4224 1.5494,1.4224 1.5494,4.1402 v 0.0254 q 0,0.4572 -0.3302,0.7874 -0.3302,0.3302 -0.7874,0.3302 -0.4826,0 -0.8128,-0.3302 -0.3302,-0.3302 -0.3302,-0.7874 v -0.0254 q 0,-1.8288 -0.889,-2.6924 -0.889,-0.889 -2.3368,-0.889 -1.6256,0 -2.5654,0.8636 -0.9398,0.8636 -0.9398,2.7178 v 7.1628 q 0,1.8542 0.9398,2.7178 0.9398,0.8636 2.5654,0.8636 1.4478,0 2.3368,-0.8636 0.889,-0.889 0.889,-2.7178 v -0.0254 q 0,-0.4572 0.3302,-0.7874 0.3302,-0.3302 0.8128,-0.3302 0.4572,0 0.7874,0.3302 0.3302,0.3302 0.3302,0.7874 v 0.0254 q 0,2.7178 -1.5494,4.1402 -1.524,1.4224 -3.937,1.4224 z m 14.223992,0 q -2.413,0 -3.9624,-1.4224 -1.524,-1.4224 -1.524,-4.1402 v -11.3538 q 0,-0.4572 0.3048,-0.7874 0.3302,-0.3302 0.8128,-0.3302 0.4572,0 0.7874,0.3302 0.3302,0.3302 0.3302,0.7874 v 11.3538 q 0,1.8288 0.889,2.7178 0.9144,0.8636 2.3622,0.8636 1.4478,0 2.3368,-0.8636 0.889,-0.889 0.889,-2.7178 v -11.3538 q 0,-0.4572 0.3302,-0.7874 0.3302,-0.3302 0.8128,-0.3302 0.4572,0 0.7874,0.3302 0.3302,0.3302 0.3302,0.7874 v 11.3538 q 0,2.7178 -1.5494,4.1402 -1.524,1.4224 -3.937,1.4224 z m 14.223986,0 q -2.413,0 -3.9624,-1.4224 -1.524,-1.4224 -1.524,-4.1402 v -0.0254 q 0,-0.4572 0.3302,-0.7874 0.3302,-0.3302 0.7874,-0.3302 0.4826,0 0.8128,0.3302 0.3302,0.3302 0.3302,0.7874 v 0.0254 q 0,1.8288 0.889,2.7178 0.889,0.8636 2.3368,0.8636 1.4478,0 2.3368,-0.635 0.9144,-0.635 0.9144,-1.9304 0,-1.524 -0.8128,-2.3876 -0.8128,-0.889 -2.7686,-1.651 -2.4892,-0.9652 -3.5814,-2.159 -1.0668,-1.2192 -1.0668,-2.9972 0,-2.0828 1.3462,-3.302 1.3462,-1.2446 3.6322,-1.2446 2.413,0 3.937,1.4224 1.5494,1.4224 1.5494,4.1402 v 0.0254 q 0,0.4572 -0.3302,0.7874 -0.3302,0.3302 -0.7874,0.3302 -0.4826,0 -0.8128,-0.3302 -0.3302,-0.3302 -0.3302,-0.7874 v -0.0254 q 0,-1.8288 -0.889,-2.6924 -0.889,-0.889 -2.3368,-0.889 -2.7432,0 -2.7432,2.3114 0,1.016 0.381,1.651 0.381,0.635 1.1938,1.1176 0.8128,0.4572 2.4384,1.1176 2.1844,0.889 3.2004,2.2098 1.016,1.2954 1.016,3.0988 0,2.5146 -1.524,3.6576 -1.4986,1.143 -3.9624,1.143 z m 12.979386,-0.254 q -0.4826,0 -0.8128,-0.3302 -0.3048,-0.3302 -0.3048,-0.7874 v -14.6812 h -3.4036 q -0.4064,0 -0.7112,-0.2794 -0.2794,-0.3048 -0.2794,-0.7112 0,-0.4064 0.2794,-0.6858 0.3048,-0.3048 0.7112,-0.3048 h 8.9916 q 0.4064,0 0.6858,0.3048 0.3048,0.2794 0.3048,0.6858 0,0.4064 -0.3048,0.7112 -0.2794,0.2794 -0.6858,0.2794 h -3.3528 v 14.6812 q 0,0.4572 -0.3302,0.7874 -0.3302,0.3302 -0.7874,0.3302 z m 13.182575,0.508 q -2.7178,0 -4.2418,-1.3716 -1.4986,-1.397 -1.4986,-4.191 v -7.6708 q 0,-2.794 1.4986,-4.1656 1.524,-1.397 4.2418,-1.397 2.7178,0 4.216398,1.397 1.524,1.3716 1.524,4.1656 v 7.6708 q 0,2.794 -1.524,4.191 -1.498598,1.3716 -4.216398,1.3716 z m -3.5052,-5.5626 q 0,1.905 0.8636,2.7432 0.8636,0.8382 2.6416,0.8382 1.7526,0 2.6162,-0.8382 0.8636,-0.8382 0.8636,-2.7432 v -7.6708 q 0,-1.905 -0.8636,-2.7432 -0.8636,-0.8382 -2.6162,-0.8382 -1.778,0 -2.6416,0.8382 -0.8636,0.8382 -0.8636,2.7432 z m 14.122398,5.0546 q -0.4826,0 -0.8128,-0.3302 -0.3048,-0.3302 -0.3048,-0.7874 v -15.5448 q 0,-0.4572 0.3048,-0.7874 0.3302,-0.3302 0.8128,-0.3302 0.7366,0 1.1176,0.7112 l 3.8862,7.2136 3.937,-7.2644 q 0.1778,-0.3556 0.4572,-0.508 0.2794,-0.1524 0.7112,-0.1524 0.4572,0 0.7874,0.3302 0.3302,0.3302 0.3302,0.7874 v 15.5448 q 0,0.4572 -0.3302,0.7874 -0.3302,0.3302 -0.7874,0.3302 -0.4826,0 -0.8128,-0.3302 -0.3302,-0.3302 -0.3302,-0.7874 v -7.7724 q 0,-1.5748 0.0508,-2.6162 0.0508,-1.0668 0.2286,-2.1082 l -3.1496,5.5118 q -0.4826,0.7874 -1.0922,0.7874 -0.635,0 -1.0668,-0.7366 l -3.0734,-5.3594 q 0.1778,0.9906 0.2032,2.0066 0.0508,0.9906 0.0508,2.5146 v 7.7724 q 0,0.4572 -0.3302,0.7874 -0.3302,0.3302 -0.7874,0.3302 z m 16.61158,0 q -0.4826,0 -0.8128,-0.3302 -0.3048,-0.3302 -0.3048,-0.7874 v -15.5448 q 0,-0.4572 0.3048,-0.7874 0.3302,-0.3302 0.8128,-0.3302 h 7.8486 q 0.4064,0 0.6858,0.3048 0.3048,0.2794 0.3048,0.6858 0,0.4064 -0.3048,0.7112 -0.2794,0.2794 -0.6858,0.2794 h -6.731 v 5.3848 h 5.969 q 0.4064,0 0.6858,0.3048 0.3048,0.2794 0.3048,0.6858 0,0.4064 -0.3048,0.7112 -0.2794,0.2794 -0.6858,0.2794 h -5.969 v 6.4516 h 6.731 q 0.4064,0 0.6858,0.3048 0.3048,0.2794 0.3048,0.6858 0,0.4064 -0.3048,0.7112 -0.2794,0.2794 -0.6858,0.2794 z m 13.20797,0 q -0.4826,0 -0.8128,-0.3302 -0.3048,-0.3302 -0.3048,-0.7874 v -15.5448 q 0,-0.4572 0.3048,-0.7874 0.3302,-0.3302 0.8128,-0.3302 h 4.1148 q 1.5494,0 2.794,0.5842 1.2446,0.5842 1.9558,1.7272 0.7366,1.143 0.7366,2.7432 0,1.6764 -0.7874,2.8448 -0.762,1.143 -2.1336,1.7272 l 3.048,6.8072 q 0.0762,0.1778 0.0762,0.4064 0,0.3048 -0.1778,0.5842 -0.1524,0.254 -0.4318,0.3556 -0.2286,0.0762 -0.4318,0.0762 -0.6858,0 -0.9652,-0.5842 l -3.175,-7.1882 -0.508,0.0254 h -2.9972 v 6.5532 q 0,0.4572 -0.3302,0.7874 -0.3302,0.3302 -0.7874,0.3302 z m 4.1148,-9.652 q 1.4224,0 2.3114,-0.7874 0.9144,-0.7874 0.9144,-2.286 0,-1.4986 -0.9144,-2.286 -0.889,-0.7874 -2.3114,-0.7874 h -2.9972 v 6.1468 z"
         id="path3" />
      <path
         style="font-family:Typori;-inkscape-font-specification:Typori"
         d="m 37.298163,113.59613 q -0.4826,0 -0.8128,-0.3302 -0.3048,-0.3302 -0.3048,-0.7874 V 96.933726 q 0,-0.4572 0.3048,-0.7874 0.3302,-0.3302 0.8128,-0.3302 h 7.8486 q 0.4064,0 0.6858,0.3048 0.3048,0.2794 0.3048,0.6858 0,0.4064 -0.3048,0.7112 -0.2794,0.2794 -0.6858,0.2794 h -6.731 v 5.384804 h 5.969 q 0.4064,0 0.6858,0.3048 0.3048,0.2794 0.3048,0.6858 0,0.4064 -0.3048,0.7112 -0.2794,0.2794 -0.6858,0.2794 h -5.969 v 6.4516 h 6.731 q 0.4064,0 0.6858,0.3048 0.3048,0.2794 0.3048,0.6858 0,0.4064 -0.3048,0.7112 -0.2794,0.2794 -0.6858,0.2794 z m 13.207963,0 q -0.4826,0 -0.8128,-0.3302 -0.3048,-0.3302 -0.3048,-0.7874 V 96.933726 q 0,-0.4572 0.3048,-0.7874 0.3302,-0.3302 0.8128,-0.3302 0.127,0 0.3302,0.0508 0.4572,0.1016 0.7366,0.635 l 6.7564,12.395204 q -0.1524,-0.9398 -0.2032,-1.8542 -0.0254,-0.9398 -0.0254,-2.3368 v -7.772404 q 0,-0.4572 0.3302,-0.7874 0.3302,-0.3302 0.8128,-0.3302 0.4572,0 0.7874,0.3302 0.3302,0.3302 0.3302,0.7874 v 15.544804 q 0,0.4572 -0.3302,0.7874 -0.3302,0.3302 -0.7874,0.3302 -0.2032,0 -0.508,-0.1016 -0.3556,-0.2032 -0.5842,-0.5842 l -6.7564,-12.4714 q 0.1524,0.9398 0.1778,1.905 0.0508,0.9398 0.0508,2.3622 v 7.7724 q 0,0.4572 -0.3302,0.7874 -0.3302,0.3302 -0.7874,0.3302 z m 19.10076,0.254 q -2.54,0 -4.0132,-1.397 -1.4732,-1.397 -1.4732,-4.1656 v -7.1628 q 0,-2.743204 1.5748,-4.140204 1.5748,-1.422399 4.1656,-1.422399 2.5908,0 4.1656,1.422399 1.5748,1.397 1.5748,4.140204 v 0.0254 q 0,0.4572 -0.3302,0.7874 -0.3302,0.3302 -0.7874,0.3302 -0.4826,0 -0.8128,-0.3302 -0.3302,-0.3302 -0.3302,-0.7874 v -0.0254 q 0,-1.854204 -0.9398,-2.717804 -0.9144,-0.8636 -2.54,-0.8636 -1.6256,0 -2.5654,0.8636 -0.9398,0.8636 -0.9398,2.717804 v 7.1628 q 0,1.8542 0.9398,2.7178 0.9398,0.8636 2.5654,0.8636 1.5748,0 2.5146,-0.9652 0.9652,-0.9906 0.9652,-2.8702 v -2.3114 h -3.4036 q -0.4064,0 -0.7112,-0.2794 -0.2794,-0.3048 -0.2794,-0.7112 0,-0.4064 0.2794,-0.6858 0.3048,-0.3048 0.7112,-0.3048 h 4.6736 q 0.4064,0 0.6858,0.3048 0.3048,0.2794 0.3048,0.6858 v 7.9756 q 0,0.4572 -0.2032,0.6858 -0.1778,0.2032 -0.635,0.2032 -0.4826,0 -0.7112,-0.2032 -0.2032,-0.2286 -0.2032,-0.6858 v -1.2954 q -0.4826,1.2446 -1.5494,1.8542 -1.0414,0.5842 -2.6924,0.5842 z m 11.379162,-0.254 q -0.4826,0 -0.8128,-0.3302 -0.3048,-0.3302 -0.3048,-0.7874 v -11.3538 q 0,-2.717804 1.524,-4.140204 1.5494,-1.422399 3.9624,-1.422399 2.413,0 3.937,1.422399 1.5494,1.4224 1.5494,4.140204 v 11.3538 q 0,0.4572 -0.3302,0.7874 -0.3302,0.3302 -0.7874,0.3302 -0.4826,0 -0.8128,-0.3302 -0.3302,-0.3302 -0.3302,-0.7874 v -6.223 h -6.477 v 6.223 q 0,0.4572 -0.3302,0.7874 -0.3302,0.3302 -0.7874,0.3302 z m 7.5946,-9.3218 v -3.1496 q 0,-1.828804 -0.889,-2.692404 -0.889,-0.889 -2.3368,-0.889 -1.4478,0 -2.3622,0.889 -0.889,0.8636 -0.889,2.692404 v 3.1496 z m 11.506162,9.5758 q -2.540002,0 -4.013202,-1.397 -1.4732,-1.397 -1.4732,-4.1656 v -7.1628 q 0,-2.743204 1.5748,-4.140204 1.5748,-1.422399 4.165602,-1.422399 2.5908,0 4.1656,1.422399 1.5748,1.397 1.5748,4.140204 v 0.0254 q 0,0.4572 -0.3302,0.7874 -0.3302,0.3302 -0.7874,0.3302 -0.4826,0 -0.8128,-0.3302 -0.3302,-0.3302 -0.3302,-0.7874 v -0.0254 q 0,-1.854204 -0.9398,-2.717804 -0.9144,-0.8636 -2.54,-0.8636 -1.625602,0 -2.565402,0.8636 -0.9398,0.8636 -0.9398,2.717804 v 7.1628 q 0,1.8542 0.9398,2.7178 0.9398,0.8636 2.565402,0.8636 1.5748,0 2.5146,-0.9652 0.9652,-0.9906 0.9652,-2.8702 v -2.3114 h -3.4036 q -0.4064,0 -0.711202,-0.2794 -0.2794,-0.3048 -0.2794,-0.7112 0,-0.4064 0.2794,-0.6858 0.304802,-0.3048 0.711202,-0.3048 h 4.6736 q 0.4064,0 0.6858,0.3048 0.3048,0.2794 0.3048,0.6858 v 7.9756 q 0,0.4572 -0.2032,0.6858 -0.1778,0.2032 -0.635,0.2032 -0.4826,0 -0.7112,-0.2032 -0.2032,-0.2286 -0.2032,-0.6858 v -1.2954 q -0.4826,1.2446 -1.5494,1.8542 -1.0414,0.5842 -2.6924,0.5842 z m 11.37916,-0.254 q -0.4826,0 -0.8128,-0.3302 -0.3048,-0.3302 -0.3048,-0.7874 V 96.933726 q 0,-0.4572 0.3048,-0.7874 0.3302,-0.3302 0.8128,-0.3302 h 7.8486 q 0.4064,0 0.6858,0.3048 0.3048,0.2794 0.3048,0.6858 0,0.4064 -0.3048,0.7112 -0.2794,0.2794 -0.6858,0.2794 h -6.731 v 5.384804 h 5.969 q 0.4064,0 0.6858,0.3048 0.3048,0.2794 0.3048,0.6858 0,0.4064 -0.3048,0.7112 -0.2794,0.2794 -0.6858,0.2794 h -5.969 v 6.4516 h 6.731 q 0.4064,0 0.6858,0.3048 0.3048,0.2794 0.3048,0.6858 0,0.4064 -0.3048,0.7112 -0.2794,0.2794 -0.6858,0.2794 z m 13.20796,0 q -0.4826,0 -0.8128,-0.3302 -0.3048,-0.3302 -0.3048,-0.7874 V 96.933726 q 0,-0.4572 0.3048,-0.7874 0.3302,-0.3302 0.8128,-0.3302 0.7366,0 1.1176,0.7112 l 3.8862,7.213604 3.937,-7.264404 q 0.1778,-0.3556 0.4572,-0.508 0.2794,-0.1524 0.7112,-0.1524 0.4572,0 0.7874,0.3302 0.3302,0.3302 0.3302,0.7874 v 15.544804 q 0,0.4572 -0.3302,0.7874 -0.3302,0.3302 -0.7874,0.3302 -0.4826,0 -0.8128,-0.3302 -0.3302,-0.3302 -0.3302,-0.7874 v -7.7724 q 0,-1.5748 0.0508,-2.6162 0.0508,-1.0668 0.2286,-2.108204 l -3.1496,5.511804 q -0.4826,0.7874 -1.0922,0.7874 -0.635,0 -1.0668,-0.7366 l -3.0734,-5.3594 q 0.1778,0.9906 0.2032,2.0066 0.0508,0.9906 0.0508,2.5146 v 7.7724 q 0,0.4572 -0.3302,0.7874 -0.3302,0.3302 -0.7874,0.3302 z m 16.61158,0 q -0.4826,0 -0.8128,-0.3302 -0.3048,-0.3302 -0.3048,-0.7874 V 96.933726 q 0,-0.4572 0.3048,-0.7874 0.3302,-0.3302 0.8128,-0.3302 h 7.8486 q 0.4064,0 0.6858,0.3048 0.3048,0.2794 0.3048,0.6858 0,0.4064 -0.3048,0.7112 -0.2794,0.2794 -0.6858,0.2794 h -6.731 v 5.384804 h 5.969 q 0.4064,0 0.6858,0.3048 0.3048,0.2794 0.3048,0.6858 0,0.4064 -0.3048,0.7112 -0.2794,0.2794 -0.6858,0.2794 h -5.969 v 6.4516 h 6.731 q 0.4064,0 0.6858,0.3048 0.3048,0.2794 0.3048,0.6858 0,0.4064 -0.3048,0.7112 -0.2794,0.2794 -0.6858,0.2794 z m 13.20797,0 q -0.4826,0 -0.8128,-0.3302 -0.3048,-0.3302 -0.3048,-0.7874 V 96.933726 q 0,-0.4572 0.3048,-0.7874 0.3302,-0.3302 0.8128,-0.3302 0.127,0 0.3302,0.0508 0.4572,0.1016 0.7366,0.635 l 6.7564,12.395204 q -0.1524,-0.9398 -0.2032,-1.8542 -0.0254,-0.9398 -0.0254,-2.3368 v -7.772404 q 0,-0.4572 0.3302,-0.7874 0.3302,-0.3302 0.8128,-0.3302 0.4572,0 0.7874,0.3302 0.3302,0.3302 0.3302,0.7874 v 15.544804 q 0,0.4572 -0.3302,0.7874 -0.3302,0.3302 -0.7874,0.3302 -0.2032,0 -0.508,-0.1016 -0.3556,-0.2032 -0.5842,-0.5842 l -6.7564,-12.4714 q 0.1524,0.9398 0.1778,1.905 0.0508,0.9398 0.0508,2.3622 v 7.7724 q 0,0.4572 -0.3302,0.7874 -0.3302,0.3302 -0.7874,0.3302 z m 17.85615,0 q -0.4826,0 -0.8128,-0.3302 -0.3048,-0.3302 -0.3048,-0.7874 V 97.797326 h -3.4036 q -0.4064,0 -0.7112,-0.2794 -0.2794,-0.3048 -0.2794,-0.7112 0,-0.4064 0.2794,-0.6858 0.3048,-0.3048 0.7112,-0.3048 h 8.9916 q 0.4064,0 0.6858,0.3048 0.3048,0.2794 0.3048,0.6858 0,0.4064 -0.3048,0.7112 -0.2794,0.2794 -0.6858,0.2794 h -3.3528 v 14.681204 q 0,0.4572 -0.3302,0.7874 -0.3302,0.3302 -0.7874,0.3302 z"
         id="path4" />
    </g>
    <text
       xml:space="preserve"
       style="font-style:italic;font-variant:normal;font-weight:normal;font-stretch:normal;font-size:25.4px;font-family:'Louis George Cafe';-inkscape-font-specification:'Louis George Cafe Italic';fill:#386ae2;fill-opacity:1;stroke-width:0.264583;stroke-dasharray:none"
       x="50.29496"
       y="185.03011"
       id="text9"><tspan
         sodipodi:role="line"
         id="tspan9"
         style="stroke-width:0.264583"
         x="50.29496"
         y="185.03011" /></text>
  </g>
</svg>
