<?xml version="1.0" encoding="UTF-8" standalone="no"?>
<!-- Created with Inkscape (http://www.inkscape.org/) -->

<svg
   width="142.60214mm"
   height="18.504297mm"
   viewBox="0 0 142.60214 18.504297"
   version="1.1"
   id="svg1"
   sodipodi:docname="discover_how.svg"
   inkscape:version="1.3.1 (9b9bdc1480, 2023-11-25, custom)"
   xmlns:inkscape="http://www.inkscape.org/namespaces/inkscape"
   xmlns:sodipodi="http://sodipodi.sourceforge.net/DTD/sodipodi-0.dtd"
   xmlns="http://www.w3.org/2000/svg"
   xmlns:svg="http://www.w3.org/2000/svg">
  <sodipodi:namedview
     id="namedview1"
     pagecolor="#ffffff"
     bordercolor="#000000"
     borderopacity="0.25"
     inkscape:showpageshadow="2"
     inkscape:pageopacity="0.0"
     inkscape:pagecheckerboard="0"
     inkscape:deskcolor="#d1d1d1"
     inkscape:document-units="mm"
     inkscape:zoom="0.51402139"
     inkscape:cx="450.37036"
     inkscape:cy="-68.090552"
     inkscape:window-width="1850"
     inkscape:window-height="1016"
     inkscape:window-x="0"
     inkscape:window-y="0"
     inkscape:window-maximized="1"
     inkscape:current-layer="layer1" />
  <defs
     id="defs1">
    <linearGradient
       id="swatch8"
       inkscape:swatch="solid">
      <stop
         style="stop-color:#7858a0;stop-opacity:1;"
         offset="0"
         id="stop8" />
    </linearGradient>
  </defs>
  <g
     inkscape:label="Layer 1"
     inkscape:groupmode="layer"
     id="layer1"
     transform="translate(-34.505849,-63.190631)">
    <path
       style="font-style:italic;font-weight:bold;font-stretch:condensed;font-size:25.4px;font-family:'Arial Nova';-inkscape-font-specification:'Arial Nova Bold Italic Condensed';fill:#ffffff;stroke-width:0.238125"
       d="m 49.425869,69.069342 q 0,1.252637 -0.310059,2.678906 -0.79375,3.770313 -1.686719,5.729883 -0.892968,1.95957 -2.604492,2.926953 -1.699121,0.967383 -4.812109,0.967383 h -5.506641 l 3.869532,-18.181836 h 4.824511 q 3.026172,0 4.626074,1.525489 1.599903,1.525488 1.599903,4.353222 z m -3.609082,0.111621 q 0,-1.252636 -0.396875,-1.934765 -0.384473,-0.682129 -1.103809,-0.930176 -0.719336,-0.260449 -1.835547,-0.260449 h -1.265039 l -2.654101,12.451953 h 1.637109 q 1.773535,0 2.778125,-0.781348 1.00459,-0.781348 1.475879,-1.996777 0.483691,-1.21543 0.967383,-3.460254 0.396875,-1.835547 0.396875,-3.088184 z m 7.218164,-2.827734 0.669726,-3.162598 h 3.336231 l -0.669727,3.162598 z m -3.199805,15.019238 2.80293,-13.171289 h 3.33623 L 53.171377,81.372467 Z M 62.559951,70.359186 q -0.620117,0 -0.967382,0.322461 -0.334864,0.322461 -0.334864,0.843359 0,0.396875 0.248047,0.731739 0.248047,0.32246 0.620117,0.570507 0.384473,0.248047 1.041797,0.620118 0.992188,0.558105 1.624707,1.029394 0.63252,0.458887 1.079004,1.227832 0.458887,0.768945 0.458887,1.860352 0,0.905371 -0.434082,1.835546 -0.42168,0.930176 -1.5875,1.612305 -1.153418,0.669727 -3.175,0.669727 -1.451074,0 -2.567285,-0.446485 -1.103809,-0.446484 -1.748731,-1.339453 -0.632519,-0.905371 -0.669726,-2.207617 l 3.33623,-0.508496 q 0.0124,0.917773 0.483691,1.463476 0.483692,0.533301 1.376661,0.533301 0.818554,0 1.227832,-0.384472 0.409277,-0.396875 0.409277,-0.905372 0,-0.446484 -0.260449,-0.793749 -0.248047,-0.347266 -0.63252,-0.607715 -0.37207,-0.272852 -1.041797,-0.657325 -0.942578,-0.5333 -1.550293,-0.992187 -0.607714,-0.471289 -1.041796,-1.21543 -0.42168,-0.74414 -0.42168,-1.79834 0,-0.868164 0.446484,-1.761132 0.446485,-0.892969 1.513086,-1.525489 1.079004,-0.632519 2.840137,-0.632519 2.00918,0 3.212207,0.855762 1.203027,0.843359 1.203027,2.579687 l -3.237011,0.496094 q -0.161231,-1.475879 -1.451075,-1.475879 z m 12.265917,-2.455664 q 1.265039,0 2.22002,0.508496 0.967382,0.496094 1.475878,1.438672 0.520899,0.942578 0.520899,2.269629 l -3.261816,0.520898 q -0.06201,-1.835547 -1.302247,-1.835547 -0.58291,0 -0.992187,0.372071 -0.409277,0.37207 -0.744141,1.252636 -0.322461,0.868164 -0.657324,2.43086 -0.334863,1.389062 -0.334863,2.207617 0,0.917773 0.359668,1.314648 0.359668,0.384473 1.00459,0.384473 0.706933,0 1.153418,-0.558106 0.458886,-0.558105 0.818554,-1.823144 l 3.125391,0.595312 q -0.558106,1.699121 -1.289844,2.728516 -0.731738,1.029395 -1.711523,1.500684 -0.979785,0.471289 -2.306836,0.471289 -2.083594,0 -3.261816,-1.128614 -1.165821,-1.128613 -1.165821,-3.435449 0,-1.16582 0.310059,-2.567285 0.508496,-2.344043 1.314648,-3.807519 0.818555,-1.463477 1.971973,-2.145606 1.16582,-0.694531 2.75332,-0.694531 z m 9.89707,13.791406 q -1.37666,0 -2.430859,-0.520898 -1.041797,-0.533301 -1.637109,-1.624707 -0.595313,-1.091407 -0.595313,-2.728516 0,-0.992188 0.235645,-2.158008 0.644922,-3.261816 2.17041,-5.010547 1.525488,-1.761132 4.030762,-1.761132 2.282031,0 3.410644,1.265039 1.128613,1.265039 1.128613,3.596679 0,1.066602 -0.223242,2.294434 -0.607715,3.261816 -2.095996,4.960937 -1.475879,1.686719 -3.993555,1.686719 z m 2.778125,-6.883301 q 0.272852,-1.178222 0.272852,-2.009179 0,-1.029395 -0.409277,-1.513086 -0.409278,-0.483692 -1.190625,-0.483692 -0.731739,0 -1.21543,0.458887 -0.471289,0.458887 -0.781348,1.314648 -0.310058,0.855762 -0.570507,2.207618 -0.26045,1.16582 -0.26045,1.984375 0,2.009179 1.537891,2.009179 1.00459,0 1.612305,-0.95498 0.607714,-0.967383 1.004589,-3.01377 z m 6.895704,6.56084 -1.141016,-13.171289 h 3.33623 l 0.136426,7.503418 q 0.0124,0.471289 0.0124,1.475879 0.16123,-0.37207 0.644921,-1.463477 l 3.385842,-7.51582 h 3.52227 l -6.821295,13.171289 z m 20.835943,-8.582422 q 0,1.041797 -0.24805,2.207617 l -0.17363,0.84336 h -7.51582 q -0.0744,0.483691 -0.0744,0.917773 0,1.066602 0.42168,1.686719 0.42168,0.607715 1.20303,0.607715 0.75654,0 1.30225,-0.483692 0.5581,-0.483691 0.84336,-1.314648 l 3.1874,0.384473 q -0.64492,1.798339 -1.98438,2.926953 -1.32705,1.116211 -3.37343,1.116211 -1.59991,0 -2.67891,-0.620118 -1.0666,-0.620117 -1.5875,-1.723925 -0.5209,-1.103809 -0.5209,-2.554883 0,-0.744141 0.16123,-1.686719 0.65733,-3.658691 2.34404,-5.419824 1.68672,-1.773535 4.2292,-1.773535 2.28204,0 3.37344,1.351855 1.09141,1.351856 1.09141,3.534668 z m -7.42901,0.855762 h 4.09278 q 0.0868,-0.607715 0.0868,-1.16582 0,-0.967383 -0.34726,-1.451074 -0.33487,-0.483692 -1.07901,-0.483692 -0.97978,0 -1.71152,0.781348 -0.73174,0.768945 -1.0418,2.319238 z m 15.73857,-2.517676 q -1.01699,0 -1.71152,1.128614 -0.69453,1.11621 -1.20303,3.509863 l -1.19062,5.605859 h -3.33623 l 2.80293,-13.171289 h 3.11299 l -0.42168,1.996777 q 1.27744,-2.294433 3.03857,-2.294433 0.75654,0 1.46348,0.446484 l -1.45108,3.050977 q -0.59531,-0.272852 -1.10381,-0.272852 z m 16.14786,10.244336 1.71152,-8.049121 h -5.03535 l -1.71153,8.049121 h -3.44785 l 3.86953,-18.181836 h 3.44785 l -1.53789,7.19336 h 5.03536 l 1.53789,-7.19336 h 3.44785 l -3.86953,18.181836 z m 12.2287,0.322461 q -1.37666,0 -2.43085,-0.520898 -1.0418,-0.533301 -1.63711,-1.624707 -0.59532,-1.091407 -0.59532,-2.728516 0,-0.992188 0.23565,-2.158008 0.64492,-3.261816 2.17041,-5.010547 1.52549,-1.761132 4.03076,-1.761132 2.28203,0 3.41064,1.265039 1.12862,1.265039 1.12862,3.596679 0,1.066602 -0.22324,2.294434 -0.60772,3.261816 -2.096,4.960937 -1.47588,1.686719 -3.99356,1.686719 z m 2.77813,-6.883301 q 0.27285,-1.178222 0.27285,-2.009179 0,-1.029395 -0.40928,-1.513086 -0.40927,-0.483692 -1.19062,-0.483692 -0.73174,0 -1.21543,0.458887 -0.47129,0.458887 -0.78135,1.314648 -0.31006,0.855762 -0.57051,2.207618 -0.26045,1.16582 -0.26045,1.984375 0,2.009179 1.5379,2.009179 1.00458,0 1.6123,-0.95498 0.60771,-0.967383 1.00459,-3.01377 z m 12.88603,6.56084 0.0992,-7.553027 q 0,-0.173633 0.0372,-1.041797 -0.0744,0.21084 -0.42168,1.054199 l -2.96416,7.540625 h -3.32383 l -0.62011,-13.171289 h 3.05097 l -0.0868,8.011914 -0.0248,1.190625 0.49609,-1.252637 3.1626,-7.949902 h 3.23701 l -0.22324,8.036719 q 0,0.260449 -0.0372,1.16582 l 0.4961,-1.203027 3.31142,-7.999512 h 3.33623 l -6.26318,13.171289 z"
       id="text1"
       aria-label="Discover How" />
    <text
       xml:space="preserve"
       style="font-style:italic;font-variant:normal;font-weight:normal;font-stretch:normal;font-size:25.4px;font-family:'Louis George Cafe';-inkscape-font-specification:'Louis George Cafe Italic';fill:#386ae2;fill-opacity:1;stroke-width:0.264583;stroke-dasharray:none"
       x="50.29496"
       y="185.03011"
       id="text9"><tspan
         sodipodi:role="line"
         id="tspan9"
         style="stroke-width:0.264583"
         x="50.29496"
         y="185.03011" /></text>
  </g>
</svg>
