<?xml version="1.0" encoding="UTF-8"?>
<!DOCTYPE svg PUBLIC "-//W3C//DTD SVG 1.1//EN" "http://www.w3.org/Graphics/SVG/1.1/DTD/svg11.dtd">
<!-- Creator: CorelDRAW Standard 2021 (64-Bit) -->
<svg xmlns="http://www.w3.org/2000/svg" xml:space="preserve" width="226.5mm" height="18.5315mm" version="1.1" style="shape-rendering:geometricPrecision; text-rendering:geometricPrecision; image-rendering:optimizeQuality; fill-rule:evenodd; clip-rule:evenodd"
viewBox="0 0 136963.78 11205.94"
 xmlns:xlink="http://www.w3.org/1999/xlink"
 xmlns:xodm="http://www.corel.com/coreldraw/odm/2003">
 <defs>
  <style type="text/css">
   <![CDATA[
    .fil0 {fill:white}
   ]]>
  </style>
 </defs>
 <g id="Layer_x0020_1">
  <metadata id="CorelCorpID_0Corel-Layer"/>
  <path class="fil0" d="M1258.8 5285.89c487.45,0 883.64,396.32 883.64,883.34 0,487.2 -396.2,883.34 -883.64,883.34 -486.9,0 -883.04,-396.14 -883.04,-883.34 0,-487.02 396.14,-883.34 883.04,-883.34zm134446.13 -4910.14c486.9,0 883.04,396.32 883.04,883.46 0.18,487.2 -396.14,883.52 -883.04,883.52 -486.9,-0.18 -883.22,-396.32 -883.22,-883.52 0,-487.32 396.32,-883.46 883.22,-883.46zm-134446.13 7052.58c626.16,0 1142.63,-460.36 1239.33,-1059.61l5980.51 0 2321.31 -2321.13 19112.28 0 628.64 628.46 5030.83 0 6530.06 6529.88 1632.5 0 455.76 -456.06 56592.95 0 261.59 261.23 1996.16 0 969.21 -969.27 0 -371.83 7810.99 -7810.99 1497.17 0 411.8 -411.92 20735.11 0c91.73,604.76 609.78,1071.34 1239.93,1071.34 693.77,-0.12 1258.8,-564.85 1258.8,-1259.22 0.12,-694.31 -565.03,-1259.22 -1258.8,-1259.22 -630.15,0 -1148.2,466.46 -1239.93,1071.4l-19055.02 0 -356.59 -357.01 -3175.38 0 -1181.27 1181.27 0 556.02 -6218.88 6219.24 -697.76 0 -1329.55 1329.61 -2719.56 0 -373.64 373.76 -56621.01 0 -4116.59 -4116.9 0 -657 -2320.77 -2321.01 -2856.77 0 -392.75 392.45 -22405.4 0 -2321.19 2321.19 -5822.74 0c-86.65,-610.26 -607.18,-1082.83 -1241.32,-1082.83 -694.19,0 -1258.8,564.85 -1258.8,1259.04 0,694.25 564.61,1259.1 1258.8,1259.1z"/>
 </g>
</svg>
