<?xml version="1.0" encoding="UTF-8"?>
<!DOCTYPE svg PUBLIC "-//W3C//DTD SVG 1.1//EN" "http://www.w3.org/Graphics/SVG/1.1/DTD/svg11.dtd">
<!-- Creator: CorelDRAW Standard 2021 (64-Bit) -->
<svg xmlns="http://www.w3.org/2000/svg" xml:space="preserve" width="81.8366mm" height="6.1585mm" version="1.1" style="shape-rendering:geometricPrecision; text-rendering:geometricPrecision; image-rendering:optimizeQuality; fill-rule:evenodd; clip-rule:evenodd"
viewBox="0 0 2443.02 183.85"
 xmlns:xlink="http://www.w3.org/1999/xlink"
 xmlns:xodm="http://www.corel.com/coreldraw/odm/2003">
 <defs>
  <style type="text/css">
   <![CDATA[
    .fil0 {fill:white}
   ]]>
  </style>
 </defs>
 <g id="Layer_x0020_1">
  <metadata id="CorelCorpID_0Corel-Layer"/>
  <g id="_2080522235488">
   <path class="fil0" d="M152.73 31.1l0 121.64 -121.64 0 0 -121.64 121.64 0zm-152.73 -31.1l0 183.85 183.84 0 0 -183.85 -183.84 0z"/>
   <path class="fil0" d="M475.47 31.1l0 121.64 -121.63 0 0 -121.64 121.63 0zm-152.74 -31.1l0 183.85 183.83 0 0 -183.85 -183.83 0z"/>
   <path class="fil0" d="M798.2 31.1l0 121.64 -121.64 0 0 -121.64 121.64 0zm-152.74 -31.1l0 183.85 183.85 0 0 -183.85 -183.85 0z"/>
   <path class="fil0" d="M1120.96 31.1l0 121.64 -121.67 0 0 -121.64 121.67 0zm-152.78 -31.1l0 183.85 183.89 0 0 -183.85 -183.89 0z"/>
   <path class="fil0" d="M1443.65 31.1l0 121.64 -121.63 0 0 -121.64 121.63 0zm-152.73 -31.1l0 183.85 183.83 0 0 -183.85 -183.83 0z"/>
   <path class="fil0" d="M1766.43 31.1l0 121.64 -121.64 0 0 -121.64 121.64 0zm-152.74 -31.1l0 183.85 183.85 0 0 -183.85 -183.85 0z"/>
   <path class="fil0" d="M2089.15 31.1l0 121.64 -121.63 0 0 -121.64 121.63 0zm-152.74 -31.1l0 183.85 183.85 0 0 -183.85 -183.85 0z"/>
   <path class="fil0" d="M2411.93 31.1l0 121.64 -121.68 0 0 -121.64 121.68 0zm-152.79 -31.1l0 183.85 183.88 0 0 -183.85 -183.88 0z"/>
  </g>
 </g>
</svg>
