<?xml version="1.0" encoding="UTF-8"?>
<!DOCTYPE svg PUBLIC "-//W3C//DTD SVG 1.1//EN" "http://www.w3.org/Graphics/SVG/1.1/DTD/svg11.dtd">
<!-- Creator: CorelDRAW Standard 2021 (64-Bit) -->
<svg xmlns="http://www.w3.org/2000/svg" xml:space="preserve" width="298.717mm" height="153.441mm" version="1.1" style="shape-rendering:geometricPrecision; text-rendering:geometricPrecision; image-rendering:optimizeQuality; fill-rule:evenodd; clip-rule:evenodd"
viewBox="0 0 131302.91 67446.01"
 xmlns:xlink="http://www.w3.org/1999/xlink"
 xmlns:xodm="http://www.corel.com/coreldraw/odm/2003">
 <defs>
  <style type="text/css">
   <![CDATA[
    .fil0 {fill:white;fill-rule:nonzero}
    .fil1 {fill:url(#id0);fill-rule:nonzero}
   ]]>
  </style>
  <linearGradient id="id0" gradientUnits="userSpaceOnUse" x1="533" y1="12936.12" x2="533" y2="19286.55">
   <stop offset="0" style="stop-opacity:1; stop-color:#004260"/>
   <stop offset="0.74902" style="stop-opacity:1; stop-color:#009EAF"/>
   <stop offset="1" style="stop-opacity:1; stop-color:#00FBFF"/>
  </linearGradient>
 </defs>
 <g id="Layer_x0020_1">
  <metadata id="CorelCorpID_0Corel-Layer"/>
  <g id="_2080742248896">
   <polygon class="fil0" points="361.62,5338.23 361.62,38152.98 714.67,38152.98 714.67,5338.23 "/>
   <path class="fil0" d="M17285.83 66414.85l28826.18 0 0 -367.64 -3418.2 0 -28826.18 0 0 0.04 -8615.46 0c-1212.38,0 -2352.06,-491.64 -3209.15,-1384.34 -857.05,-892.69 -1328.82,-2079.45 -1328.34,-3341.68l10.02 -24701.57 -353.05 0 -10.02 24701.48c-0.57,1360.38 507.95,2639.49 1431.68,3601.72 923.73,962.1 2152.2,1491.98 3458.86,1491.98l9571.41 0 2462.26 0z"/>
  </g>
  <path class="fil0" d="M18742.43 367.6l725.27 0 0 -367.6 -725.27 0 -8378.63 0 -5106.67 0c-2696.1,0 -4890.01,2283.84 -4890.41,5090.98l-5.14 12716.16 353.05 0 5.14 -12716.03c0.4,-2604.63 2035.85,-4723.46 4537.36,-4723.46l13485.3 0 0 -0.04z"/>
  <polygon class="fil0" points="9941.34,367.6 131302.91,367.6 131302.91,0 9941.34,0 "/>
  <g id="_2080742258832">
   <path class="fil0" d="M47256.61 67446.01c-648.92,0 -1176.91,-527.82 -1176.91,-1176.69 0,-649 527.99,-1176.87 1176.91,-1176.87 648.83,0 1176.78,527.86 1176.78,1176.87 0,648.87 -527.95,1176.69 -1176.78,1176.69zm0 -1853.96l0 0c-373.45,0 -677.31,303.82 -677.31,677.27 0,373.36 303.86,677.18 677.31,677.18 373.45,0 677.27,-303.82 677.27,-677.18 0,-373.45 -303.82,-677.27 -677.27,-677.27z"/>
  </g>
  <path class="fil1" d="M1066.05 18753.24l0 3.34 0 3.6 0 3.34 -0.31 3.6 0 3.34 0 3.3 -0.31 3.34 0 3.65 -0.31 3.3 -0.31 3.34 0 3.3 -0.31 3.65 -0.26 3.34 -0.31 3.3 -0.31 3.34 -0.31 3.3 -0.31 3.34 -0.62 3.65 -0.31 3.3 -0.26 3.34 -0.62 3.3 -0.31 3.34 -0.62 3.34 -0.31 3.3 -0.57 3.34 -0.62 3.03 -0.62 3.3 -0.62 3.34 -0.57 3.3 -0.62 3.34 -0.62 3.34 -0.62 2.99 -0.57 3.34 -0.62 3.34 -0.92 3.3 -0.62 3.03 -0.88 3.34 -0.62 3.3 -0.92 3.03 -0.88 3.34 -0.62 2.99 -0.92 3.34 -0.88 3.03 -0.92 3.3 -0.88 3.03 -0.92 3.34 -0.92 3.03 -0.88 2.99 -1.23 3.34 -0.88 3.03 -0.92 2.99 -1.23 3.34 -0.88 3.03 -1.23 2.99 -0.88 3.03 -1.23 3.03 -1.19 3.34 -1.23 2.99 -0.88 3.03 -1.23 3.03 -1.19 3.03 -1.23 2.99 -1.49 3.03 -1.23 3.03 -1.19 2.73 -1.23 2.99 -1.19 3.03 -1.54 3.03 -1.19 3.03 -1.49 2.73 -1.23 2.99 -1.49 3.03 -1.54 2.73 -1.19 3.03 -1.54 2.68 -1.49 3.03 -1.49 2.73 -1.54 3.03 -1.49 2.73 -1.49 2.99 -1.54 2.73 -1.49 2.73 -1.54 3.03 -1.8 2.73 -1.49 2.73 -1.54 2.73 -1.8 2.68 -1.49 3.03 -1.8 2.73 -1.85 2.73 -1.49 2.73 -1.8 2.73 -1.85 2.73 -1.8 2.42 -1.49 2.68 -1.8 2.73 -1.85 2.73 -1.8 2.73 -1.8 2.42 -2.11 2.73 -1.85 2.73 -1.8 2.42 -1.8 2.73 -2.11 2.42 -1.8 2.68 -1.85 2.42 -2.11 2.73 -1.8 2.42 -2.11 2.42 -2.11 2.73 -1.85 2.42 -2.11 2.42 -2.11 2.42 -1.8 2.42 -2.11 2.42 -2.11 2.42 -2.11 2.42 -2.11 2.42 -2.15 2.42 -2.11 2.42 -2.11 2.42 -2.42 2.42 -2.11 2.11 -2.11 2.42 -2.42 2.42 -2.11 2.11 -2.11 2.42 -2.42 2.15 -2.11 2.37 -2.42 2.15 -2.15 2.11 -2.42 2.42 -2.42 2.11 -2.11 2.11 -2.42 2.42 -2.42 2.11 -2.42 2.11 -2.42 2.11 -2.42 2.11 -2.42 2.15 -2.42 2.11 -2.42 2.11 -2.42 1.8 -2.42 2.11 -2.42 2.11 -2.42 1.85 -2.68 2.11 -2.42 2.11 -2.42 1.8 -2.73 2.11 -2.42 1.8 -2.73 1.85 -2.42 2.11 -2.73 1.8 -2.42 1.8 -2.73 1.85 -2.73 2.11 -2.42 1.8 -2.73 1.8 -2.73 1.8 -2.68 1.85 -2.73 1.49 -2.42 1.8 -2.73 1.85 -2.73 1.8 -2.73 1.49 -2.73 1.8 -2.73 1.85 -2.99 1.49 -2.73 1.8 -2.73 1.54 -2.73 1.49 -2.73 1.8 -3.03 1.54 -2.68 1.49 -2.73 1.49 -3.03 1.54 -2.73 1.49 -3.03 1.49 -2.73 1.54 -2.99 1.49 -2.73 1.54 -3.03 1.19 -2.73 1.49 -3.03 1.54 -2.99 1.19 -2.73 1.54 -3.03 1.19 -3.03 1.54 -2.99 1.19 -3.03 1.23 -2.73 1.19 -3.03 1.23 -3.03 1.49 -2.99 1.19 -3.03 1.23 -3.03 1.19 -2.99 0.92 -3.03 1.23 -3.34 1.19 -3.03 1.23 -2.99 0.88 -3.03 1.23 -3.03 0.88 -3.3 1.23 -3.03 0.88 -3.03 0.92 -3.34 1.23 -2.99 0.88 -3.03 0.92 -3.34 0.88 -2.99 0.92 -3.34 0.92 -3.03 0.88 -3.3 0.92 -3.03 0.62 -3.34 0.88 -3.03 0.92 -3.3 0.62 -3.34 0.88 -2.99 0.62 -3.34 0.92 -3.34 0.57 -3.3 0.62 -3.03 0.62 -3.34 0.62 -3.3 0.57 -3.34 0.62 -3.34 0.62 -3.3 0.62 -3.03 0.57 -3.34 0.62 -3.3 0.31 -3.34 0.62 -3.3 0.31 -3.34 0.57 -3.34 0.31 -3.3 0.31 -3.65 0.62 -3.3 0.31 -3.34 0.31 -3.34 0.26 -3.3 0.31 -3.34 0.31 -3.6 0.31 -3.34 0 -3.34 0.31 -3.3 0.31 -3.65 0 -3.3 0.31 -3.34 0 -3.34 0 -3.6 0.31 -3.34 0 -3.6 0 -3.34 0 -3.3 0 -3.65 0 -3.34 0 -3.6 -0.31 -3.34 0 -3.3 0 -3.34 -0.31 -3.6 0 -3.34 -0.31 -3.34 -0.31 -3.3 0 -3.65 -0.31 -3.3 -0.31 -3.34 -0.31 -3.34 -0.26 -3.3 -0.31 -3.34 -0.31 -3.6 -0.62 -3.34 -0.31 -3.34 -0.31 -3.3 -0.57 -3.34 -0.31 -3.3 -0.62 -3.34 -0.31 -3.34 -0.62 -2.99 -0.57 -3.34 -0.62 -3.34 -0.62 -3.3 -0.62 -3.34 -0.57 -3.3 -0.62 -3.03 -0.62 -3.34 -0.62 -3.3 -0.57 -3.34 -0.92 -3.03 -0.62 -3.3 -0.88 -3.34 -0.62 -3.03 -0.92 -3.3 -0.88 -3.03 -0.62 -3.34 -0.92 -3.03 -0.88 -3.3 -0.92 -3.03 -0.92 -3.34 -0.88 -2.99 -0.92 -3.03 -0.88 -3.34 -1.23 -2.99 -0.92 -3.03 -0.88 -3.34 -1.23 -2.99 -0.88 -3.03 -1.23 -3.03 -0.88 -3.03 -1.23 -3.3 -1.19 -3.03 -1.23 -3.03 -0.92 -3.03 -1.19 -2.99 -1.23 -3.03 -1.19 -3.03 -1.49 -3.03 -1.23 -2.68 -1.19 -3.03 -1.23 -3.03 -1.19 -3.03 -1.54 -2.99 -1.19 -2.73 -1.54 -3.03 -1.19 -3.03 -1.54 -2.73 -1.49 -2.99 -1.19 -2.73 -1.54 -3.03 -1.49 -2.73 -1.54 -3.03 -1.49 -2.68 -1.49 -3.03 -1.54 -2.73 -1.49 -2.73 -1.49 -3.03 -1.54 -2.73 -1.8 -2.68 -1.49 -2.73 -1.54 -2.73 -1.8 -3.03 -1.49 -2.73 -1.85 -2.73 -1.8 -2.73 -1.49 -2.68 -1.8 -2.73 -1.85 -2.42 -1.8 -2.73 -1.49 -2.73 -1.85 -2.73 -1.8 -2.73 -1.8 -2.42 -1.8 -2.73 -2.11 -2.73 -1.85 -2.42 -1.8 -2.68 -1.8 -2.42 -2.11 -2.73 -1.85 -2.42 -1.8 -2.73 -2.11 -2.42 -1.8 -2.42 -2.11 -2.73 -2.11 -2.42 -1.85 -2.42 -2.11 -2.42 -2.11 -2.42 -1.8 -2.42 -2.11 -2.42 -2.11 -2.42 -2.15 -2.42 -2.11 -2.42 -2.11 -2.42 -2.11 -2.42 -2.11 -2.42 -2.42 -2.11 -2.11 -2.42 -2.11 -2.42 -2.42 -2.11 -2.11 -2.42 -2.15 -2.11 -2.37 -2.42 -2.15 -2.11 -2.42 -2.15 -2.11 -2.42 -2.42 -2.11 -2.42 -2.11 -2.11 -2.42 -2.42 -2.11 -2.42 -2.11 -2.42 -2.11 -2.42 -2.11 -2.42 -2.11 -2.42 -2.11 -2.42 -2.15 -2.42 -1.8 -2.42 -2.11 -2.42 -2.11 -2.42 -1.8 -2.42 -2.11 -2.73 -2.15 -2.42 -1.8 -2.42 -2.11 -2.73 -1.8 -2.42 -1.8 -2.68 -2.15 -2.42 -1.8 -2.73 -1.8 -2.42 -1.8 -2.73 -2.11 -2.73 -1.85 -2.42 -1.8 -2.73 -1.8 -2.73 -1.8 -2.73 -1.54 -2.68 -1.8 -2.42 -1.8 -2.73 -1.85 -2.73 -1.49 -2.73 -1.8 -2.73 -1.8 -2.73 -1.54 -3.03 -1.8 -2.68 -1.49 -2.73 -1.54 -2.73 -1.8 -2.73 -1.49 -3.03 -1.54 -2.73 -1.49 -2.73 -1.49 -2.99 -1.54 -2.73 -1.49 -3.03 -1.54 -2.73 -1.49 -3.03 -1.49 -2.68 -1.23 -3.03 -1.49 -2.73 -1.54 -3.03 -1.19 -2.99 -1.49 -2.73 -1.23 -3.03 -1.49 -3.03 -1.23 -3.03 -1.19 -2.99 -1.23 -2.73 -1.19 -3.03 -1.54 -3.03 -1.19 -2.99 -1.23 -3.03 -1.19 -3.03 -0.92 -3.03 -1.19 -2.99 -1.23 -3.34 -1.19 -3.03 -0.92 -3.03 -1.19 -2.99 -0.92 -3.03 -1.23 -3.34 -0.88 -2.99 -0.92 -3.03 -1.19 -3.34 -0.92 -2.99 -0.92 -3.03 -0.88 -3.34 -0.92 -3.03 -0.88 -3.3 -0.92 -3.03 -0.92 -3.34 -0.57 -2.99 -0.92 -3.34 -0.92 -3.03 -0.57 -3.3 -0.92 -3.34 -0.62 -3.03 -0.88 -3.3 -0.62 -3.34 -0.62 -3.34 -0.62 -2.99 -0.57 -3.34 -0.62 -3.34 -0.62 -3.3 -0.62 -3.34 -0.57 -3.3 -0.62 -3.03 -0.62 -3.34 -0.31 -3.3 -0.62 -3.34 -0.26 -3.34 -0.62 -3.3 -0.31 -3.34 -0.31 -3.3 -0.62 -3.65 -0.31 -3.34 -0.26 -3.3 -0.31 -3.34 -0.31 -3.3 -0.31 -3.34 -0.31 -3.65 0 -3.3 -0.31 -3.34 -0.31 -3.3 0 -3.65 -0.31 -3.34 0 -3.3 0 -3.34 -0.26 -3.6 0 -3.34 0 -3.6 0 -3.34zm1066.05 -5284.07l0 5284.07 -1066.05 0 0 -5284.07zm0 0l0 -3.34 0 -3.6 0 -3.34 0.26 -3.6 0 -3.34 0 -3.34 0.31 -3.3 0 -3.65 0.31 -3.3 0.31 -3.34 0 -3.34 0.31 -3.6 0.31 -3.34 0.31 -3.3 0.31 -3.34 0.26 -3.34 0.31 -3.3 0.62 -3.65 0.31 -3.3 0.31 -3.34 0.62 -3.3 0.26 -3.34 0.62 -3.34 0.31 -3.3 0.62 -3.34 0.62 -3.03 0.57 -3.3 0.62 -3.34 0.62 -3.34 0.62 -3.3 0.57 -3.34 0.62 -3.03 0.62 -3.3 0.62 -3.34 0.88 -3.3 0.62 -3.03 0.92 -3.34 0.57 -3.3 0.92 -3.03 0.92 -3.34 0.57 -2.99 0.92 -3.34 0.92 -3.03 0.88 -3.3 0.92 -3.03 0.88 -3.34 0.92 -3.03 0.92 -2.99 1.19 -3.34 0.92 -3.03 0.88 -2.99 1.23 -3.34 0.92 -3.03 1.19 -3.03 0.92 -2.99 1.19 -3.03 1.23 -3.34 1.19 -2.99 0.92 -3.03 1.19 -3.03 1.23 -3.03 1.19 -2.99 1.54 -3.03 1.19 -3.03 1.23 -2.73 1.19 -2.99 1.23 -3.03 1.49 -3.03 1.23 -3.03 1.49 -2.73 1.19 -2.99 1.54 -3.03 1.49 -2.73 1.23 -3.03 1.49 -2.73 1.49 -2.99 1.54 -2.73 1.49 -3.03 1.54 -2.73 1.49 -3.03 1.49 -2.68 1.54 -2.73 1.49 -3.03 1.8 -2.73 1.54 -2.73 1.49 -2.73 1.8 -2.73 1.54 -2.99 1.8 -2.73 1.8 -2.73 1.49 -2.73 1.85 -2.73 1.8 -2.73 1.8 -2.42 1.54 -2.68 1.8 -2.73 1.8 -2.73 1.8 -2.73 1.85 -2.42 2.11 -2.73 1.8 -2.73 1.8 -2.42 1.8 -2.73 2.15 -2.42 1.8 -2.73 1.8 -2.42 2.11 -2.68 1.8 -2.42 2.15 -2.42 2.11 -2.73 1.8 -2.42 2.11 -2.42 2.11 -2.42 1.8 -2.42 2.15 -2.42 2.11 -2.42 2.11 -2.42 2.11 -2.42 2.11 -2.42 2.11 -2.42 2.11 -2.42 2.42 -2.42 2.11 -2.11 2.11 -2.42 2.42 -2.42 2.15 -2.11 2.11 -2.42 2.42 -2.15 2.11 -2.42 2.42 -2.11 2.11 -2.11 2.42 -2.42 2.42 -2.11 2.11 -2.11 2.42 -2.42 2.42 -2.11 2.42 -2.11 2.42 -2.11 2.42 -2.15 2.42 -2.11 2.42 -2.11 2.42 -2.11 2.42 -1.8 2.42 -2.11 2.42 -2.11 2.42 -1.85 2.73 -2.11 2.42 -2.11 2.42 -1.8 2.73 -2.11 2.42 -1.8 2.73 -1.85 2.42 -2.11 2.68 -1.8 2.42 -1.8 2.73 -1.85 2.73 -2.11 2.42 -1.8 2.73 -1.8 2.73 -1.8 2.73 -1.85 2.73 -1.49 2.42 -1.8 2.73 -1.85 2.68 -1.8 2.73 -1.49 2.73 -1.8 2.73 -1.85 3.03 -1.49 2.73 -1.8 2.73 -1.54 2.68 -1.49 2.73 -1.8 3.03 -1.54 2.73 -1.49 2.73 -1.49 3.03 -1.54 2.68 -1.49 3.03 -1.54 2.73 -1.49 3.03 -1.49 2.73 -1.54 2.99 -1.19 2.73 -1.54 3.03 -1.49 3.03 -1.19 2.73 -1.54 2.99 -1.19 3.03 -1.54 3.03 -1.19 3.03 -1.23 2.68 -1.19 3.03 -1.23 3.03 -1.49 3.03 -1.23 2.99 -1.19 3.03 -1.23 3.03 -0.88 3.03 -1.23 3.3 -1.19 3.03 -1.23 3.03 -0.88 3.03 -1.23 2.99 -0.88 3.34 -1.23 3.03 -0.88 2.99 -0.92 3.34 -1.23 3.03 -0.88 2.99 -0.92 3.34 -0.88 3.03 -0.92 3.3 -0.92 3.03 -0.88 3.34 -0.92 3.03 -0.62 3.3 -0.88 3.03 -0.92 3.34 -0.62 3.3 -0.88 3.03 -0.62 3.34 -0.92 3.3 -0.57 3.34 -0.62 3.03 -0.62 3.3 -0.62 3.34 -0.57 3.3 -0.62 3.34 -0.62 3.34 -0.62 2.99 -0.57 3.34 -0.62 3.34 -0.31 3.3 -0.62 3.34 -0.31 3.3 -0.57 3.34 -0.31 3.34 -0.31 3.6 -0.62 3.34 -0.31 3.3 -0.31 3.34 -0.31 3.34 -0.26 3.3 -0.31 3.65 -0.31 3.3 0 3.34 -0.31 3.34 -0.31 3.6 0 3.34 -0.31 3.3 0 3.34 0 3.6 -0.31 3.34 0 3.65 0 3.3 0 3.34 0 3.6 0 3.34 0 3.6 0.31 3.34 0 3.34 0 3.3 0.31 3.65 0 3.3 0.31 3.34 0.31 3.34 0 3.6 0.31 3.34 0.31 3.3 0.26 3.34 0.31 3.34 0.31 3.3 0.31 3.65 0.62 3.3 0.31 3.34 0.31 3.34 0.57 3.3 0.31 3.34 0.62 3.3 0.31 3.34 0.62 3.03 0.57 3.3 0.62 3.34 0.62 3.34 0.62 3.3 0.57 3.34 0.62 3.03 0.62 3.3 0.62 3.34 0.57 3.34 0.92 2.99 0.62 3.34 0.88 3.3 0.62 3.03 0.92 3.34 0.88 3.03 0.62 3.3 0.92 3.03 0.88 3.34 0.92 2.99 0.92 3.34 0.88 3.03 0.92 2.99 0.88 3.34 1.23 3.03 0.92 3.03 0.88 3.3 1.23 3.03 0.88 3.03 1.23 2.99 0.88 3.03 1.23 3.34 1.19 3.03 1.23 2.99 0.88 3.03 1.23 3.03 1.19 2.99 1.23 3.03 1.49 3.03 1.23 2.73 1.19 3.03 1.23 2.99 1.19 3.03 1.54 3.03 1.19 2.73 1.54 2.99 1.19 3.03 1.49 2.73 1.54 3.03 1.19 2.73 1.54 2.99 1.49 2.73 1.49 3.03 1.54 2.73 1.49 3.03 1.54 2.73 1.49 2.68 1.49 3.03 1.54 2.73 1.8 2.73 1.49 2.73 1.54 2.73 1.8 2.99 1.49 2.73 1.85 2.73 1.8 2.73 1.49 2.73 1.8 2.73 1.85 2.42 1.8 2.73 1.49 2.68 1.85 2.73 1.8 2.73 1.8 2.42 1.8 2.73 2.11 2.73 1.85 2.42 1.8 2.73 1.8 2.42 2.11 2.73 1.85 2.42 1.8 2.73 2.11 2.42 1.8 2.42 2.11 2.68 2.11 2.42 1.85 2.42 2.11 2.42 2.11 2.42 1.8 2.42 2.11 2.42 2.11 2.42 2.11 2.42 2.15 2.42 2.11 2.42 2.11 2.42 2.11 2.42 2.42 2.11 2.11 2.42 2.11 2.42 2.42 2.15 2.11 2.42 2.11 2.11 2.42 2.42 2.15 2.11 2.42 2.11 2.11 2.42 2.42 2.11 2.42 2.11 2.11 2.42 2.42 2.11 2.42 2.11 2.42 2.15 2.42 2.11 2.42 2.11 2.42 2.11 2.42 2.11 2.42 1.8 2.42 2.11 2.42 2.11 2.42 1.85 2.42 2.11 2.73 2.11 2.42 1.8 2.42 2.11 2.68 1.85 2.42 1.8 2.73 2.11 2.42 1.8 2.73 1.8 2.42 1.85 2.73 2.11 2.73 1.8 2.42 1.8 2.73 1.85 2.73 1.8 2.73 1.49 2.68 1.8 2.42 1.85 2.73 1.8 2.73 1.49 2.73 1.85 2.73 1.8 2.73 1.49 2.99 1.8 2.73 1.54 2.73 1.49 2.73 1.8 2.73 1.54 3.03 1.49 2.73 1.54 2.68 1.49 3.03 1.49 2.73 1.54 3.03 1.49 2.73 1.49 2.99 1.54 2.73 1.19 3.03 1.54 2.73 1.49 3.03 1.23 2.99 1.49 2.73 1.19 3.03 1.54 3.03 1.19 3.03 1.23 2.99 1.19 2.73 1.23 3.03 1.49 3.03 1.23 2.99 1.19 3.03 1.23 3.03 0.88 3.03 1.23 2.99 1.19 3.34 1.23 3.03 0.88 2.99 1.23 3.03 0.88 3.03 1.23 3.34 0.92 2.99 0.88 3.03 1.23 3.34 0.88 2.99 0.92 3.03 0.92 3.34 0.88 3.03 0.92 3.3 0.88 3.03 0.92 3.34 0.62 2.99 0.88 3.34 0.92 3.03 0.62 3.3 0.88 3.34 0.62 3.03 0.92 3.3 0.62 3.34 0.57 3.3 0.62 3.03 0.62 3.34 0.62 3.3 0.57 3.34 0.62 3.34 0.62 3.3 0.62 3.03 0.57 3.34 0.31 3.3 0.62 3.34 0.31 3.34 0.62 3.3 0.26 3.34 0.31 3.3 0.62 3.65 0.31 3.3 0.31 3.34 0.31 3.34 0.31 3.3 0.26 3.34 0.31 3.6 0 3.34 0.31 3.34 0.31 3.3 0 3.65 0.31 3.3 0 3.34 0 3.34 0.31 3.6 0 3.34 0 3.6 0 3.34z"/>
 </g>
</svg>
