<svg xmlns="http://www.w3.org/2000/svg" xml:space="preserve" width="1086.985" height="1131.122" style="shape-rendering:geometricPrecision;text-rendering:geometricPrecision;image-rendering:optimizeQuality;fill-rule:evenodd;clip-rule:evenodd" viewBox="0 0 3629.09 3776.44"><defs><linearGradient id="id6" x1="1814.54" x2="1814.54" y1="718.2" y2="1599.62" gradientUnits="userSpaceOnUse"><stop offset="0" style="stop-opacity:1;stop-color:#d0792a"/><stop offset=".722" style="stop-opacity:1;stop-color:#747143"/><stop offset="1" style="stop-opacity:1;stop-color:#17685d"/></linearGradient><linearGradient id="id7" x1="1814.54" x2="1814.54" y1="1382.17" y2="2301.41" gradientUnits="userSpaceOnUse"><stop offset="0" style="stop-opacity:1;stop-color:#d47926"/><stop offset=".82" style="stop-opacity:1;stop-color:gray"/><stop offset=".949" style="stop-opacity:1;stop-color:#cecece"/><stop offset="1" style="stop-opacity:1;stop-color:#d0792a"/></linearGradient><linearGradient id="id8" x1="1814.54" x2="1814.54" y1="1149.98" y2="230.74" gradientUnits="userSpaceOnUse"><stop offset="0" style="stop-opacity:1;stop-color:#d47926"/><stop offset="1" style="stop-opacity:1;stop-color:#d47926"/></linearGradient><linearGradient id="id9" x1="1814.54" x2="1814.54" y1="2370.49" y2="3932.76" gradientUnits="userSpaceOnUse"><stop offset="0" style="stop-opacity:1;stop-color:#e98d34"/><stop offset=".431" style="stop-opacity:1;stop-color:#c8712e"/><stop offset=".949" style="stop-opacity:0;stop-color:#17685d"/><stop offset=".988" style="stop-opacity:.501961;stop-color:#2d0090"/><stop offset="1" style="stop-opacity:1;stop-color:#2d0090"/></linearGradient><linearGradient id="id10" x1="1814.54" x2="1814.54" y1="133.63" y2="1990.81" gradientUnits="userSpaceOnUse"><stop offset="0" style="stop-opacity:1;stop-color:#26a8ae"/><stop offset=".722" style="stop-opacity:.501961;stop-color:#29549f"/><stop offset="1" style="stop-opacity:0;stop-color:#2d0090"/></linearGradient><linearGradient id="id11" x1="1814.54" x2="1814.54" y1="3820.51" y2="2156.53" gradientUnits="userSpaceOnUse"><stop offset="0" style="stop-opacity:1;stop-color:#01f4f6"/><stop offset=".722" style="stop-opacity:.501961;stop-color:#177ac3"/><stop offset="1" style="stop-opacity:0;stop-color:#2d0090"/></linearGradient><linearGradient id="id12" x1="3115.45" x2="1105.82" y1="-174.19" y2="2406.67" gradientUnits="userSpaceOnUse"><stop offset="0" style="stop-opacity:1;stop-color:#0f0c0e"/><stop offset=".722" style="stop-opacity:1;stop-color:#615f60"/><stop offset="1" style="stop-opacity:1;stop-color:#b3b3b3"/></linearGradient><mask id="id0"><linearGradient id="id1" x1="1814.54" x2="1814.54" y1="1149.98" y2="230.74" gradientUnits="userSpaceOnUse"><stop offset="0" style="stop-opacity:.74902;stop-color:white"/><stop offset=".82" style="stop-opacity:.74902;stop-color:white"/><stop offset=".98" style="stop-opacity:0;stop-color:white"/><stop offset="1" style="stop-opacity:.498039;stop-color:white"/></linearGradient><path d="M381.84 26.52h2865.42v1141.73H381.84z" style="fill:url(#id1)"/></mask><mask id="id2"><linearGradient id="id3" x1="1814.54" x2="1814.54" y1="1382.17" y2="2301.41" gradientUnits="userSpaceOnUse"><stop offset="0" style="stop-opacity:.74902;stop-color:white"/><stop offset=".82" style="stop-opacity:.74902;stop-color:white"/><stop offset=".98" style="stop-opacity:0;stop-color:white"/><stop offset="1" style="stop-opacity:.498039;stop-color:white"/></linearGradient><path d="M381.84 1363.9h2865.42v1141.72H381.84z" style="fill:url(#id3)"/></mask><mask id="id4"><linearGradient id="id5" x1="1814.54" x2="1814.54" y1="718.2" y2="1599.62" gradientUnits="userSpaceOnUse"><stop offset="0" style="stop-opacity:1;stop-color:white"/><stop offset=".722" style="stop-opacity:.74902;stop-color:white"/><stop offset="1" style="stop-opacity:.498039;stop-color:white"/></linearGradient><path d="M905.54 922.03h1818v685.58h-1818z" style="fill:url(#id5)"/></mask><style>.fil10,.fil4,.fil6{fill:#0f0c0e;fill-rule:nonzero}.fil10,.fil4{fill:#2a737c}.fil4{fill:#fff}</style></defs><g id="Layer_x0020_1"><g id="_2214259267632"><path d="M2878.33 1063.79c0 587.51-476.28 1063.79-1063.79 1063.79-587.52 0-1063.79-476.28-1063.79-1063.79C750.75 476.27 1227.03 0 1814.54 0c587.52 0 1063.79 476.28 1063.79 1063.79" style="fill:url(#id10);fill-rule:nonzero"/><path d="M2271.89 2665.1H1357.2v-799.15h914.69z" style="fill:#666;fill-rule:nonzero"/><path d="M3490.92 3773.12H138.17L467.9 3001.2l1360.09-620.88 1336.1 620.19z" style="fill:#b3b3b3;fill-rule:nonzero"/><path d="m3260.7 2893.7-888.33-392.84c-120.24 179.92-325.19 298.42-557.83 298.42-229.98 0-432.89-115.81-553.67-292.28l-889.34 386.7L0 3773.13h3629.09z" style="fill:url(#id11);fill-rule:nonzero"/><path d="M1812.39 2901.09c-261.81 0-504.76-125.29-666.56-343.74l11.89-8.8c158.98 214.65 397.6 337.76 654.68 337.76 259.8 0 499.98-125.23 658.94-343.58l11.96 8.7c-161.78 222.22-406.32 349.67-670.9 349.67zM803.2 3776.42l-438.29-879.43 13.24-6.59 438.29 879.43zM2825.88 3776.44l-13.22-6.63 441.43-879.43 13.21 6.63z" class="fil4"/><path d="M1147.78 623.33c0 16.97-59.09 966.79-59.09 966.79l195.62 637.05c18.65 83.29 92.58 142.49 177.93 142.49h704.63c85.35 0 159.28-59.21 177.93-142.49l195.62-637.05s-59.09-949.82-59.09-966.79H1147.8z" style="fill:url(#id12);fill-rule:nonzero"/><path d="m1556.79 1878.3 257.75 55.61 257.76-55.61-209.8-67.67-47.96 23.15-47.95-23.15zM1713.72 1607.12l7.55 96.34h186.55l7.55-96.34z" class="fil6"/><path d="M2578.08 3773.12c0-421.69-341.85-769.68-763.53-769.68-421.69 0-763.53 347.99-763.53 769.68h1527.07z" style="fill:url(#id9);fill-rule:nonzero"/><path d="M2463.56 3773.12h-15.28c0-349.44-284.29-633.73-633.73-633.73s-633.73 284.29-633.73 633.73h-15.28c0-357.86 291.14-649 649.01-649 357.86 0 649.01 291.14 649.01 649" class="fil4"/><path d="M921.72 1167.77c43.63-141.6 173.35-244.31 326.61-244.31h1132.43c153.27 0 282.99 102.72 326.61 244.31h65.44c18.27 0 473.96-1140.77 473.96-1140.77H382.32l467.16 1140.77z" style="fill:url(#id8);fill-rule:nonzero;mask:url(#id0)"/><path d="M921.72 1364.38c43.63 141.6 173.35 244.31 326.61 244.31h1132.43c153.27 0 282.99-102.72 326.61-244.31h65.44c18.27 0 473.96 1140.76 473.96 1140.76H382.32l467.16-1140.76z" style="fill:url(#id7);fill-rule:nonzero;mask:url(#id2)"/><path d="M955.77 1162.11h-99.49c-56.72 0-102.7 45.98-102.7 102.7s45.98 102.7 102.7 102.7h99.49c56.72 0 102.7-45.98 102.7-102.7s-45.98-102.7-102.7-102.7M2772.81 1162.11h-99.49c-56.72 0-102.7 45.98-102.7 102.7s45.98 102.7 102.7 102.7h99.49c56.72 0 102.7-45.98 102.7-102.7s-45.98-102.7-102.7-102.7" class="fil10"/><path d="M2380.76 1607.12H1248.33c-189.05 0-342.31-153.26-342.31-342.31s153.26-342.31 342.31-342.31h1132.43c189.05 0 342.31 153.26 342.31 342.31s-153.26 342.31-342.31 342.31" style="fill:url(#id6);fill-rule:nonzero;mask:url(#id4)"/><path d="M2482.36 1349.24c-46.55 0-84.42-37.87-84.42-84.42s37.87-84.42 84.42-84.42 84.42 37.87 84.42 84.42-37.87 84.42-84.42 84.42m0-154.06c-38.39 0-69.63 31.24-69.63 69.63 0 38.4 31.24 69.63 69.63 69.63s69.63-31.24 69.63-69.63-31.24-69.63-69.63-69.63M2255.04 1349.24c-46.55 0-84.42-37.87-84.42-84.42s37.87-84.42 84.42-84.42 84.43 37.87 84.43 84.42-37.88 84.42-84.43 84.42m0-154.06c-38.39 0-69.63 31.24-69.63 69.63 0 38.4 31.24 69.63 69.63 69.63 38.4 0 69.64-31.24 69.64-69.63s-31.24-69.63-69.64-69.63" class="fil4"/><path d="M2380.76 1532.29H1248.33c-105.2 0-200.33-61.61-243.72-157.38H856.28c-60.71 0-110.1-49.39-110.1-110.1s49.39-110.1 110.1-110.1h148.33c43.39-95.78 138.52-157.38 243.72-157.38h1132.43c105.2 0 200.32 61.61 243.72 157.38h148.34c60.71 0 110.09 49.39 110.09 110.1s-49.39 110.1-110.09 110.1h-148.34c-43.39 95.78-138.51 157.38-243.72 157.38M856.28 1169.5c-52.56 0-95.31 42.76-95.31 95.31 0 52.56 42.75 95.31 95.31 95.31h153.14l6.79 4.47c40.09 92.89 131.2 152.92 232.12 152.92h1132.43c100.92 0 192.02-60.02 232.12-152.92l6.79-4.47h153.15c52.55 0 95.31-42.76 95.31-95.31s-42.75-95.31-95.31-95.31h-153.15l-6.79-4.46c-40.09-92.89-131.2-152.92-232.12-152.92H1248.33c-100.92 0-192.03 60.02-232.12 152.92l-6.79 4.46z" class="fil4"/><path d="M2056.22 1320.75H856.28c-15.37 0-30.23-6.44-40.77-17.67-10.69-11.38-16.04-26.24-15.05-41.84 1.84-29.35 27.2-52.35 57.73-52.35h1198.02c30.84 0 55.93 25.09 55.93 55.93s-25.09 55.93-55.93 55.93zM858.2 1223.67c-22.75 0-41.62 16.91-42.98 38.49-.72 11.49 3.21 22.42 11.07 30.79 7.87 8.39 18.53 13.01 29.99 13.01h1199.94c22.69 0 41.14-18.46 41.14-41.15 0-22.68-18.45-41.14-41.14-41.14z" class="fil4"/><path d="M2380.76 1454.82H1248.33c-104.77 0-190-85.23-190-190s85.23-190 190-190h1132.43c104.77 0 190 85.23 190 190s-85.23 190-190 190M1248.33 1089.6c-96.61 0-175.22 78.6-175.22 175.21s78.6 175.22 175.22 175.22h1132.43c96.61 0 175.21-78.6 175.21-175.22 0-96.61-78.6-175.21-175.21-175.21z" class="fil4"/></g></g></svg>