<?xml version="1.0" encoding="UTF-8"?>
<!DOCTYPE svg PUBLIC "-//W3C//DTD SVG 1.1//EN" "http://www.w3.org/Graphics/SVG/1.1/DTD/svg11.dtd">
<!-- Creator: CorelDRAW Standard 2021 (64-Bit) -->
<svg xmlns="http://www.w3.org/2000/svg" xml:space="preserve" width="143.623mm" height="100.599mm" version="1.1" style="shape-rendering:geometricPrecision; text-rendering:geometricPrecision; image-rendering:optimizeQuality; fill-rule:evenodd; clip-rule:evenodd"
viewBox="0 0 5287.89 3703.87"
 xmlns:xlink="http://www.w3.org/1999/xlink"
 xmlns:xodm="http://www.corel.com/coreldraw/odm/2003">
 <defs>
  <style type="text/css">
   <![CDATA[
    .fil1 {fill:white;fill-rule:nonzero}
    .fil2 {fill:url(#id0);fill-rule:nonzero}
    .fil0 {fill:url(#id1);fill-rule:nonzero}
   ]]>
  </style>
  <linearGradient id="id0" gradientUnits="userSpaceOnUse" x1="5294.39" y1="-398.31" x2="5294.39" y2="4160.02">
   <stop offset="0" style="stop-opacity:1; stop-color:#E98D34"/>
   <stop offset="0.431373" style="stop-opacity:1; stop-color:#C8712E"/>
   <stop offset="0.94902" style="stop-opacity:0; stop-color:#17685D"/>
   <stop offset="0.988235" style="stop-opacity:0.501961; stop-color:#2D0090"/>
   <stop offset="1" style="stop-opacity:1; stop-color:#2D0090"/>
  </linearGradient>
  <linearGradient id="id1" gradientUnits="userSpaceOnUse" x1="5294.39" y1="3832.5" x2="5294.39" y2="-1022.57">
   <stop offset="0" style="stop-opacity:1; stop-color:#01F4F6"/>
   <stop offset="0.721569" style="stop-opacity:0.501961; stop-color:#177AC3"/>
   <stop offset="1" style="stop-opacity:0; stop-color:#2D0090"/>
  </linearGradient>
 </defs>
 <g id="PowerClip_x0020_Contents">
  <metadata id="CorelCorpID_0Corel-Layer"/>
  <path class="fil0" d="M5287.89 852.75c-668.35,-2.18 -1257.72,-339.54 -1608.97,-852.75l-2594.88 1128.29 -1084.04 2565.95 0 0 5287.89 0 0 -2841.49z"/>
  <path class="fil1" d="M5287.89 1149.86c-763.8,-0.07 -1472.59,-365.64 -1944.64,-1002.96l34.69 -25.69c463.81,626.24 1159.96,985.42 1909.96,985.5l0 43.15z"/>
  <polygon class="fil1" points="2343.55,3703.87 1064.72,1137.91 1103.34,1118.66 2382.18,3684.62 "/>
  <path class="fil2" d="M5287.89 1448.6c-1227.38,3.58 -2221.3,1017.43 -2221.3,2245.64l2221.3 0 0 -2245.64z"/>
  <path class="fil1" d="M5287.89 1845.25c-1016.59,3.52 -1842.56,831.59 -1842.56,1849l-44.59 0c0,-1041.99 845.97,-1890.03 1887.15,-1893.55l0 44.56z"/>
 </g>
</svg>
