<?xml version="1.0" encoding="UTF-8"?>
<!DOCTYPE svg PUBLIC "-//W3C//DTD SVG 1.1//EN" "http://www.w3.org/Graphics/SVG/1.1/DTD/svg11.dtd">
<!-- Creator: CorelDRAW Standard 2021 (64-Bit) -->
<svg xmlns="http://www.w3.org/2000/svg" xml:space="preserve" width="132.673mm" height="249.615mm" version="1.1" style="shape-rendering:geometricPrecision; text-rendering:geometricPrecision; image-rendering:optimizeQuality; fill-rule:evenodd; clip-rule:evenodd"
viewBox="0 0 4272.47 8038.38"
 xmlns:xlink="http://www.w3.org/1999/xlink"
 xmlns:xodm="http://www.corel.com/coreldraw/odm/2003">
 <defs>
  <style type="text/css">
   <![CDATA[
    .fil3 {fill:#0F0C0E;fill-rule:nonzero}
    .fil0 {fill:#666666;fill-rule:nonzero}
    .fil1 {fill:#B3B3B3;fill-rule:nonzero}
    .fil2 {fill:url(#id0);fill-rule:nonzero}
   ]]>
  </style>
  <linearGradient id="id0" gradientUnits="userSpaceOnUse" x1="7598.11" y1="-2035.29" x2="2469.48" y2="4551.14">
   <stop offset="0" style="stop-opacity:1; stop-color:#0F0C0E"/>
   <stop offset="0.721569" style="stop-opacity:1; stop-color:#615F60"/>
   <stop offset="1" style="stop-opacity:1; stop-color:#B3B3B3"/>
  </linearGradient>
 </defs>
 <g id="PowerClip_x0020_Contents">
  <metadata id="CorelCorpID_0Corel-Layer"/>
  <polygon class="fil0" points="4272.47,5210.67 3110.99,5210.67 3110.99,3171.2 4272.47,3171.2 "/>
  <polygon class="fil1" points="4272.47,8038.38 -0,8038.38 -0,8038.38 841.48,6068.41 4272.47,4502.17 "/>
  <path class="fil2" d="M2576.55 0c0,43.31 -150.8,2467.27 -150.8,2467.27l499.22 1625.78c47.59,212.55 236.26,363.65 454.07,363.65l893.43 0 0 -4456.7 -1695.92 0z"/>
  <g id="_2080520379344">
   <polygon class="fil3" points="3620.36,3202.73 4272.47,3343.43 4272.47,3086.36 4155.78,3030.02 "/>
   <polygon class="fil3" points="4020.85,2510.67 4040.12,2756.52 4272.47,2756.52 4272.47,2510.67 "/>
  </g>
 </g>
</svg>
