<?xml version="1.0" encoding="UTF-8" standalone="no"?>
<!-- Created with Inkscape (http://www.inkscape.org/) -->

<svg
   width="651.00098"
   height="189.00014"
   viewBox="0 0 172.24401 50.006287"
   version="1.1"
   id="svg1"
   inkscape:version="1.3.1 (9b9bdc1480, 2023-11-25, custom)"
   sodipodi:docname="shaping.svg"
   xmlns:inkscape="http://www.inkscape.org/namespaces/inkscape"
   xmlns:sodipodi="http://sodipodi.sourceforge.net/DTD/sodipodi-0.dtd"
   xmlns="http://www.w3.org/2000/svg"
   xmlns:svg="http://www.w3.org/2000/svg">
  <sodipodi:namedview
     id="namedview1"
     pagecolor="#ffffff"
     bordercolor="#000000"
     borderopacity="0.25"
     inkscape:showpageshadow="2"
     inkscape:pageopacity="0.0"
     inkscape:pagecheckerboard="0"
     inkscape:deskcolor="#d1d1d1"
     inkscape:document-units="px"
     inkscape:zoom="1.0280428"
     inkscape:cx="262.63498"
     inkscape:cy="171.1991"
     inkscape:window-width="1850"
     inkscape:window-height="1016"
     inkscape:window-x="0"
     inkscape:window-y="0"
     inkscape:window-maximized="1"
     inkscape:current-layer="layer1"
     showborder="true" />
  <defs
     id="defs1" />
  <g
     inkscape:label="Layer 1"
     inkscape:groupmode="layer"
     id="layer1"
     transform="translate(-55.797173,-75.464442)">
    <g
       id="text1"
       style="font-size:25.4px;font-family:'Louis George Cafe';-inkscape-font-specification:'Louis George Cafe';stroke-width:0.264583"
       aria-label="We are shaping&#10;the future with">
      <g
         id="g3">
        <path
           style="fill:#ffffff"
           d="m 58.004795,75.464452 q 0.04961,0 0.248047,0.79375 1.16582,4.638476 3.522265,13.915429 0.02481,0 0.04961,0 0.942578,-2.976562 3.795117,-11.931054 0.223242,-0.694531 0.917773,-2.778125 0.322461,0 1.265039,0 0.02481,0 0.520899,1.612305 1.413867,4.365624 4.216797,13.096874 0,0 0.0248,0 0.942578,-3.671093 3.745508,-14.709179 0,0 0.02481,0 0.446484,0 1.810742,0 0.02481,0 0.04961,0 0,0 0,0 -1.16582,4.464844 -4.638476,17.83457 -0.07441,0.322461 -0.09922,0.322461 -0.520898,0 -1.5875,0 -0.07441,0 -0.37207,-1.041797 -1.438672,-4.464844 -4.316016,-13.44414 0,0 0,0 -1.16582,3.621484 -4.663281,14.485937 -0.42168,0 -1.637109,0 -0.02481,0 -0.471289,-1.810742 -1.413867,-5.457031 -4.241602,-16.346289 0,0 0,0 0.471289,0 1.835546,0 z m 27.433984,6.250781 q 2.554883,0 4.39043,2.282031 1.21543,1.761133 1.21543,3.447852 0,0.04961 0,0.148828 0,0.570508 -0.07441,0.570508 -3.150196,0 -9.425782,0 0,0.595312 0.496094,1.686718 0.744141,1.389063 2.158008,1.909961 0.669727,0.248047 1.21543,0.248047 1.686718,0 2.951757,-1.488281 0.42168,-0.595313 0.545704,-0.967383 0.0248,0 0.04961,0 0.992187,0.396875 1.562695,0.694531 -0.272851,0.768946 -1.215429,1.810743 -1.711524,1.661914 -3.894336,1.661914 -2.579688,0 -4.415235,-2.257227 -1.215429,-1.711523 -1.215429,-3.671094 0,-0.0248 0,-0.09922 0,-2.480469 1.785937,-4.340821 1.661914,-1.637109 3.869531,-1.637109 z m -3.720703,4.737695 q 1.860352,0 7.416602,0 -0.520899,-1.637109 -1.761133,-2.38125 -0.892969,-0.595312 -1.95957,-0.595312 -1.810742,0 -3.100586,1.686719 -0.396875,0.595312 -0.595313,1.289843 z m 23.638864,-4.737695 q 2.43086,0 3.89434,2.00918 0,0.0248 0.0248,0.07441 0,0 0,0 0,-0.471289 0,-1.934766 0.0248,0 0.0496,-0.04961 0.39688,0 1.66192,0 0,0.0248 0.0496,0.04961 0,2.926953 0,11.732617 -0.0248,0 -0.0496,0.02481 -0.42168,0 -1.66192,0 -0.0248,0 -0.0496,-0.02481 0,-0.496094 0,-1.934765 0,0 0,0 -1.33945,2.058789 -4.04316,2.058789 0,0 0,0 0,0 -0.0248,0 -2.40605,0 -4.21679,-1.909961 -1.513089,-1.835547 -1.513089,-4.01836 0,-0.04961 0,-0.124023 0,-2.356445 1.661919,-4.167187 1.76113,-1.785938 4.21679,-1.785938 z m -4.14238,5.953125 q 0,0.02481 0,0.07441 0,2.083594 1.66191,3.423047 1.0418,0.818554 2.30684,0.818554 2.70371,0 3.74551,-2.629296 0.24804,-0.79375 0.24804,-1.562696 0,-0.07441 0,-0.248046 0,-1.091407 -0.66972,-2.257227 -1.16582,-1.810742 -3.12539,-1.810742 -2.6045,0 -3.79512,2.480469 -0.37207,0.892968 -0.37207,1.711523 z m 18.5291,-5.92832 q 1.31465,0 2.30684,0.595312 -0.12403,0.620117 -0.39688,1.860352 0,0 0,0 -1.11621,-0.669727 -2.03398,-0.669727 -2.05879,0 -2.90215,1.934766 -0.17363,0.446484 -0.17363,0.917773 0,2.406055 0,7.218164 -0.0248,0 -0.0496,0.02481 -0.42168,0 -1.66192,0 0,0 -0.0496,-0.02481 0,-2.902148 0,-11.583789 0.0248,0 0.0496,-0.0248 0.42168,0 1.66192,0 0,0 0.0496,0.0248 0,0.272852 0,1.016992 0,0 0,0 0.5457,-0.74414 1.6123,-1.066601 0.79375,-0.223242 1.5875,-0.223242 z m 9.22735,-0.02481 q 2.55488,0 4.39043,2.282031 1.21543,1.761133 1.21543,3.447852 0,0.04961 0,0.148828 0,0.570508 -0.0744,0.570508 -3.15019,0 -9.42578,0 0,0.595312 0.49609,1.686718 0.74414,1.389063 2.15801,1.909961 0.66973,0.248047 1.21543,0.248047 1.68672,0 2.95176,-1.488281 0.42168,-0.595313 0.5457,-0.967383 0.0248,0 0.0496,0 0.99219,0.396875 1.5627,0.694531 -0.27285,0.768946 -1.21543,1.810743 -1.71153,1.661914 -3.89434,1.661914 -2.57969,0 -4.41523,-2.257227 -1.21543,-1.711523 -1.21543,-3.671094 0,-0.0248 0,-0.09922 0,-2.480469 1.78593,-4.340821 1.66192,-1.637109 3.86954,-1.637109 z m -3.72071,4.737695 q 1.86035,0 7.4166,0 -0.52089,-1.637109 -1.76113,-2.38125 -0.89297,-0.595312 -1.95957,-0.595312 -1.81074,0 -3.10058,1.686719 -0.39688,0.595312 -0.59532,1.289843 z m 22.24981,-4.812109 q 0.0248,0 0.14882,0 1.26504,0 2.43086,0.620117 0.34727,0.173633 0.79375,0.545703 0.37207,0.322461 0.59532,0.595313 0.19843,0.272851 0.19843,0.297656 -1.14101,0.644922 -1.48828,0.892969 -0.0248,0 -0.0248,0 -0.22324,-0.347266 -0.66973,-0.669727 -0.79375,-0.520898 -1.93476,-0.520898 -1.28985,0 -2.1084,0.620117 -0.57051,0.496094 -0.57051,1.091406 0,0.471289 0.37207,0.694531 0.12402,0.124024 0.39687,0.248047 0.5209,0.272852 1.86036,0.595313 0.62011,0.124023 1.56269,0.297656 0.62012,0.148828 1.01699,0.347266 0.37207,0.173632 0.74414,0.471289 0.12403,0.07441 0.47129,0.421679 0.74414,0.868164 0.74414,1.909961 0,0.02481 0,0.07441 0,1.091407 -0.81855,2.083594 -0.32246,0.347266 -0.49609,0.471289 -0.39688,0.297656 -0.71934,0.471289 -1.19063,0.545703 -2.45566,0.545703 -0.0496,0 -0.14883,0 -1.36426,0 -2.6541,-0.669726 -1.19063,-0.694532 -1.88516,-1.909961 0.0248,-0.02481 0.71934,-0.396875 0.27285,-0.148828 0.79375,-0.42168 0.5705,0.992188 1.66191,1.413867 0.69453,0.248047 1.46348,0.248047 1.0914,0 1.93476,-0.496094 0.17363,-0.09922 0.47129,-0.37207 0.39688,-0.471289 0.39688,-0.992187 0,-0.818555 -1.017,-1.314649 -0.27285,-0.09922 -0.74414,-0.223242 -1.98437,-0.347266 -3.10058,-0.744141 -2.28203,-0.868164 -2.28203,-2.728515 0,-0.02481 0,-0.04961 0,-1.11621 0.84336,-2.083593 0.42167,-0.396875 0.5705,-0.496094 0.54571,-0.396875 1.28985,-0.595312 0.81855,-0.272852 1.63711,-0.272852 z m 7.51582,-6.176367 q 0.42168,0 1.66191,0 0,0 0.0496,0.02481 0,1.934765 0,7.689453 1.38907,-1.364258 3.39825,-1.364258 3.64629,0 4.81211,2.604492 0.34726,0.79375 0.34726,1.736328 0,2.480469 0,7.441406 -0.0248,0 -0.0248,0.02481 -0.42168,0 -1.68672,0 0,0 -0.0496,-0.02481 0,-1.860351 0,-7.416601 0,-2.058789 -2.25723,-2.554883 -0.32246,-0.04961 -0.94258,-0.04961 -0.14882,0 -0.49609,0 -2.08359,0 -2.87734,1.438671 -0.22325,0.570508 -0.22325,1.265039 0,2.43086 0,7.317383 -0.0248,0 -0.0496,0.02481 -0.42167,0 -1.66191,0 0,0 -0.0496,-0.02481 0,-4.539258 0,-18.107421 0.0248,0 0.0496,-0.02481 z m 19.09961,6.250781 q 2.43086,0 3.89434,2.00918 0,0.0248 0.0248,0.07441 0,0 0,0 0,-0.471289 0,-1.934766 0.0248,0 0.0496,-0.04961 0.39688,0 1.66191,0 0,0.0248 0.0496,0.04961 0,2.926953 0,11.732617 -0.0248,0 -0.0496,0.02481 -0.42168,0 -1.66191,0 -0.0248,0 -0.0496,-0.02481 0,-0.496094 0,-1.934765 0,0 0,0 -1.33945,2.058789 -4.04316,2.058789 0,0 0,0 0,0 -0.0248,0 -2.40605,0 -4.21679,-1.909961 -1.51309,-1.835547 -1.51309,-4.01836 0,-0.04961 0,-0.124023 0,-2.356445 1.66191,-4.167187 1.76114,-1.785938 4.2168,-1.785938 z m -4.14238,5.953125 q 0,0.02481 0,0.07441 0,2.083594 1.66191,3.423047 1.0418,0.818554 2.30684,0.818554 2.70371,0 3.74551,-2.629296 0.24804,-0.79375 0.24804,-1.562696 0,-0.07441 0,-0.248046 0,-1.091407 -0.66972,-2.257227 -1.16582,-1.810742 -3.1254,-1.810742 -2.60449,0 -3.79511,2.480469 -0.37207,0.892968 -0.37207,1.711523 z m 19.34765,-5.953125 q 0.0248,0 0.0248,0.02481 0,0 0.0248,0 0,0 0.0248,-0.02481 2.13321,0 3.86954,1.5875 0.89296,0.967383 1.26503,1.785937 0.57051,1.289844 0.57051,2.480469 0,0.09922 0,0.297656 0,2.282032 -1.73633,4.167188 -1.76113,1.686719 -4.14238,1.686719 -2.43086,0 -3.89433,-1.984375 0,-0.02481 -0.0248,-0.07441 0,0 0,0 0,1.810742 0,7.267773 -0.0248,0 -0.0496,0.04961 -0.42168,0 -1.66191,0 0,-0.0248 -0.0496,-0.04961 0,-4.216797 0,-16.916797 0.0248,0 0.0496,0 0.42168,0 1.66191,0 0,0 0.0496,0 0,0.446485 0,1.785938 1.36426,-2.083594 4.01836,-2.083594 z m -3.91914,6.027539 q 0,0.02481 0,0.124023 0,1.488282 1.09141,2.877344 1.0914,1.240234 2.70371,1.240234 2.48047,0 3.6959,-2.257226 0.47128,-0.967383 0.47128,-1.934766 0,-0.04961 0,-0.173632 0,-1.711524 -1.31464,-3.050977 -1.16582,-1.091406 -2.65411,-1.091406 -2.6789,0 -3.69589,2.604492 -0.29766,0.79375 -0.29766,1.661914 z m 12.89843,-5.903516 q 0.42168,0 1.71152,0 0,0 0.0248,0 0,2.951758 0,11.782227 -0.0248,0 -0.0248,0 -0.42167,0 -1.71152,0 0,0 -0.0248,0 0,-2.951758 0,-11.782227 z m 0.81856,-6.374804 q 0.0248,0 0.0992,0 0.44649,0 0.84336,0.396875 0.34727,0.396875 0.34727,0.79375 0,0.02481 0,0.07441 0,0.520898 -0.47129,0.917773 -0.34726,0.297657 -0.74414,0.297657 -0.0248,0 -0.0744,0 -0.54571,0 -0.94258,-0.496094 -0.24805,-0.322461 -0.24805,-0.694531 0,-0.02481 0,-0.09922 0,-0.471289 0.39688,-0.868164 0.37207,-0.322461 0.79375,-0.322461 z m 9.89707,6.374804 q 0.0744,0 0.22324,0 3.49746,0 4.68809,2.654102 0.32246,0.79375 0.32246,1.686719 0,2.455664 0,7.416601 -0.0248,0 -0.0496,0.02481 -0.42168,0 -1.66192,0 -0.0248,0 -0.0496,-0.02481 0,-1.860351 0,-7.416601 0,-1.835547 -1.86036,-2.455664 -0.44648,-0.148828 -1.71152,-0.148828 -1.53789,0 -2.30684,0.644921 -0.91777,0.595313 -0.91777,2.058789 0,2.43086 0,7.317383 -0.0248,0 -0.0496,0.02481 -0.42168,0 -1.66191,0 0,0 -0.0496,-0.02481 0,-2.902148 0,-11.558984 0.0248,0 0.0496,-0.02481 0.42168,0 1.66191,0 0,0 0.0496,0.02481 0,0.297656 0,1.16582 1.33945,-1.364258 3.32383,-1.364258 z m 10.29394,4.241602 q 0,0.04961 0,0.124023 0,0.768946 0.57051,1.537891 0.29766,0.322461 0.44649,0.42168 0.84336,0.620117 1.88515,0.620117 1.11621,0 2.00918,-0.744141 0.86817,-0.818554 0.86817,-1.885156 0,-1.016992 -0.79375,-1.835547 -0.39688,-0.37207 -0.86817,-0.570508 -0.59531,-0.248046 -1.21543,-0.248046 0,0 -0.0496,0 -0.81855,0 -1.56269,0.421679 -0.24805,0.148828 -0.57051,0.471289 -0.37207,0.396875 -0.49609,0.768946 -0.22325,0.471289 -0.22325,0.917773 z m -0.32246,8.929687 q 0,0.02481 0,0.02481 0,0.79375 0.86817,1.463477 1.0914,0.719335 2.77812,0.719335 1.53789,0 2.6541,-0.719335 0.19844,-0.09922 0.47129,-0.396875 0.5209,-0.595313 0.5209,-1.190625 0,0 0,-0.02481 0,-0.570508 -0.47129,-1.066602 -0.37207,-0.322461 -0.99218,-0.496093 -0.74415,-0.198438 -1.46348,-0.198438 -0.39688,0 -1.16582,0 -0.94258,0 -1.66192,-0.124023 -0.29765,0.198437 -0.79375,0.620117 -0.74414,0.768945 -0.74414,1.389062 z m 3.19981,-13.270507 q 1.51308,0 2.77812,0.868164 0.24805,-0.297656 0.42168,-0.396875 0.42168,-0.297656 0.81856,-0.372071 0.32246,-0.09922 0.62011,-0.09922 0.12403,0 0.37208,0 0.0248,0.0248 0.0248,0.0248 0,0.42168 0,1.711524 0,0 -0.0248,0.02481 -0.0744,0 -0.29766,0 -0.39688,0 -0.59531,0.198437 -0.0992,0.124023 -0.0992,0.223242 0.19844,0.347266 0.39687,0.868164 0.22324,0.669727 0.22324,1.364258 0,1.661914 -1.21542,2.976562 -0.5209,0.47129 -0.74415,0.620118 -0.37207,0.223242 -0.84335,0.421679 -0.89297,0.372071 -1.78594,0.372071 -0.0248,0 -0.0744,0 -1.04179,0 -2.05879,-0.496094 -0.24804,0.297656 -0.24804,0.620117 0,0.297656 0.17363,0.37207 0.49609,0.347266 2.28203,0.347266 0.29766,0 0.89297,-0.02481 2.40606,0 3.74551,1.141016 0.32246,0.322461 0.47129,0.520898 0.62011,0.892969 0.62011,1.885157 0,0.992187 -0.66972,1.934765 -0.12403,0.248047 -0.57051,0.644922 -0.42168,0.396875 -0.71934,0.570508 -0.32246,0.223242 -0.74414,0.396875 -0.52089,0.198437 -0.99218,0.322461 -0.84336,0.198437 -1.51309,0.198437 -0.12402,0 -0.42168,0 -1.09141,0 -2.25723,-0.396875 -0.59531,-0.223242 -1.04179,-0.496093 -0.32246,-0.198438 -0.69453,-0.520899 -0.34727,-0.347266 -0.47129,-0.545703 -0.69453,-0.942578 -0.69453,-1.909961 0,-0.04961 0,-0.148828 0,-1.016992 0.79375,-2.108398 0.32246,-0.347266 0.62011,-0.570508 0.0248,-0.02481 0.0744,-0.04961 -0.62012,-0.595312 -0.62012,-1.562695 0,0 0,-0.02481 0,-0.868164 0.5457,-1.5875 0.0248,-0.0248 0.0248,-0.04961 -0.27285,-0.297656 -0.47129,-0.644922 -0.64492,-1.041797 -0.64492,-2.207617 0,-1.637109 1.14101,-2.902148 0.42168,-0.446485 0.54571,-0.520899 0.39687,-0.297656 0.81855,-0.496094 1.0418,-0.496093 2.1084,-0.496093 z"
           id="path2" />
        <path
           style="fill:#ffffff"
           d="m 57.781553,107.21445 q 0.42168,0 1.711523,0 0,0 0,0 0,1.61231 0,6.37481 0.818555,0 3.22461,0 0,0 0,0 0,0.44648 0,1.73632 0,0 0,0.0248 -0.818555,0 -3.22461,0 0,1.68672 0,6.79648 0,0.5209 0.272852,0.94258 0.272851,0.34727 0.694531,0.49609 0.198438,0.0496 0.37207,0.0496 0.02481,0 0.04961,0 0.471289,0 1.289843,-0.32246 0.04961,-0.0248 0.173633,-0.0744 0.620117,1.38906 0.694532,1.5875 -0.173633,0.0992 -0.694532,0.27285 -0.892968,0.27285 -1.389062,0.27285 -0.04961,0 -0.198438,0 -0.669726,0 -1.389062,-0.39687 -0.992188,-0.5209 -1.364258,-1.53789 -0.223242,-0.64493 -0.223242,-1.41387 0,-2.23242 0,-6.67246 -0.496094,0 -1.95957,0 0,-0.0248 -0.02481,-0.0248 0,-0.42168 0,-1.73632 0.02481,0 0.02481,0 0.496093,0 1.95957,0 0,-1.5875 0,-6.37481 z m 7.987109,0 q 0.42168,0 1.661914,0 0,0 0.04961,0.0248 0,1.93476 0,7.68945 1.389062,-1.36426 3.398242,-1.36426 3.646289,0 4.812109,2.60449 0.347266,0.79375 0.347266,1.73633 0,2.48047 0,7.44141 -0.02481,0 -0.02481,0.0248 -0.42168,0 -1.686719,0 0,0 -0.04961,-0.0248 0,-1.86035 0,-7.4166 0,-2.05879 -2.257227,-2.55489 -0.322461,-0.0496 -0.942578,-0.0496 -0.148828,0 -0.496093,0 -2.083594,0 -2.877344,1.43868 -0.223242,0.5705 -0.223242,1.26503 0,2.43086 0,7.31739 -0.02481,0 -0.04961,0.0248 -0.421679,0 -1.661914,0 0,0 -0.04961,-0.0248 0,-4.53926 0,-18.10742 0.02481,0 0.04961,-0.0248 z m 18.553906,6.25078 q 2.554883,0 4.39043,2.28203 1.21543,1.76114 1.21543,3.44786 0,0.0496 0,0.14882 0,0.57051 -0.07441,0.57051 -3.150196,0 -9.425781,0 0,0.59531 0.496093,1.68672 0.744141,1.38906 2.158008,1.90996 0.669727,0.24805 1.21543,0.24805 1.686718,0 2.951757,-1.48828 0.42168,-0.59532 0.545704,-0.96739 0.0248,0 0.04961,0 0.992187,0.39688 1.562695,0.69453 -0.272851,0.76895 -1.215429,1.81075 -1.711524,1.66191 -3.894336,1.66191 -2.579688,0 -4.415235,-2.25723 -1.215429,-1.71152 -1.215429,-3.67109 0,-0.0248 0,-0.0992 0,-2.48047 1.785937,-4.34082 1.661914,-1.63711 3.869531,-1.63711 z m -3.720703,4.7377 q 1.860352,0 7.416602,0 -0.520899,-1.63711 -1.761133,-2.38125 -0.892969,-0.59531 -1.95957,-0.59531 -1.810742,0 -3.100586,1.68671 -0.396875,0.59532 -0.595313,1.28985 z m 23.589255,-10.98848 q 0.0992,0 0.37207,0 0,0 0,0 0,0.44649 0,1.71152 0,0.0248 0,0.0248 -0.0744,0 -0.27285,0 -1.53789,0 -2.33164,1.6123 -0.5457,1.11622 -0.5457,2.92696 0,0.0496 0,0.0992 0.79375,0 3.15019,0 0,0 0,0 0,0.44648 0,1.73632 0,0 0,0 -0.79375,0 -3.15019,0 0,2.50528 0,10.0459 0,0 -0.0248,0 -0.42168,0 -1.686717,0 -0.0248,0 -0.0248,0 0,-2.53008 0,-10.0459 -0.520899,0 -2.108399,0 0,0 -0.02481,0 0,-0.44648 0,-1.73632 0.02481,0 0.02481,0 0.520899,0 2.108399,0 0,-0.0496 0,-0.22325 0,-2.77812 1.240227,-4.46484 0.14883,-0.19844 0.47129,-0.5209 0.42168,-0.39687 0.74414,-0.57051 0.34727,-0.19843 0.69453,-0.32246 0.71934,-0.27285 1.36426,-0.27285 z m 1.90996,6.37481 q 0.39688,0 1.66192,0 0,0 0.0248,0.0496 0,1.83554 0,7.39179 0,1.95957 2.0836,2.48047 0.39687,0.12402 1.38906,0.12402 1.28984,0 1.90996,-0.34726 0.96738,-0.44649 1.26504,-1.26504 0.17363,-0.57051 0.17363,-1.11621 0,-2.43086 0,-7.26777 0,-0.0248 0.0248,-0.0496 0.42168,0 1.68671,0 0,0 0.0248,0.0496 0,2.87734 0,11.53417 0,0 -0.0248,0.0248 -0.42168,0 -1.68671,0 0,0 -0.0248,-0.0248 0,-0.29765 0,-1.16582 -1.36426,1.36426 -3.44785,1.36426 -2.20762,0 -3.44785,-0.94258 -1.66192,-1.26503 -1.66192,-3.32382 0,-2.50528 0,-7.46621 0,-0.0248 0.0496,-0.0496 z m 14.51075,-6.37481 q 0.42168,0 1.71152,0 0,0 0,0 0,1.61231 0,6.37481 0.81855,0 3.22461,0 0,0 0,0 0,0.44648 0,1.73632 0,0 0,0.0248 -0.81856,0 -3.22461,0 0,1.68672 0,6.79648 0,0.5209 0.27285,0.94258 0.27285,0.34727 0.69453,0.49609 0.19844,0.0496 0.37207,0.0496 0.0248,0 0.0496,0 0.47129,0 1.28985,-0.32246 0.0496,-0.0248 0.17363,-0.0744 0.62012,1.38906 0.69453,1.5875 -0.17363,0.0992 -0.69453,0.27285 -0.89297,0.27285 -1.38906,0.27285 -0.0496,0 -0.19844,0 -0.66973,0 -1.38906,-0.39687 -0.99219,-0.5209 -1.36426,-1.53789 -0.22324,-0.64493 -0.22324,-1.41387 0,-2.23242 0,-6.67246 -0.4961,0 -1.95957,0 0,-0.0248 -0.0248,-0.0248 0,-0.42168 0,-1.73632 0.0248,0 0.0248,0 0.49609,0 1.95957,0 0,-1.5875 0,-6.37481 z m 7.9375,6.37481 q 0.39687,0 1.66191,0 0,0 0.0248,0.0496 0,1.83554 0,7.39179 0,1.95957 2.08359,2.48047 0.39688,0.12402 1.38906,0.12402 1.28985,0 1.90997,-0.34726 0.96738,-0.44649 1.26503,-1.26504 0.17364,-0.57051 0.17364,-1.11621 0,-2.43086 0,-7.26777 0,-0.0248 0.0248,-0.0496 0.42168,0 1.68672,0 0,0 0.0248,0.0496 0,2.87734 0,11.53417 0,0 -0.0248,0.0248 -0.42168,0 -1.68672,0 0,0 -0.0248,-0.0248 0,-0.29765 0,-1.16582 -1.36426,1.36426 -3.44785,1.36426 -2.20762,0 -3.44786,-0.94258 -1.66191,-1.26503 -1.66191,-3.32382 0,-2.50528 0,-7.46621 0,-0.0248 0.0496,-0.0496 z m 18.97559,-0.0992 q 1.31464,0 2.30683,0.59531 -0.12402,0.62012 -0.39687,1.86035 0,0 0,0 -1.11621,-0.66973 -2.03399,-0.66973 -2.05879,0 -2.90215,1.93477 -0.17363,0.44648 -0.17363,0.91777 0,2.40606 0,7.21817 -0.0248,0 -0.0496,0.0248 -0.42168,0 -1.66191,0 0,0 -0.0496,-0.0248 0,-2.90215 0,-11.58379 0.0248,0 0.0496,-0.0248 0.42168,0 1.66191,0 0,0 0.0496,0.0248 0,0.27285 0,1.01699 0,0 0,0 0.5457,-0.74414 1.61231,-1.0666 0.79375,-0.22324 1.5875,-0.22324 z m 9.22734,-0.0248 q 2.55488,0 4.39043,2.28203 1.21543,1.76114 1.21543,3.44786 0,0.0496 0,0.14882 0,0.57051 -0.0744,0.57051 -3.15019,0 -9.42578,0 0,0.59531 0.49609,1.68672 0.74414,1.38906 2.15801,1.90996 0.66973,0.24805 1.21543,0.24805 1.68672,0 2.95176,-1.48828 0.42168,-0.59532 0.5457,-0.96739 0.0248,0 0.0496,0 0.99219,0.39688 1.5627,0.69453 -0.27285,0.76895 -1.21543,1.81075 -1.71153,1.66191 -3.89434,1.66191 -2.57969,0 -4.41523,-2.25723 -1.21543,-1.71152 -1.21543,-3.67109 0,-0.0248 0,-0.0992 0,-2.48047 1.78593,-4.34082 1.66192,-1.63711 3.86954,-1.63711 z m -3.72071,4.7377 q 1.86035,0 7.4166,0 -0.52089,-1.63711 -1.76113,-2.38125 -0.89297,-0.59531 -1.95957,-0.59531 -1.81074,0 -3.10058,1.68671 -0.39688,0.59532 -0.59532,1.28985 z m 19.17402,-4.61367 q 0.0248,0 0.39688,1.0914 0.89297,2.67891 2.70371,8.01192 0.0248,0 0.0248,0 0.76894,-2.25723 3.02617,-9.07852 0,0 0,-0.0248 0.32246,0 1.26504,0 0.0496,0 0.44648,1.26504 0.47129,1.41386 2.57969,7.83828 0,0 0.0248,0 0.79375,-2.25723 3.10059,-9.10332 0.47129,0 1.86035,0 0.0248,0 0.0496,0.0496 -1.01699,2.92695 -4.06797,11.73261 -0.47129,0 -1.88516,0 -0.0496,0 -0.66972,-2.00918 -0.69453,-2.05879 -2.05879,-6.20117 0,0 -0.0248,0 -0.66972,2.05879 -2.70371,8.21035 -0.47129,0 -1.86035,0 -0.0992,-0.12402 -0.5209,-1.41386 -1.19062,-3.44786 -3.57187,-10.34356 0,0 0,-0.0248 0.47129,0 1.88515,0 z m 18.15703,0 q 0.42168,0 1.71152,0 0,0 0.0248,0 0,2.95175 0,11.78222 -0.0248,0 -0.0248,0 -0.42167,0 -1.71152,0 0,0 -0.0248,0 0,-2.95176 0,-11.78222 z m 0.81856,-6.37481 q 0.0248,0 0.0992,0 0.44649,0 0.84336,0.39688 0.34727,0.39687 0.34727,0.79375 0,0.0248 0,0.0744 0,0.5209 -0.47129,0.91777 -0.34726,0.29766 -0.74414,0.29766 -0.0248,0 -0.0744,0 -0.54571,0 -0.94258,-0.49609 -0.24805,-0.32246 -0.24805,-0.69453 0,-0.0248 0,-0.0992 0,-0.47129 0.39688,-0.86817 0.37207,-0.32246 0.79375,-0.32246 z m 5.3082,0 q 0.42168,0 1.71153,0 0,0 0,0 0,1.61231 0,6.37481 0.81855,0 3.22461,0 0,0 0,0 0,0.44648 0,1.73632 0,0 0,0.0248 -0.81856,0 -3.22461,0 0,1.68672 0,6.79648 0,0.5209 0.27285,0.94258 0.27285,0.34727 0.69453,0.49609 0.19844,0.0496 0.37207,0.0496 0.0248,0 0.0496,0 0.47129,0 1.28984,-0.32246 0.0496,-0.0248 0.17363,-0.0744 0.62012,1.38906 0.69454,1.5875 -0.17364,0.0992 -0.69454,0.27285 -0.89296,0.27285 -1.38906,0.27285 -0.0496,0 -0.19844,0 -0.66972,0 -1.38906,-0.39687 -0.99219,-0.5209 -1.36426,-1.53789 -0.22324,-0.64493 -0.22324,-1.41387 0,-2.23242 0,-6.67246 -0.49609,0 -1.95957,0 0,-0.0248 -0.0248,-0.0248 0,-0.42168 0,-1.73632 0.0248,0 0.0248,0 0.4961,0 1.95957,0 0,-1.5875 0,-6.37481 z m 7.98711,0 q 0.42168,0 1.66192,0 0,0 0.0496,0.0248 0,1.93476 0,7.68945 1.38906,-1.36426 3.39824,-1.36426 3.64629,0 4.81211,2.60449 0.34726,0.79375 0.34726,1.73633 0,2.48047 0,7.44141 -0.0248,0 -0.0248,0.0248 -0.42168,0 -1.68672,0 0,0 -0.0496,-0.0248 0,-1.86035 0,-7.4166 0,-2.05879 -2.25723,-2.55489 -0.32246,-0.0496 -0.94258,-0.0496 -0.14882,0 -0.49609,0 -2.08359,0 -2.87734,1.43868 -0.22324,0.5705 -0.22324,1.26503 0,2.43086 0,7.31739 -0.0248,0 -0.0496,0.0248 -0.42168,0 -1.66192,0 0,0 -0.0496,-0.0248 0,-4.53926 0,-18.10742 0.0248,0 0.0496,-0.0248 z"
           id="path3" />
      </g>
    </g>
  </g>
</svg>
