<?xml version="1.0" encoding="UTF-8"?>
<!DOCTYPE svg PUBLIC "-//W3C//DTD SVG 1.1//EN" "http://www.w3.org/Graphics/SVG/1.1/DTD/svg11.dtd">
<!-- Creator: CorelDRAW Standard 2021 (64-Bit) -->
<svg xmlns="http://www.w3.org/2000/svg" xml:space="preserve" width="39.1355mm" height="51.6531mm" version="1.1" style="shape-rendering:geometricPrecision; text-rendering:geometricPrecision; image-rendering:optimizeQuality; fill-rule:evenodd; clip-rule:evenodd"
viewBox="0 0 813.32 1073.47"
 xmlns:xlink="http://www.w3.org/1999/xlink"
 xmlns:xodm="http://www.corel.com/coreldraw/odm/2003">
 <defs>
  <style type="text/css">
   <![CDATA[
    .fil0 {fill:white;fill-rule:nonzero}
   ]]>
  </style>
 </defs>
 <g id="Layer_x0020_1">
  <metadata id="CorelCorpID_0Corel-Layer"/>
  <g id="_2080523398848">
   <g>
    <path class="fil0" d="M719.62 591.18c0,25.83 21.01,46.85 46.85,46.85 25.83,0 46.85,-21.02 46.85,-46.85 0,-25.83 -21.02,-46.84 -46.85,-46.84 -25.83,0 -46.85,21.01 -46.85,46.84zm73.81 0l0 0c0,14.87 -12.1,26.96 -26.96,26.96 -14.87,0 -26.96,-12.1 -26.96,-26.96 0,-14.86 12.1,-26.96 26.96,-26.96 14.87,0 26.96,12.09 26.96,26.96z"/>
   </g>
   <g>
    <polygon class="fil0" points="573.9,80.89 573.9,1073.47 593.79,1073.47 593.79,80.89 "/>
   </g>
   <g>
    <path class="fil0" d="M537 46.85c0,25.84 21.02,46.85 46.85,46.85 25.83,0 46.85,-21.01 46.85,-46.85 0,-25.83 -21.02,-46.85 -46.85,-46.85 -25.83,0 -46.85,21.01 -46.85,46.85zm73.81 0l0 0c0,14.87 -12.1,26.96 -26.96,26.96 -14.87,0 -26.96,-12.1 -26.96,-26.96 0,-14.86 12.1,-26.96 26.96,-26.96 14.86,0 26.96,12.1 26.96,26.96z"/>
   </g>
   <g>
    <polygon class="fil0" points="394.9,80.89 394.9,1073.47 414.79,1073.47 414.79,80.89 "/>
   </g>
   <g>
    <path class="fil0" d="M357.66 46.85c0,25.84 21.01,46.85 46.85,46.85 25.84,0 46.85,-21.01 46.85,-46.85 0,-25.83 -21.02,-46.85 -46.85,-46.85 -25.83,0 -46.85,21.01 -46.85,46.85zm73.81 0l0 0c0,14.87 -12.1,26.96 -26.96,26.96 -14.86,0 -26.96,-12.1 -26.96,-26.96 0,-14.86 12.1,-26.96 26.96,-26.96 14.87,0 26.96,12.1 26.96,26.96z"/>
   </g>
   <g>
    <polygon class="fil0" points="215.91,80.89 215.91,1073.47 235.8,1073.47 235.8,80.89 "/>
   </g>
   <g>
    <path class="fil0" d="M178.32 46.85c0,25.84 21.02,46.85 46.85,46.85 25.83,0 46.85,-21.01 46.85,-46.85 0,-25.83 -21.02,-46.85 -46.85,-46.85 -25.83,0 -46.85,21.01 -46.85,46.85zm73.82 0l0 0c0,14.87 -12.1,26.96 -26.96,26.96 -14.87,0 -26.96,-12.1 -26.96,-26.96 0,-14.86 12.1,-26.96 26.96,-26.96 14.87,0 26.96,12.1 26.96,26.96z"/>
   </g>
   <g>
    <polygon class="fil0" points="753.24,632.54 753.24,1073.47 773.13,1073.47 773.13,632.54 "/>
   </g>
   <g>
    <polygon class="fil0" points="36.91,80.89 36.91,1073.47 56.8,1073.47 56.8,80.89 "/>
   </g>
   <g>
    <path class="fil0" d="M-0 46.85c0,25.84 21.02,46.85 46.85,46.85 25.83,0 46.85,-21.01 46.85,-46.85 0,-25.83 -21.01,-46.85 -46.85,-46.85 -25.83,0 -46.85,21.01 -46.85,46.85zm73.82 0l0 0c0,14.87 -12.1,26.96 -26.96,26.96 -14.87,0 -26.96,-12.1 -26.96,-26.96 0,-14.86 12.1,-26.96 26.96,-26.96 14.87,0 26.96,12.1 26.96,26.96z"/>
   </g>
  </g>
 </g>
</svg>
